STARTFONT 2.1
COMMENT
COMMENT Converted from OpenType font "Catrinity-Regular.otf" by "otf2bdf 3.0".
COMMENT
FONT -FreeType-Catrinity-Medium-R-Normal--28-200-100-100-P-139-ISO10646-1
SIZE 20 100 100
FONTBOUNDINGBOX 63 36 -16 -11
STARTPROPERTIES 19
FOUNDRY "FreeType"
FAMILY_NAME "Catrinity"
WEIGHT_NAME "Medium"
SLANT "R"
SETWIDTH_NAME "Normal"
ADD_STYLE_NAME ""
PIXEL_SIZE 28
POINT_SIZE 200
RESOLUTION_X 100
RESOLUTION_Y 100
SPACING "P"
AVERAGE_WIDTH 139
CHARSET_REGISTRY "ISO10646"
CHARSET_ENCODING "1"
FONT_ASCENT 23
FONT_DESCENT 10
COPYRIGHT "Typeface © Alexander Lange. 2023. All Rights Reserved"
_OTF_FONTFILE "Catrinity-Regular.otf"
_OTF_PSNAME "Catrinity"
ENDPROPERTIES
CHARS 9984
STARTCHAR 0000
ENCODING 0
SWIDTH 0 0
DWIDTH 0 0
BBX 0 0 0 0
BITMAP
ENDCHAR
STARTCHAR 0008
ENCODING 8
SWIDTH 0 0
DWIDTH 0 0
BBX 0 0 0 0
BITMAP
ENDCHAR
STARTCHAR 0009
ENCODING 9
SWIDTH 216 0
DWIDTH 6 0
BBX 0 0 0 0
BITMAP
ENDCHAR
STARTCHAR 000D
ENCODING 13
SWIDTH 216 0
DWIDTH 6 0
BBX 0 0 0 0
BITMAP
ENDCHAR
STARTCHAR 001D
ENCODING 29
SWIDTH 0 0
DWIDTH 0 0
BBX 0 0 0 0
BITMAP
ENDCHAR
STARTCHAR 0020
ENCODING 32
SWIDTH 216 0
DWIDTH 6 0
BBX 0 0 0 0
BITMAP
ENDCHAR
STARTCHAR 0021
ENCODING 33
SWIDTH 144 0
DWIDTH 4 0
BBX 3 18 1 0
BITMAP
C0
C0
C0
C0
C0
C0
C0
C0
C0
C0
C0
C0
C0
00
00
40
E0
E0
ENDCHAR
STARTCHAR 0022
ENCODING 34
SWIDTH 288 0
DWIDTH 8 0
BBX 6 6 1 12
BITMAP
CC
CC
CC
CC
CC
CC
ENDCHAR
STARTCHAR 0023
ENCODING 35
SWIDTH 684 0
DWIDTH 19 0
BBX 17 18 1 0
BITMAP
030600
030600
030E00
070C00
060C00
3FFF80
3FFF80
060C00
061800
0C1800
0C1800
7FFF00
FFFF00
0C3800
0C3000
183000
183000
183000
ENDCHAR
STARTCHAR 0024
ENCODING 36
SWIDTH 468 0
DWIDTH 13 0
BBX 11 24 1 -3
BITMAP
0600
0600
0600
1F00
3F80
77C0
66C0
66E0
6600
7600
3E00
1F00
0780
07C0
06E0
0660
C660
6660
76E0
3FC0
1F80
0600
0600
0600
ENDCHAR
STARTCHAR 0025
ENCODING 37
SWIDTH 612 0
DWIDTH 17 0
BBX 15 18 1 0
BITMAP
3C06
7E0C
E31C
C338
E330
7E70
3EE0
00C0
01C0
0380
0300
067C
0EFE
1CC6
18C6
38C6
70FE
607C
ENDCHAR
STARTCHAR 0026
ENCODING 38
SWIDTH 540 0
DWIDTH 15 0
BBX 13 18 1 0
BITMAP
1F00
3F80
71C0
6080
6000
6060
7060
3FF8
1FF8
7C60
6060
E060
C060
C060
60E0
70E0
3FF8
1F78
ENDCHAR
STARTCHAR 0027
ENCODING 39
SWIDTH 144 0
DWIDTH 4 0
BBX 2 6 1 12
BITMAP
C0
C0
C0
C0
C0
C0
ENDCHAR
STARTCHAR 0028
ENCODING 40
SWIDTH 288 0
DWIDTH 8 0
BBX 6 23 1 -5
BITMAP
1C
18
30
30
70
60
60
60
60
C0
C0
C0
C0
C0
E0
60
60
60
60
30
30
38
1C
ENDCHAR
STARTCHAR 0029
ENCODING 41
SWIDTH 288 0
DWIDTH 8 0
BBX 6 23 1 -5
BITMAP
E0
60
30
30
18
18
18
18
0C
0C
0C
0C
0C
0C
0C
1C
18
18
18
38
30
70
60
ENDCHAR
STARTCHAR 002A
ENCODING 42
SWIDTH 432 0
DWIDTH 12 0
BBX 9 9 2 9
BITMAP
1800
9800
DB00
EF00
1C00
7E00
CB80
9900
1800
ENDCHAR
STARTCHAR 002B
ENCODING 43
SWIDTH 504 0
DWIDTH 14 0
BBX 13 12 1 3
BITMAP
0600
0600
0600
0600
0600
FFF8
FFF8
0600
0600
0600
0600
0600
ENDCHAR
STARTCHAR 002C
ENCODING 44
SWIDTH 180 0
DWIDTH 5 0
BBX 4 8 1 -5
BITMAP
40
F0
F0
10
10
20
40
80
ENDCHAR
STARTCHAR 002D
ENCODING 45
SWIDTH 324 0
DWIDTH 9 0
BBX 7 2 1 5
BITMAP
FE
FE
ENDCHAR
STARTCHAR 002E
ENCODING 46
SWIDTH 180 0
DWIDTH 5 0
BBX 3 3 1 0
BITMAP
40
E0
60
ENDCHAR
STARTCHAR 002F
ENCODING 47
SWIDTH 396 0
DWIDTH 11 0
BBX 8 18 2 0
BITMAP
03
07
06
06
0C
0C
0C
18
18
38
30
30
70
60
60
C0
C0
C0
ENDCHAR
STARTCHAR 0030
ENCODING 48
SWIDTH 468 0
DWIDTH 13 0
BBX 11 18 1 0
BITMAP
0F00
1F80
31C0
70C0
60C0
6060
6060
C060
C060
C060
C060
6060
6060
60E0
70C0
31C0
1F80
0F00
ENDCHAR
STARTCHAR 0031
ENCODING 49
SWIDTH 396 0
DWIDTH 11 0
BBX 9 18 1 0
BITMAP
0C00
1C00
3C00
FC00
0C00
0C00
0C00
0C00
0C00
0C00
0C00
0C00
0C00
0C00
0C00
0C00
FF80
FF80
ENDCHAR
STARTCHAR 0032
ENCODING 50
SWIDTH 432 0
DWIDTH 12 0
BBX 10 18 1 0
BITMAP
1F00
7F80
6180
E0C0
C0C0
00C0
01C0
0380
0300
0E00
1C00
3800
7000
6000
6000
C000
FFC0
FFC0
ENDCHAR
STARTCHAR 0033
ENCODING 51
SWIDTH 432 0
DWIDTH 12 0
BBX 11 18 1 0
BITMAP
1F00
3F80
6180
E0C0
C0C0
00C0
01C0
0780
0700
0780
00C0
00C0
00E0
00E0
40C0
61C0
7F80
1F00
ENDCHAR
STARTCHAR 0034
ENCODING 52
SWIDTH 540 0
DWIDTH 15 0
BBX 13 18 1 0
BITMAP
00C0
01C0
03C0
07C0
06C0
0CC0
1CC0
18C0
30C0
70C0
E0C0
FFF8
FFF8
00C0
00C0
00C0
00C0
00C0
ENDCHAR
STARTCHAR 0035
ENCODING 53
SWIDTH 432 0
DWIDTH 12 0
BBX 11 18 1 0
BITMAP
3F80
3F80
6000
6000
6000
6C00
7F00
7380
E1C0
00C0
00C0
0060
00E0
00C0
40C0
61C0
7F80
1F00
ENDCHAR
STARTCHAR 0036
ENCODING 54
SWIDTH 468 0
DWIDTH 13 0
BBX 11 18 1 0
BITMAP
0F80
1FC0
38E0
3000
6000
6000
6000
C400
DF80
FFC0
E0E0
E060
6060
6060
6060
30E0
3FC0
1F80
ENDCHAR
STARTCHAR 0037
ENCODING 55
SWIDTH 504 0
DWIDTH 14 0
BBX 12 18 1 0
BITMAP
FFF0
FFE0
00C0
00C0
0180
0180
0300
0300
0600
0600
0600
0C00
0C00
0C00
0C00
1C00
1800
1800
ENDCHAR
STARTCHAR 0038
ENCODING 56
SWIDTH 468 0
DWIDTH 13 0
BBX 11 18 1 0
BITMAP
1F00
3F80
71C0
60C0
60E0
60C0
70C0
3FC0
1F80
7FC0
60E0
E060
C060
C060
6060
70E0
3FC0
1F80
ENDCHAR
STARTCHAR 0039
ENCODING 57
SWIDTH 468 0
DWIDTH 13 0
BBX 11 18 1 0
BITMAP
1F00
3FC0
70C0
6060
C060
C060
E060
60E0
79C0
3FC0
07C0
0180
0180
0380
0300
0300
0600
0600
ENDCHAR
STARTCHAR 003A
ENCODING 58
SWIDTH 180 0
DWIDTH 5 0
BBX 3 13 1 0
BITMAP
40
E0
60
00
00
00
00
00
00
00
40
E0
60
ENDCHAR
STARTCHAR 003B
ENCODING 59
SWIDTH 180 0
DWIDTH 5 0
BBX 4 18 1 -5
BITMAP
40
E0
60
00
00
00
00
00
00
00
40
F0
F0
10
10
20
40
80
ENDCHAR
STARTCHAR 003C
ENCODING 60
SWIDTH 504 0
DWIDTH 14 0
BBX 13 11 1 3
BITMAP
0038
01F8
0FC0
3F00
F800
F800
7E00
0FC0
01F8
0038
0008
ENDCHAR
STARTCHAR 003D
ENCODING 61
SWIDTH 504 0
DWIDTH 14 0
BBX 13 7 1 5
BITMAP
FFF8
FFF8
0000
0000
FFF8
FFF8
FFF8
ENDCHAR
STARTCHAR 003E
ENCODING 62
SWIDTH 504 0
DWIDTH 14 0
BBX 13 11 1 3
BITMAP
E000
FC00
1F80
07E0
00F8
00F8
03F0
1F80
FC00
E000
8000
ENDCHAR
STARTCHAR 003F
ENCODING 63
SWIDTH 432 0
DWIDTH 12 0
BBX 10 18 1 0
BITMAP
1F00
7F80
6180
E0C0
C0C0
00C0
01C0
0180
0380
0700
0600
0C00
0C00
0000
0000
0400
0E00
0C00
ENDCHAR
STARTCHAR 0040
ENCODING 64
SWIDTH 936 0
DWIDTH 26 0
BBX 22 24 2 -6
BITMAP
003F80
00FFE0
01C0F0
070038
0E0018
1C1C1C
187ECC
30E78C
31C38C
61818C
63018C
E3018C
C3030C
C3030C
C30718
C38F18
C3FF30
E1F770
6003E0
7003C0
380000
1E1800
0FF800
03F000
ENDCHAR
STARTCHAR 0041
ENCODING 65
SWIDTH 612 0
DWIDTH 17 0
BBX 14 18 2 0
BITMAP
0300
0780
0780
0780
0DC0
0CC0
0CC0
1860
1860
3FE0
3FF0
3030
7038
6018
6018
C01C
C00C
C00C
ENDCHAR
STARTCHAR 0042
ENCODING 66
SWIDTH 504 0
DWIDTH 14 0
BBX 12 18 1 0
BITMAP
FF00
FFC0
C0C0
C060
C060
C060
C0E0
FFC0
FFC0
C1E0
C060
C070
C030
C030
C060
C0E0
FFC0
FF80
ENDCHAR
STARTCHAR 0043
ENCODING 67
SWIDTH 576 0
DWIDTH 16 0
BBX 14 18 1 0
BITMAP
07E0
1FF0
1C38
301C
7008
6000
6000
E000
C000
C000
C000
6000
6000
7008
301C
3838
1FF0
07E0
ENDCHAR
STARTCHAR 0044
ENCODING 68
SWIDTH 612 0
DWIDTH 17 0
BBX 15 18 1 0
BITMAP
FFC0
FFF0
3078
301C
300C
300E
3006
3006
3006
3006
3006
3006
300E
300C
301C
3038
FFF0
FFC0
ENDCHAR
STARTCHAR 0045
ENCODING 69
SWIDTH 504 0
DWIDTH 14 0
BBX 12 18 1 0
BITMAP
FFF0
FFF0
C000
C000
C000
C000
C000
C000
FFC0
FFC0
C000
C000
C000
C000
C000
C000
FFF0
FFF0
ENDCHAR
STARTCHAR 0046
ENCODING 70
SWIDTH 504 0
DWIDTH 14 0
BBX 12 18 1 0
BITMAP
FFF0
FFF0
C000
C000
C000
C000
C000
C000
FFC0
FFC0
C000
C000
C000
C000
C000
C000
C000
C000
ENDCHAR
STARTCHAR 0047
ENCODING 71
SWIDTH 576 0
DWIDTH 16 0
BBX 14 18 1 0
BITMAP
07E0
1FF0
1C38
301C
7008
6000
6000
E000
C1FC
C1FC
C1FC
600C
600C
700C
301C
3838
1FF0
07E0
ENDCHAR
STARTCHAR 0048
ENCODING 72
SWIDTH 504 0
DWIDTH 14 0
BBX 12 18 1 0
BITMAP
C030
C030
C030
C030
C030
C030
C030
C030
FFF0
FFF0
C030
C030
C030
C030
C030
C030
C030
C030
ENDCHAR
STARTCHAR 0049
ENCODING 73
SWIDTH 288 0
DWIDTH 8 0
BBX 6 18 1 0
BITMAP
FC
FC
30
30
30
30
30
30
30
30
30
30
30
30
30
30
FC
FC
ENDCHAR
STARTCHAR 004A
ENCODING 74
SWIDTH 360 0
DWIDTH 10 0
BBX 8 18 1 0
BITMAP
03
03
03
03
03
03
03
03
03
03
03
03
03
03
C3
E3
7E
3C
ENDCHAR
STARTCHAR 004B
ENCODING 75
SWIDTH 540 0
DWIDTH 15 0
BBX 12 18 1 0
BITMAP
C060
C0C0
C1C0
C380
C300
C700
CE00
CC00
DC00
FE00
F600
E300
E380
C1C0
C0C0
C0E0
C070
C030
ENDCHAR
STARTCHAR 004C
ENCODING 76
SWIDTH 504 0
DWIDTH 14 0
BBX 12 18 1 0
BITMAP
C000
C000
C000
C000
C000
C000
C000
C000
C000
C000
C000
C000
C000
C000
C000
C000
FFF0
FFF0
ENDCHAR
STARTCHAR 004D
ENCODING 77
SWIDTH 612 0
DWIDTH 17 0
BBX 16 18 1 0
BITMAP
E007
E007
E007
F00F
F00F
F01F
D81B
D81B
DC3B
CC33
CC33
C663
C663
C663
C3C3
C3C3
C3C3
C183
ENDCHAR
STARTCHAR 004E
ENCODING 78
SWIDTH 576 0
DWIDTH 16 0
BBX 14 18 1 0
BITMAP
E00C
E00C
F00C
F80C
D80C
CC0C
CE0C
C70C
C30C
C18C
C1CC
C0CC
C06C
C07C
C03C
C01C
C01C
C00C
ENDCHAR
STARTCHAR 004F
ENCODING 79
SWIDTH 612 0
DWIDTH 17 0
BBX 15 18 1 0
BITMAP
07E0
1FF0
1C38
301C
700C
6006
6006
E006
C006
C006
C006
6006
6006
700C
301C
3838
1FF0
07E0
ENDCHAR
STARTCHAR 0050
ENCODING 80
SWIDTH 468 0
DWIDTH 13 0
BBX 11 18 1 0
BITMAP
FF00
FF80
C1C0
C0E0
C060
C060
C060
C0C0
FFC0
FF80
C000
C000
C000
C000
C000
C000
C000
C000
ENDCHAR
STARTCHAR 0051
ENCODING 81
SWIDTH 612 0
DWIDTH 17 0
BBX 17 20 1 -2
BITMAP
07E000
1FF000
1C3800
301C00
700C00
600600
600600
E00600
C00600
C00600
C00600
600600
63C600
77EC00
327C00
383800
1FF800
07F880
001F80
000700
ENDCHAR
STARTCHAR 0052
ENCODING 82
SWIDTH 504 0
DWIDTH 14 0
BBX 12 18 1 0
BITMAP
FF00
FF80
C1C0
C0E0
C060
C060
C060
C0C0
FFC0
FF80
C300
C380
C180
C0C0
C0E0
C060
C070
C030
ENDCHAR
STARTCHAR 0053
ENCODING 83
SWIDTH 468 0
DWIDTH 13 0
BBX 11 18 1 0
BITMAP
1F00
3F80
71C0
60C0
60E0
6000
7000
3C00
1F00
0780
01C0
00E0
0060
C060
6060
70E0
3FC0
1F80
ENDCHAR
STARTCHAR 0054
ENCODING 84
SWIDTH 504 0
DWIDTH 14 0
BBX 12 18 1 0
BITMAP
FFF0
FFF0
0600
0600
0600
0600
0600
0600
0600
0600
0600
0600
0600
0600
0600
0600
0600
0600
ENDCHAR
STARTCHAR 0055
ENCODING 85
SWIDTH 576 0
DWIDTH 16 0
BBX 14 18 1 0
BITMAP
C00C
C00C
C00C
C00C
C00C
C00C
C00C
C00C
C00C
C00C
C00C
C00C
C00C
601C
6018
3838
1FF0
0FC0
ENDCHAR
STARTCHAR 0056
ENCODING 86
SWIDTH 612 0
DWIDTH 17 0
BBX 14 18 2 0
BITMAP
C00C
C00C
C00C
6018
6018
6038
3030
3030
3870
1860
1860
0CC0
0CC0
0CC0
0780
0780
0780
0300
ENDCHAR
STARTCHAR 0057
ENCODING 87
SWIDTH 864 0
DWIDTH 24 0
BBX 22 18 1 0
BITMAP
E0301C
603018
607818
607818
307838
30FC30
30CC30
30CC30
18CC60
19CE60
198660
1D8660
0D86C0
0F03C0
0F03C0
0F03C0
070380
060180
ENDCHAR
STARTCHAR 0058
ENCODING 88
SWIDTH 612 0
DWIDTH 17 0
BBX 14 18 2 0
BITMAP
C00C
E018
7038
3070
3860
1CE0
0DC0
0780
0780
0700
0780
0DC0
1CE0
3860
3070
7038
E018
C00C
ENDCHAR
STARTCHAR 0059
ENCODING 89
SWIDTH 612 0
DWIDTH 17 0
BBX 14 18 2 0
BITMAP
C00C
E018
7038
3070
3860
1CE0
0DC0
0780
0780
0300
0300
0300
0300
0300
0300
0300
0300
0300
ENDCHAR
STARTCHAR 005A
ENCODING 90
SWIDTH 504 0
DWIDTH 14 0
BBX 13 18 1 0
BITMAP
FFF8
FFF8
0030
0070
00E0
00C0
01C0
0380
0300
0600
0E00
1C00
1800
3800
7000
6000
FFF8
FFF8
ENDCHAR
STARTCHAR 005B
ENCODING 91
SWIDTH 288 0
DWIDTH 8 0
BBX 6 23 1 -5
BITMAP
FC
FC
C0
C0
C0
C0
C0
C0
C0
C0
C0
C0
C0
C0
C0
C0
C0
C0
C0
C0
C0
FC
FC
ENDCHAR
STARTCHAR 005C
ENCODING 92
SWIDTH 396 0
DWIDTH 11 0
BBX 8 18 2 0
BITMAP
C0
C0
C0
60
60
60
30
30
38
18
18
0C
0C
0C
06
06
06
03
ENDCHAR
STARTCHAR 005D
ENCODING 93
SWIDTH 288 0
DWIDTH 8 0
BBX 6 23 1 -5
BITMAP
FC
FC
0C
0C
0C
0C
0C
0C
0C
0C
0C
0C
0C
0C
0C
0C
0C
0C
0C
0C
0C
FC
FC
ENDCHAR
STARTCHAR 005E
ENCODING 94
SWIDTH 288 0
DWIDTH 8 0
BBX 6 6 1 12
BITMAP
38
38
78
6C
6C
EC
ENDCHAR
STARTCHAR 005F
ENCODING 95
SWIDTH 504 0
DWIDTH 14 0
BBX 12 2 1 -2
BITMAP
FFF0
FFF0
ENDCHAR
STARTCHAR 0060
ENCODING 96
SWIDTH 252 0
DWIDTH 7 0
BBX 4 4 2 14
BITMAP
C0
60
20
10
ENDCHAR
STARTCHAR 0061
ENCODING 97
SWIDTH 396 0
DWIDTH 11 0
BBX 9 13 1 0
BITMAP
0C00
3F00
3F80
0180
0180
0980
3F80
7780
E180
C180
6380
7F80
3F80
ENDCHAR
STARTCHAR 0062
ENCODING 98
SWIDTH 468 0
DWIDTH 13 0
BBX 11 18 1 0
BITMAP
C000
C000
C000
C000
C000
CE00
DF80
F9C0
E0C0
E060
E060
C060
C060
E060
E0E0
F0C0
FF80
DF00
ENDCHAR
STARTCHAR 0063
ENCODING 99
SWIDTH 432 0
DWIDTH 12 0
BBX 10 13 1 0
BITMAP
0600
1F80
39C0
60C0
6000
E000
C000
C000
6000
60C0
70C0
3FC0
1F00
ENDCHAR
STARTCHAR 0064
ENCODING 100
SWIDTH 468 0
DWIDTH 13 0
BBX 11 18 1 0
BITMAP
0060
0060
0060
0060
0060
0660
1FE0
39E0
60E0
6060
E060
C060
C060
6060
60E0
70E0
3FE0
1F60
ENDCHAR
STARTCHAR 0065
ENCODING 101
SWIDTH 468 0
DWIDTH 13 0
BBX 11 13 1 0
BITMAP
0600
1F80
39C0
60C0
6060
FFE0
FFE0
C000
6000
60C0
70C0
3FC0
1F00
ENDCHAR
STARTCHAR 0066
ENCODING 102
SWIDTH 288 0
DWIDTH 8 0
BBX 9 18 1 0
BITMAP
0F80
1F00
1800
1800
1800
1800
1800
FE00
FE00
1800
1800
1800
1800
1800
1800
1800
1800
1800
ENDCHAR
STARTCHAR 0067
ENCODING 103
SWIDTH 504 0
DWIDTH 14 0
BBX 13 19 1 -6
BITMAP
0F10
3FF8
79F0
6060
C060
C060
6060
79C0
7FC0
6E00
6000
7F00
1FC0
00E0
0060
E060
71E0
3FC0
0E00
ENDCHAR
STARTCHAR 0068
ENCODING 104
SWIDTH 468 0
DWIDTH 13 0
BBX 11 18 1 0
BITMAP
C000
C000
C000
C000
C000
C600
DF80
F9C0
F0E0
E060
E060
C060
C060
C060
C060
C060
C060
C060
ENDCHAR
STARTCHAR 0069
ENCODING 105
SWIDTH 144 0
DWIDTH 4 0
BBX 3 17 1 0
BITMAP
E0
E0
40
00
00
C0
C0
C0
C0
C0
C0
C0
C0
C0
C0
C0
C0
ENDCHAR
STARTCHAR 006A
ENCODING 106
SWIDTH 144 0
DWIDTH 4 0
BBX 7 23 -3 -6
BITMAP
0E
0E
04
00
00
0C
0C
0C
0C
0C
0C
0C
0C
0C
0C
0C
0C
0C
0C
0C
5C
F8
70
ENDCHAR
STARTCHAR 006B
ENCODING 107
SWIDTH 432 0
DWIDTH 12 0
BBX 10 18 1 0
BITMAP
C000
C000
C000
C000
C000
C000
C700
C600
CC00
DC00
D800
F800
FC00
EE00
C600
C300
C380
C1C0
ENDCHAR
STARTCHAR 006C
ENCODING 108
SWIDTH 216 0
DWIDTH 6 0
BBX 4 18 1 0
BITMAP
C0
C0
C0
C0
C0
C0
C0
C0
C0
C0
C0
C0
C0
C0
C0
C0
F0
70
ENDCHAR
STARTCHAR 006D
ENCODING 109
SWIDTH 576 0
DWIDTH 16 0
BBX 15 13 1 0
BITMAP
0C30
FEF8
F7CC
E38C
E38C
C386
C386
C386
C386
C386
C386
C386
C386
ENDCHAR
STARTCHAR 006E
ENCODING 110
SWIDTH 468 0
DWIDTH 13 0
BBX 11 13 1 0
BITMAP
0600
DF80
F9C0
F0E0
E060
E060
C060
C060
C060
C060
C060
C060
C060
ENDCHAR
STARTCHAR 006F
ENCODING 111
SWIDTH 468 0
DWIDTH 13 0
BBX 11 13 1 0
BITMAP
0600
1F80
39C0
60C0
6060
E060
C060
C060
6060
60E0
70C0
3F80
1F00
ENDCHAR
STARTCHAR 0070
ENCODING 112
SWIDTH 468 0
DWIDTH 13 0
BBX 11 19 1 -6
BITMAP
0E00
DF80
F9C0
E0C0
E060
E060
C060
C060
E060
E0E0
F0C0
FF80
DF00
C000
C000
C000
C000
C000
4000
ENDCHAR
STARTCHAR 0071
ENCODING 113
SWIDTH 468 0
DWIDTH 13 0
BBX 11 19 1 -6
BITMAP
0600
1FE0
39E0
60E0
6060
E060
C060
C060
6060
60E0
70E0
3FE0
1F60
0060
0060
0060
0060
0060
0020
ENDCHAR
STARTCHAR 0072
ENCODING 114
SWIDTH 324 0
DWIDTH 9 0
BBX 7 13 1 0
BITMAP
0E
DE
F8
F0
E0
E0
C0
C0
C0
C0
C0
C0
C0
ENDCHAR
STARTCHAR 0073
ENCODING 115
SWIDTH 360 0
DWIDTH 10 0
BBX 8 13 1 0
BITMAP
1C
3E
77
63
60
78
1E
07
03
C3
63
7F
3E
ENDCHAR
STARTCHAR 0074
ENCODING 116
SWIDTH 324 0
DWIDTH 9 0
BBX 7 16 1 0
BITMAP
08
18
18
18
FE
FE
18
18
18
18
18
18
18
18
1E
1E
ENDCHAR
STARTCHAR 0075
ENCODING 117
SWIDTH 468 0
DWIDTH 13 0
BBX 11 12 1 0
BITMAP
C060
C060
C060
C060
C060
C060
C060
E060
60E0
61E0
3FE0
1F60
ENDCHAR
STARTCHAR 0076
ENCODING 118
SWIDTH 468 0
DWIDTH 13 0
BBX 10 12 2 0
BITMAP
C0C0
C0C0
E1C0
6180
6180
3300
3300
3300
1E00
1E00
1E00
0C00
ENDCHAR
STARTCHAR 0077
ENCODING 119
SWIDTH 648 0
DWIDTH 18 0
BBX 15 12 2 0
BITMAP
C30E
C38C
C78C
E78C
67DC
6ED8
6CD8
7CD8
3CF0
3C70
3870
1870
ENDCHAR
STARTCHAR 0078
ENCODING 120
SWIDTH 468 0
DWIDTH 13 0
BBX 10 12 2 0
BITMAP
E1C0
6180
7380
3F00
1E00
0C00
1E00
3E00
3300
7380
E1C0
C0C0
ENDCHAR
STARTCHAR 0079
ENCODING 121
SWIDTH 468 0
DWIDTH 13 0
BBX 10 18 2 -6
BITMAP
C0C0
C0C0
E1C0
6180
6180
3300
3300
3300
1E00
1E00
1E00
0C00
0C00
1C00
1800
3800
F000
C000
ENDCHAR
STARTCHAR 007A
ENCODING 122
SWIDTH 396 0
DWIDTH 11 0
BBX 9 12 1 0
BITMAP
FF80
FF80
0300
0600
0E00
1C00
1800
3800
7000
6000
FF80
FF80
ENDCHAR
STARTCHAR 007B
ENCODING 123
SWIDTH 288 0
DWIDTH 8 0
BBX 6 24 1 -6
BITMAP
0C
1C
38
30
30
30
30
30
30
30
70
E0
F0
30
30
30
30
30
30
30
30
38
1C
04
ENDCHAR
STARTCHAR 007C
ENCODING 124
SWIDTH 144 0
DWIDTH 4 0
BBX 2 23 1 -5
BITMAP
C0
C0
C0
C0
C0
C0
C0
C0
C0
C0
C0
C0
C0
C0
C0
C0
C0
C0
C0
C0
C0
C0
C0
ENDCHAR
STARTCHAR 007D
ENCODING 125
SWIDTH 288 0
DWIDTH 8 0
BBX 6 24 1 -6
BITMAP
E0
F0
30
30
30
30
30
30
30
30
38
1C
1C
38
30
30
30
30
30
30
30
70
E0
80
ENDCHAR
STARTCHAR 007E
ENCODING 126
SWIDTH 576 0
DWIDTH 16 0
BBX 14 4 1 7
BITMAP
3E00
7F0C
E3F8
01F8
ENDCHAR
STARTCHAR 00A0
ENCODING 160
SWIDTH 216 0
DWIDTH 6 0
BBX 0 0 0 0
BITMAP
ENDCHAR
STARTCHAR 00A1
ENCODING 161
SWIDTH 144 0
DWIDTH 4 0
BBX 3 18 1 -5
BITMAP
40
E0
E0
00
00
00
C0
C0
C0
C0
C0
C0
C0
C0
C0
C0
C0
C0
ENDCHAR
STARTCHAR 00A2
ENCODING 162
SWIDTH 432 0
DWIDTH 12 0
BBX 10 18 1 -3
BITMAP
01C0
0180
0780
1F80
3BC0
63C0
6600
E600
CE00
CC00
6C00
7CC0
78C0
3FC0
3F00
3000
3000
6000
ENDCHAR
STARTCHAR 00A3
ENCODING 163
SWIDTH 504 0
DWIDTH 14 0
BBX 12 18 1 0
BITMAP
07C0
1FE0
1870
3820
3000
3000
3000
3000
FF80
FF80
1800
1800
1800
1800
1800
3000
FFF0
FFF0
ENDCHAR
STARTCHAR 00A4
ENCODING 164
SWIDTH 504 0
DWIDTH 14 0
BBX 12 12 1 3
BITMAP
4010
E730
7FE0
3DC0
3060
3060
3060
3060
38E0
3FE0
6770
4030
ENDCHAR
STARTCHAR 00A5
ENCODING 165
SWIDTH 612 0
DWIDTH 17 0
BBX 14 18 2 0
BITMAP
C00C
E018
7038
3070
3860
1CE0
0DC0
0780
7FF8
7FF8
0300
0300
7FF8
7FF8
0300
0300
0300
0300
ENDCHAR
STARTCHAR 00A6
ENCODING 166
SWIDTH 144 0
DWIDTH 4 0
BBX 2 23 1 -5
BITMAP
C0
C0
C0
C0
C0
C0
C0
C0
C0
00
00
00
00
00
C0
C0
C0
C0
C0
C0
C0
C0
C0
ENDCHAR
STARTCHAR 00A7
ENCODING 167
SWIDTH 468 0
DWIDTH 13 0
BBX 11 24 1 -6
BITMAP
1F00
3F80
71C0
60C0
60E0
6000
7000
7C00
7F00
E780
C1C0
E0E0
7060
3860
1E60
07E0
01C0
00C0
00E0
60C0
70C0
39C0
1F80
0600
ENDCHAR
STARTCHAR 00A8
ENCODING 168
SWIDTH 360 0
DWIDTH 10 0
BBX 8 3 1 14
BITMAP
E7
E7
02
ENDCHAR
STARTCHAR 00A9
ENCODING 169
SWIDTH 756 0
DWIDTH 21 0
BBX 19 18 1 0
BITMAP
03F800
0FFE00
1E0700
380380
3001C0
61F0C0
61F8C0
E31060
C30060
C30060
E31060
61F8C0
61F0C0
7001C0
380380
1C0700
0FFE00
03F800
ENDCHAR
STARTCHAR 00AA
ENCODING 170
SWIDTH 288 0
DWIDTH 8 0
BBX 6 10 1 9
BITMAP
38
38
08
78
48
78
38
00
FC
FC
ENDCHAR
STARTCHAR 00AB
ENCODING 171
SWIDTH 396 0
DWIDTH 11 0
BBX 8 10 2 1
BITMAP
01
12
24
4C
D8
C8
64
22
12
09
ENDCHAR
STARTCHAR 00AC
ENCODING 172
SWIDTH 504 0
DWIDTH 14 0
BBX 13 6 1 4
BITMAP
FFF8
FFF8
0018
0018
0018
0018
ENDCHAR
STARTCHAR 00AD
ENCODING 173
SWIDTH 324 0
DWIDTH 9 0
BBX 7 2 1 5
BITMAP
FE
FE
ENDCHAR
STARTCHAR 00AE
ENCODING 174
SWIDTH 756 0
DWIDTH 21 0
BBX 19 18 1 0
BITMAP
03F800
0FFE00
1E0700
380380
3001C0
61F0C0
61F8C0
E19860
C1B860
C1F060
E1F060
61B8C0
6198C0
7001C0
380380
1C0700
0FFE00
03F800
ENDCHAR
STARTCHAR 00AF
ENCODING 175
SWIDTH 324 0
DWIDTH 9 0
BBX 7 2 1 15
BITMAP
FE
FE
ENDCHAR
STARTCHAR 00B0
ENCODING 176
SWIDTH 360 0
DWIDTH 10 0
BBX 8 7 1 11
BITMAP
3C
7E
E3
C3
E3
7E
3E
ENDCHAR
STARTCHAR 00B1
ENCODING 177
SWIDTH 504 0
DWIDTH 14 0
BBX 13 15 1 1
BITMAP
0600
0600
0600
0600
0600
FFF8
FFF8
0600
0600
0600
0600
0600
0000
FFF8
FFF8
ENDCHAR
STARTCHAR 00B2
ENCODING 178
SWIDTH 252 0
DWIDTH 7 0
BBX 6 10 1 12
BITMAP
30
78
C8
08
18
30
60
40
FC
FC
ENDCHAR
STARTCHAR 00B3
ENCODING 179
SWIDTH 288 0
DWIDTH 8 0
BBX 6 10 1 12
BITMAP
30
78
CC
08
18
1C
0C
4C
78
30
ENDCHAR
STARTCHAR 00B4
ENCODING 180
SWIDTH 252 0
DWIDTH 7 0
BBX 4 4 2 14
BITMAP
70
60
C0
80
ENDCHAR
STARTCHAR 00B5
ENCODING 181
SWIDTH 468 0
DWIDTH 13 0
BBX 11 18 1 -6
BITMAP
C060
C060
C060
C060
C060
C060
C060
E060
E0E0
F0E0
FFE0
DF60
C000
C000
C000
C000
C000
4000
ENDCHAR
STARTCHAR 00B6
ENCODING 182
SWIDTH 504 0
DWIDTH 14 0
BBX 11 23 1 -5
BITMAP
1FE0
3FE0
7F60
7F60
FF60
FF60
7F60
7F60
3F60
0360
0360
0360
0360
0360
0360
0360
0360
0360
0360
0360
0360
0360
0360
ENDCHAR
STARTCHAR 00B7
ENCODING 183
SWIDTH 180 0
DWIDTH 5 0
BBX 3 2 1 7
BITMAP
E0
E0
ENDCHAR
STARTCHAR 00B8
ENCODING 184
SWIDTH 288 0
DWIDTH 8 0
BBX 5 6 2 -6
BITMAP
40
70
18
18
F0
E0
ENDCHAR
STARTCHAR 00B9
ENCODING 185
SWIDTH 252 0
DWIDTH 7 0
BBX 5 10 1 12
BITMAP
20
60
E0
20
20
20
20
20
F8
F8
ENDCHAR
STARTCHAR 00BA
ENCODING 186
SWIDTH 324 0
DWIDTH 9 0
BBX 7 10 1 9
BITMAP
38
6C
44
46
44
7C
38
00
FE
FE
ENDCHAR
STARTCHAR 00BB
ENCODING 187
SWIDTH 396 0
DWIDTH 11 0
BBX 9 10 1 1
BITMAP
4800
6400
3200
1B00
0D80
1900
1200
2400
4800
8000
ENDCHAR
STARTCHAR 00BC
ENCODING 188
SWIDTH 468 0
DWIDTH 13 0
BBX 11 22 1 -2
BITMAP
0600
1E00
0600
0600
0600
0600
0600
0600
1F00
0000
FFE0
FFE0
0000
0300
0700
0F00
0B00
1B00
3F80
3F80
0300
0300
ENDCHAR
STARTCHAR 00BD
ENCODING 189
SWIDTH 468 0
DWIDTH 13 0
BBX 11 23 1 -3
BITMAP
0400
1C00
0400
0400
0400
0400
0400
0400
1F00
0000
FFE0
FFE0
0000
0E00
0F00
1900
0100
0300
0600
0C00
1800
1F00
1F00
ENDCHAR
STARTCHAR 00BE
ENCODING 190
SWIDTH 468 0
DWIDTH 13 0
BBX 11 22 1 -2
BITMAP
0F00
1900
0100
0700
0700
0100
0180
1B00
0E00
0000
FFE0
FFE0
0000
0300
0700
0F00
0B00
1B00
3F80
3F80
0300
0300
ENDCHAR
STARTCHAR 00BF
ENCODING 191
SWIDTH 432 0
DWIDTH 12 0
BBX 10 19 1 -6
BITMAP
0C00
0E00
0C00
0000
0000
0C00
0C00
1C00
1800
3800
7000
6000
E000
C000
C0C0
61C0
7380
3F00
0C00
ENDCHAR
STARTCHAR 00C0
ENCODING 192
SWIDTH 612 0
DWIDTH 17 0
BBX 14 23 2 0
BITMAP
0E00
0200
0100
0000
0000
0300
0780
0780
0780
0DC0
0CC0
0CC0
1860
1860
3FE0
3FF0
3030
7038
6018
6018
C01C
C00C
C00C
ENDCHAR
STARTCHAR 00C1
ENCODING 193
SWIDTH 612 0
DWIDTH 17 0
BBX 14 23 2 0
BITMAP
01C0
0100
0200
0400
0000
0300
0780
0780
0780
0DC0
0CC0
0CC0
1860
1860
3FE0
3FF0
3030
7038
6018
6018
C01C
C00C
C00C
ENDCHAR
STARTCHAR 00C2
ENCODING 194
SWIDTH 612 0
DWIDTH 17 0
BBX 14 23 2 0
BITMAP
0780
0480
0840
0000
0000
0300
0780
0780
0780
0DC0
0CC0
0CC0
1860
1860
3FE0
3FF0
3030
7038
6018
6018
C01C
C00C
C00C
ENDCHAR
STARTCHAR 00C3
ENCODING 195
SWIDTH 612 0
DWIDTH 17 0
BBX 14 23 2 0
BITMAP
1C30
1F30
31E0
0000
0000
0300
0780
0780
0780
0DC0
0CC0
0CC0
1860
1860
3FE0
3FF0
3030
7038
6018
6018
C01C
C00C
C00C
ENDCHAR
STARTCHAR 00C4
ENCODING 196
SWIDTH 612 0
DWIDTH 17 0
BBX 14 23 2 0
BITMAP
0C40
1CE0
1CE0
0000
0000
0300
0780
0780
0780
0DC0
0CC0
0CC0
1860
1860
3FE0
3FF0
3030
7038
6018
6018
C01C
C00C
C00C
ENDCHAR
STARTCHAR 00C5
ENCODING 197
SWIDTH 612 0
DWIDTH 17 0
BBX 14 24 2 0
BITMAP
0300
0780
0480
0580
0780
0000
0300
0780
0780
0780
0DC0
0CC0
0CC0
1860
1860
3FE0
3FF0
3030
7038
6018
6018
C01C
C00C
C00C
ENDCHAR
STARTCHAR 00C6
ENCODING 198
SWIDTH 720 0
DWIDTH 20 0
BBX 17 18 2 0
BITMAP
03FF80
07FF80
06C000
06C000
0CC000
0CC000
0CC000
18C000
1FFE00
3FFE00
30C000
30C000
70C000
60C000
60C000
C0C000
C0FF80
C0FF80
ENDCHAR
STARTCHAR 00C7
ENCODING 199
SWIDTH 576 0
DWIDTH 16 0
BBX 14 24 1 -6
BITMAP
07E0
1FF0
1C38
301C
7008
6000
6000
E000
C000
C000
C000
6000
6000
7008
301C
3838
1FF0
07E0
0100
03C0
0040
0060
07C0
0380
ENDCHAR
STARTCHAR 00C8
ENCODING 200
SWIDTH 504 0
DWIDTH 14 0
BBX 12 23 1 0
BITMAP
1C00
0400
0200
0100
0000
FFF0
FFF0
C000
C000
C000
C000
C000
C000
FFC0
FFC0
C000
C000
C000
C000
C000
C000
FFF0
FFF0
ENDCHAR
STARTCHAR 00C9
ENCODING 201
SWIDTH 504 0
DWIDTH 14 0
BBX 12 23 1 0
BITMAP
0380
0200
0400
0000
0000
FFF0
FFF0
C000
C000
C000
C000
C000
C000
FFC0
FFC0
C000
C000
C000
C000
C000
C000
FFF0
FFF0
ENDCHAR
STARTCHAR 00CA
ENCODING 202
SWIDTH 504 0
DWIDTH 14 0
BBX 12 23 1 0
BITMAP
0F00
0900
1080
0000
0000
FFF0
FFF0
C000
C000
C000
C000
C000
C000
FFC0
FFC0
C000
C000
C000
C000
C000
C000
FFF0
FFF0
ENDCHAR
STARTCHAR 00CB
ENCODING 203
SWIDTH 504 0
DWIDTH 14 0
BBX 12 23 1 0
BITMAP
1080
39C0
19C0
0000
0000
FFF0
FFF0
C000
C000
C000
C000
C000
C000
FFC0
FFC0
C000
C000
C000
C000
C000
C000
FFF0
FFF0
ENDCHAR
STARTCHAR 00CC
ENCODING 204
SWIDTH 288 0
DWIDTH 8 0
BBX 6 23 1 0
BITMAP
60
30
10
08
00
FC
FC
30
30
30
30
30
30
30
30
30
30
30
30
30
30
FC
FC
ENDCHAR
STARTCHAR 00CD
ENCODING 205
SWIDTH 288 0
DWIDTH 8 0
BBX 6 23 1 0
BITMAP
1C
18
30
00
00
FC
FC
30
30
30
30
30
30
30
30
30
30
30
30
30
30
FC
FC
ENDCHAR
STARTCHAR 00CE
ENCODING 206
SWIDTH 288 0
DWIDTH 8 0
BBX 7 23 1 0
BITMAP
78
68
C4
82
00
FC
FC
30
30
30
30
30
30
30
30
30
30
30
30
30
30
FC
FC
ENDCHAR
STARTCHAR 00CF
ENCODING 207
SWIDTH 288 0
DWIDTH 8 0
BBX 8 23 0 0
BITMAP
62
E7
67
00
00
7E
7E
18
18
18
18
18
18
18
18
18
18
18
18
18
18
7E
7E
ENDCHAR
STARTCHAR 00D0
ENCODING 208
SWIDTH 612 0
DWIDTH 17 0
BBX 15 18 1 0
BITMAP
FFC0
FFF0
3038
301C
300C
3006
3006
3006
FF82
FF82
3002
3006
3006
300C
301C
3038
FFF0
FFC0
ENDCHAR
STARTCHAR 00D1
ENCODING 209
SWIDTH 576 0
DWIDTH 16 0
BBX 14 23 1 0
BITMAP
0E10
1F10
11E0
0000
0000
E00C
E00C
F00C
F80C
D80C
CC0C
CE0C
C70C
C30C
C18C
C1CC
C0CC
C06C
C07C
C03C
C01C
C01C
C00C
ENDCHAR
STARTCHAR 00D2
ENCODING 210
SWIDTH 612 0
DWIDTH 17 0
BBX 15 23 1 0
BITMAP
0700
0100
0080
0000
0000
07E0
1FF0
1C38
301C
700C
6006
6006
E006
C006
C006
C006
6006
6006
700C
301C
3838
1FF0
07E0
ENDCHAR
STARTCHAR 00D3
ENCODING 211
SWIDTH 612 0
DWIDTH 17 0
BBX 15 23 1 0
BITMAP
00C0
0180
0100
0200
0000
07E0
1FF0
1C38
301C
700C
6006
6006
E006
C006
C006
C006
6006
6006
700C
301C
3838
1FF0
07E0
ENDCHAR
STARTCHAR 00D4
ENCODING 212
SWIDTH 612 0
DWIDTH 17 0
BBX 15 23 1 0
BITMAP
03C0
02C0
0460
0020
0000
07E0
1FF0
1C38
301C
700C
6006
6006
E006
C006
C006
C006
6006
6006
700C
301C
3838
1FF0
07E0
ENDCHAR
STARTCHAR 00D5
ENCODING 213
SWIDTH 612 0
DWIDTH 17 0
BBX 15 23 1 0
BITMAP
0E18
1F90
10F0
0000
0000
07E0
1FF0
1C38
301C
700C
6006
6006
E006
C006
C006
C006
6006
6006
700C
301C
3838
1FF0
07E0
ENDCHAR
STARTCHAR 00D6
ENCODING 214
SWIDTH 612 0
DWIDTH 17 0
BBX 15 23 1 0
BITMAP
0460
0E70
0E60
0000
0000
07E0
1FF0
1C38
301C
700C
6006
6006
E006
C006
C006
C006
6006
6006
700C
301C
3838
1FF0
07E0
ENDCHAR
STARTCHAR 00D7
ENCODING 215
SWIDTH 504 0
DWIDTH 14 0
BBX 10 10 2 4
BITMAP
4040
E0C0
7180
3B00
1E00
0E00
1F00
3380
61C0
40C0
ENDCHAR
STARTCHAR 00D8
ENCODING 216
SWIDTH 612 0
DWIDTH 17 0
BBX 15 20 1 -1
BITMAP
0006
07E6
1FFC
1C3C
303C
703C
6076
60E6
E0C6
C186
C386
C306
6606
6E06
7C0C
381C
3838
7FF0
67E0
4000
ENDCHAR
STARTCHAR 00D9
ENCODING 217
SWIDTH 576 0
DWIDTH 16 0
BBX 14 23 1 0
BITMAP
0E00
0300
0100
0080
0000
C00C
C00C
C00C
C00C
C00C
C00C
C00C
C00C
C00C
C00C
C00C
C00C
C00C
601C
6018
3838
1FF0
0FC0
ENDCHAR
STARTCHAR 00DA
ENCODING 218
SWIDTH 576 0
DWIDTH 16 0
BBX 14 23 1 0
BITMAP
01C0
0100
0200
0000
0000
C00C
C00C
C00C
C00C
C00C
C00C
C00C
C00C
C00C
C00C
C00C
C00C
C00C
601C
6018
3838
1FF0
0FC0
ENDCHAR
STARTCHAR 00DB
ENCODING 219
SWIDTH 576 0
DWIDTH 16 0
BBX 14 23 1 0
BITMAP
0780
0680
0C40
0800
0000
C00C
C00C
C00C
C00C
C00C
C00C
C00C
C00C
C00C
C00C
C00C
C00C
C00C
601C
6018
3838
1FF0
0FC0
ENDCHAR
STARTCHAR 00DC
ENCODING 220
SWIDTH 576 0
DWIDTH 16 0
BBX 14 23 1 0
BITMAP
0C40
1CE0
0CE0
0000
0000
C00C
C00C
C00C
C00C
C00C
C00C
C00C
C00C
C00C
C00C
C00C
C00C
C00C
601C
6018
3838
1FF0
0FC0
ENDCHAR
STARTCHAR 00DD
ENCODING 221
SWIDTH 612 0
DWIDTH 17 0
BBX 14 23 2 0
BITMAP
01C0
0300
0200
0400
0000
C00C
E018
7038
3070
3860
1CE0
0DC0
0780
0780
0300
0300
0300
0300
0300
0300
0300
0300
0300
ENDCHAR
STARTCHAR 00DE
ENCODING 222
SWIDTH 468 0
DWIDTH 13 0
BBX 11 18 1 0
BITMAP
C000
C000
C000
C000
FF00
FF80
C1C0
C0E0
C060
C060
C060
C1C0
FFC0
FF00
C000
C000
C000
C000
ENDCHAR
STARTCHAR 00DF
ENCODING 223
SWIDTH 468 0
DWIDTH 13 0
BBX 11 24 1 -6
BITMAP
1F00
7F80
61C0
E0C0
C0C0
C0C0
C1C0
C380
C380
C3C0
C0E0
C060
C060
C060
C060
C0E0
CFC0
DF80
C000
C000
C000
C000
C000
4000
ENDCHAR
STARTCHAR 00E0
ENCODING 224
SWIDTH 396 0
DWIDTH 11 0
BBX 9 18 1 0
BITMAP
3000
1800
0800
0400
0000
0C00
3F00
3F80
0180
0180
0980
3F80
7780
E180
C180
6380
7F80
3F80
ENDCHAR
STARTCHAR 00E1
ENCODING 225
SWIDTH 396 0
DWIDTH 11 0
BBX 9 18 1 0
BITMAP
0600
0C00
0800
1000
0000
0C00
3F00
3F80
0180
0180
0980
3F80
7780
E180
C180
6380
7F80
3F80
ENDCHAR
STARTCHAR 00E2
ENCODING 226
SWIDTH 396 0
DWIDTH 11 0
BBX 9 18 1 0
BITMAP
1C00
1E00
2200
4100
0000
0C00
3F00
3F80
0180
0180
0980
3F80
7780
E180
C180
6380
7F80
3F80
ENDCHAR
STARTCHAR 00E3
ENCODING 227
SWIDTH 396 0
DWIDTH 11 0
BBX 10 18 1 0
BITMAP
2000
78C0
CF80
8300
0000
0C00
3F00
3F80
0180
0180
0980
3F80
7780
E180
C180
6380
7F80
3F80
ENDCHAR
STARTCHAR 00E4
ENCODING 228
SWIDTH 396 0
DWIDTH 11 0
BBX 9 17 1 0
BITMAP
7300
7700
2000
0000
0C00
3F00
3F80
0180
0180
0980
3F80
7780
E180
C180
6380
7F80
3F80
ENDCHAR
STARTCHAR 00E5
ENCODING 229
SWIDTH 396 0
DWIDTH 11 0
BBX 9 18 1 0
BITMAP
1E00
1200
1200
1E00
0000
0C00
3F00
3F80
0180
0180
0980
3F80
7780
E180
C180
6380
7F80
3F80
ENDCHAR
STARTCHAR 00E6
ENCODING 230
SWIDTH 720 0
DWIDTH 20 0
BBX 18 13 1 0
BITMAP
0C1800
3F7E00
3FE700
01C180
018180
09FFC0
3FFFC0
778000
E18000
C1C100
63C380
7F7F00
3E3E00
ENDCHAR
STARTCHAR 00E7
ENCODING 231
SWIDTH 432 0
DWIDTH 12 0
BBX 10 19 1 -6
BITMAP
0600
1F80
39C0
60C0
6000
E000
C000
C000
6000
60C0
70C0
3FC0
1F00
0400
0700
0180
0180
1F00
0E00
ENDCHAR
STARTCHAR 00E8
ENCODING 232
SWIDTH 468 0
DWIDTH 13 0
BBX 11 18 1 0
BITMAP
1800
0C00
0600
0200
0000
0600
1F80
39C0
60C0
6060
FFE0
FFE0
C000
6000
60C0
70C0
3FC0
1F00
ENDCHAR
STARTCHAR 00E9
ENCODING 233
SWIDTH 468 0
DWIDTH 13 0
BBX 11 18 1 0
BITMAP
0380
0300
0600
0800
0000
0600
1F80
39C0
60C0
6060
FFE0
FFE0
C000
6000
60C0
70C0
3FC0
1F00
ENDCHAR
STARTCHAR 00EA
ENCODING 234
SWIDTH 468 0
DWIDTH 13 0
BBX 11 18 1 0
BITMAP
0E00
0F00
1900
1080
0000
0600
1F80
39C0
60C0
6060
FFE0
FFE0
C000
6000
60C0
70C0
3FC0
1F00
ENDCHAR
STARTCHAR 00EB
ENCODING 235
SWIDTH 468 0
DWIDTH 13 0
BBX 11 17 1 0
BITMAP
3980
39C0
1000
0000
0600
1F80
39C0
60C0
6060
FFE0
FFE0
C000
6000
60C0
70C0
3FC0
1F00
ENDCHAR
STARTCHAR 00EC
ENCODING 236
SWIDTH 144 0
DWIDTH 4 0
BBX 4 18 0 0
BITMAP
C0
60
20
10
00
00
60
60
60
60
60
60
60
60
60
60
60
60
ENDCHAR
STARTCHAR 00ED
ENCODING 237
SWIDTH 144 0
DWIDTH 4 0
BBX 4 18 1 0
BITMAP
30
60
40
80
00
00
C0
C0
C0
C0
C0
C0
C0
C0
C0
C0
C0
C0
ENDCHAR
STARTCHAR 00EE
ENCODING 238
SWIDTH 144 0
DWIDTH 4 0
BBX 6 18 -1 0
BITMAP
38
78
4C
84
00
00
30
30
30
30
30
30
30
30
30
30
30
30
ENDCHAR
STARTCHAR 00EF
ENCODING 239
SWIDTH 144 0
DWIDTH 4 0
BBX 7 17 -1 0
BITMAP
CE
EE
04
00
00
30
30
30
30
30
30
30
30
30
30
30
30
ENDCHAR
STARTCHAR 00F0
ENCODING 240
SWIDTH 504 0
DWIDTH 14 0
BBX 12 18 1 0
BITMAP
1F30
0FF0
01E0
03E0
0260
0660
1FB0
39F0
60F0
6070
E070
C070
C060
6060
60E0
70C0
3FC0
1F80
ENDCHAR
STARTCHAR 00F1
ENCODING 241
SWIDTH 468 0
DWIDTH 13 0
BBX 11 18 1 0
BITMAP
1000
3C40
67C0
4180
0000
0600
DF80
F9C0
F0E0
E060
E060
C060
C060
C060
C060
C060
C060
C060
ENDCHAR
STARTCHAR 00F2
ENCODING 242
SWIDTH 468 0
DWIDTH 13 0
BBX 11 18 1 0
BITMAP
1800
0C00
0600
0200
0000
0600
1F80
39C0
60C0
6060
E060
C060
C060
6060
60E0
70C0
3F80
1F00
ENDCHAR
STARTCHAR 00F3
ENCODING 243
SWIDTH 468 0
DWIDTH 13 0
BBX 11 18 1 0
BITMAP
0380
0300
0600
0800
0000
0600
1F80
39C0
60C0
6060
E060
C060
C060
6060
60E0
70C0
3F80
1F00
ENDCHAR
STARTCHAR 00F4
ENCODING 244
SWIDTH 468 0
DWIDTH 13 0
BBX 11 18 1 0
BITMAP
0E00
0F00
1900
1080
0000
0600
1F80
39C0
60C0
6060
E060
C060
C060
6060
60E0
70C0
3F80
1F00
ENDCHAR
STARTCHAR 00F5
ENCODING 245
SWIDTH 468 0
DWIDTH 13 0
BBX 11 18 1 0
BITMAP
1000
3C40
67C0
4180
0000
0600
1F80
39C0
60C0
6060
E060
C060
C060
6060
60E0
70C0
3F80
1F00
ENDCHAR
STARTCHAR 00F6
ENCODING 246
SWIDTH 468 0
DWIDTH 13 0
BBX 11 17 1 0
BITMAP
3980
39C0
1000
0000
0600
1F80
39C0
60C0
6060
E060
C060
C060
6060
60E0
70C0
3F80
1F00
ENDCHAR
STARTCHAR 00F7
ENCODING 247
SWIDTH 504 0
DWIDTH 14 0
BBX 13 12 1 3
BITMAP
0200
0700
0700
0000
0000
FFF8
FFF8
0000
0000
0700
0700
0200
ENDCHAR
STARTCHAR 00F8
ENCODING 248
SWIDTH 468 0
DWIDTH 13 0
BBX 11 16 1 -2
BITMAP
0020
0660
1FE0
3BC0
61E0
63E0
E760
C660
CE60
7C60
78E0
70C0
7F80
7F00
C000
4000
ENDCHAR
STARTCHAR 00F9
ENCODING 249
SWIDTH 468 0
DWIDTH 13 0
BBX 11 18 1 0
BITMAP
1800
0C00
0600
0200
0000
0000
C060
C060
C060
C060
C060
C060
C060
E060
60E0
61E0
3FE0
1F60
ENDCHAR
STARTCHAR 00FA
ENCODING 250
SWIDTH 468 0
DWIDTH 13 0
BBX 11 18 1 0
BITMAP
0380
0300
0600
0800
0000
0000
C060
C060
C060
C060
C060
C060
C060
E060
60E0
61E0
3FE0
1F60
ENDCHAR
STARTCHAR 00FB
ENCODING 251
SWIDTH 468 0
DWIDTH 13 0
BBX 11 18 1 0
BITMAP
0E00
0F00
1900
1080
0000
0000
C060
C060
C060
C060
C060
C060
C060
E060
60E0
61E0
3FE0
1F60
ENDCHAR
STARTCHAR 00FC
ENCODING 252
SWIDTH 468 0
DWIDTH 13 0
BBX 11 17 1 0
BITMAP
3980
39C0
1000
0000
0000
C060
C060
C060
C060
C060
C060
C060
E060
60E0
61E0
3FE0
1F60
ENDCHAR
STARTCHAR 00FD
ENCODING 253
SWIDTH 468 0
DWIDTH 13 0
BBX 10 24 2 -6
BITMAP
0700
0600
0C00
0800
0000
0000
C0C0
C0C0
E1C0
6180
6180
3300
3300
3300
1E00
1E00
1E00
0C00
0C00
1C00
1800
3800
F000
C000
ENDCHAR
STARTCHAR 00FE
ENCODING 254
SWIDTH 468 0
DWIDTH 13 0
BBX 11 24 1 -6
BITMAP
C000
C000
C000
C000
C000
CE00
DF80
F9C0
E0C0
E060
E060
C060
C060
E060
E0E0
F0C0
FF80
DF00
C000
C000
C000
C000
C000
4000
ENDCHAR
STARTCHAR 00FF
ENCODING 255
SWIDTH 468 0
DWIDTH 13 0
BBX 10 23 2 -6
BITMAP
7380
7380
0100
0000
0000
C0C0
C0C0
E1C0
6180
6180
3300
3300
3300
1E00
1E00
1E00
0C00
0C00
1C00
1800
3800
F000
C000
ENDCHAR
STARTCHAR 0100
ENCODING 256
SWIDTH 612 0
DWIDTH 17 0
BBX 14 22 2 0
BITMAP
0FC0
0FC0
0000
0000
0300
0780
0780
0780
0DC0
0CC0
0CC0
1860
1860
3FE0
3FF0
3030
7038
6018
6018
C01C
C00C
C00C
ENDCHAR
STARTCHAR 0101
ENCODING 257
SWIDTH 396 0
DWIDTH 11 0
BBX 9 17 1 0
BITMAP
3F00
3F00
0000
0000
0C00
3F00
3F80
0180
0180
0980
3F80
7780
E180
C180
6380
7F80
3F80
ENDCHAR
STARTCHAR 0102
ENCODING 258
SWIDTH 612 0
DWIDTH 17 0
BBX 14 23 2 0
BITMAP
1860
0CC0
0F80
0000
0000
0300
0780
0780
0780
0DC0
0CC0
0CC0
1860
1860
3FE0
3FF0
3030
7038
6018
6018
C01C
C00C
C00C
ENDCHAR
STARTCHAR 0103
ENCODING 259
SWIDTH 396 0
DWIDTH 11 0
BBX 9 18 1 0
BITMAP
4100
6300
3F00
1C00
0000
0C00
3F00
3F80
0180
0180
0980
3F80
7780
E180
C180
6380
7F80
3F80
ENDCHAR
STARTCHAR 0104
ENCODING 260
SWIDTH 612 0
DWIDTH 17 0
BBX 17 23 2 -5
BITMAP
030000
078000
078000
078000
0DC000
0CC000
0CC000
186000
186000
3FE000
3FF000
303000
703800
601800
601800
C00C00
C00C00
C00C00
000800
001800
001800
000E00
000780
ENDCHAR
STARTCHAR 0105
ENCODING 261
SWIDTH 396 0
DWIDTH 11 0
BBX 12 18 1 -5
BITMAP
0C00
3F00
3F80
0180
0180
0980
3F80
7780
E180
C180
6380
7F80
3F80
0100
0300
0300
01D0
00E0
ENDCHAR
STARTCHAR 0106
ENCODING 262
SWIDTH 576 0
DWIDTH 16 0
BBX 14 23 1 0
BITMAP
01C0
0180
0300
0000
0000
07E0
1FF0
1C38
301C
7008
6000
6000
E000
C000
C000
C000
6000
6000
7008
301C
3838
1FF0
07E0
ENDCHAR
STARTCHAR 0107
ENCODING 263
SWIDTH 432 0
DWIDTH 12 0
BBX 10 18 1 0
BITMAP
0300
0600
0400
0800
0000
0600
1F80
39C0
60C0
6000
E000
C000
C000
6000
60C0
70C0
3FC0
1F00
ENDCHAR
STARTCHAR 0108
ENCODING 264
SWIDTH 576 0
DWIDTH 16 0
BBX 14 23 1 0
BITMAP
0780
06C0
0C40
0820
0000
07E0
1FF0
1C38
301C
7008
6000
6000
E000
C000
C000
C000
6000
6000
7008
301C
3838
1FF0
07E0
ENDCHAR
STARTCHAR 0109
ENCODING 265
SWIDTH 432 0
DWIDTH 12 0
BBX 10 18 1 0
BITMAP
0E00
1B00
1100
2080
0000
0600
1F80
39C0
60C0
6000
E000
C000
C000
6000
60C0
70C0
3FC0
1F00
ENDCHAR
STARTCHAR 010A
ENCODING 266
SWIDTH 576 0
DWIDTH 16 0
BBX 14 23 1 0
BITMAP
0100
0380
0300
0000
0000
07E0
1FF0
1C38
301C
7008
6000
6000
E000
C000
C000
C000
6000
6000
7008
301C
3838
1FF0
07E0
ENDCHAR
STARTCHAR 010B
ENCODING 267
SWIDTH 432 0
DWIDTH 12 0
BBX 10 17 1 0
BITMAP
0E00
0E00
0400
0000
0600
1F80
39C0
60C0
6000
E000
C000
C000
6000
60C0
70C0
3FC0
1F00
ENDCHAR
STARTCHAR 010C
ENCODING 268
SWIDTH 576 0
DWIDTH 16 0
BBX 14 23 1 0
BITMAP
0840
04C0
0780
0380
0000
07E0
1FF0
1C38
301C
7008
6000
6000
E000
C000
C000
C000
6000
6000
7008
301C
3838
1FF0
07E0
ENDCHAR
STARTCHAR 010D
ENCODING 269
SWIDTH 432 0
DWIDTH 12 0
BBX 10 18 1 0
BITMAP
2080
1100
1B00
0E00
0000
0600
1F80
39C0
60C0
6000
E000
C000
C000
6000
60C0
70C0
3FC0
1F00
ENDCHAR
STARTCHAR 010E
ENCODING 270
SWIDTH 612 0
DWIDTH 17 0
BBX 15 23 1 0
BITMAP
0420
0640
03C0
0380
0000
FFC0
FFF0
3078
301C
300C
300E
3006
3006
3006
3006
3006
3006
300E
300C
301C
3038
FFF0
FFC0
ENDCHAR
STARTCHAR 010F
ENCODING 271
SWIDTH 648 0
DWIDTH 18 0
BBX 16 18 1 0
BITMAP
006E
006F
0067
0061
0063
0662
1FE8
39E0
60E0
6060
E060
C060
C060
6060
60E0
70E0
3FE0
1F60
ENDCHAR
STARTCHAR 0110
ENCODING 272
SWIDTH 612 0
DWIDTH 17 0
BBX 15 18 1 0
BITMAP
FFC0
FFF0
3038
301C
300C
3006
3006
3006
FF82
FF82
3002
3006
3006
300C
301C
3038
FFF0
FFC0
ENDCHAR
STARTCHAR 0111
ENCODING 273
SWIDTH 468 0
DWIDTH 13 0
BBX 13 18 1 0
BITMAP
0060
0060
03F8
03F8
0060
0660
1FE0
39E0
60E0
6060
E060
C060
C060
6060
60E0
70E0
3FE0
1F60
ENDCHAR
STARTCHAR 0112
ENCODING 274
SWIDTH 504 0
DWIDTH 14 0
BBX 12 22 1 0
BITMAP
1F80
1F80
0000
0000
FFF0
FFF0
C000
C000
C000
C000
C000
C000
FFC0
FFC0
C000
C000
C000
C000
C000
C000
FFF0
FFF0
ENDCHAR
STARTCHAR 0113
ENCODING 275
SWIDTH 468 0
DWIDTH 13 0
BBX 11 17 1 0
BITMAP
3F80
3F80
0000
0000
0600
1F80
39C0
60C0
6060
FFE0
FFE0
C000
6000
60C0
70C0
3FC0
1F00
ENDCHAR
STARTCHAR 0114
ENCODING 276
SWIDTH 504 0
DWIDTH 14 0
BBX 12 23 1 0
BITMAP
30C0
1980
0F80
0000
0000
FFF0
FFF0
C000
C000
C000
C000
C000
C000
FFC0
FFC0
C000
C000
C000
C000
C000
C000
FFF0
FFF0
ENDCHAR
STARTCHAR 0115
ENCODING 277
SWIDTH 468 0
DWIDTH 13 0
BBX 11 18 1 0
BITMAP
30C0
3180
1F80
0F00
0000
0600
1F80
39C0
60C0
6060
FFE0
FFE0
C000
6000
60C0
70C0
3FC0
1F00
ENDCHAR
STARTCHAR 0116
ENCODING 278
SWIDTH 504 0
DWIDTH 14 0
BBX 12 23 1 0
BITMAP
0600
0700
0600
0000
0000
FFF0
FFF0
C000
C000
C000
C000
C000
C000
FFC0
FFC0
C000
C000
C000
C000
C000
C000
FFF0
FFF0
ENDCHAR
STARTCHAR 0117
ENCODING 279
SWIDTH 468 0
DWIDTH 13 0
BBX 11 17 1 0
BITMAP
0E00
0E00
0400
0000
0600
1F80
39C0
60C0
6060
FFE0
FFE0
C000
6000
60C0
70C0
3FC0
1F00
ENDCHAR
STARTCHAR 0118
ENCODING 280
SWIDTH 504 0
DWIDTH 14 0
BBX 13 23 1 -5
BITMAP
FFF0
FFF0
C000
C000
C000
C000
C000
C000
FFC0
FFC0
C000
C000
C000
C000
C000
C000
FFF0
FFF0
0080
0180
0180
00E8
0070
ENDCHAR
STARTCHAR 0119
ENCODING 281
SWIDTH 468 0
DWIDTH 13 0
BBX 11 18 1 -5
BITMAP
0600
1F80
39C0
60C0
6060
FFE0
FFE0
C000
6000
60C0
70C0
3FC0
1F00
0400
0400
0600
07A0
03C0
ENDCHAR
STARTCHAR 011A
ENCODING 282
SWIDTH 504 0
DWIDTH 14 0
BBX 12 23 1 0
BITMAP
1080
0980
0F00
0700
0000
FFF0
FFF0
C000
C000
C000
C000
C000
C000
FFC0
FFC0
C000
C000
C000
C000
C000
C000
FFF0
FFF0
ENDCHAR
STARTCHAR 011B
ENCODING 283
SWIDTH 468 0
DWIDTH 13 0
BBX 11 18 1 0
BITMAP
0080
1100
0B00
0E00
0000
0600
1F80
39C0
60C0
6060
FFE0
FFE0
C000
6000
60C0
70C0
3FC0
1F00
ENDCHAR
STARTCHAR 011C
ENCODING 284
SWIDTH 576 0
DWIDTH 16 0
BBX 14 23 1 0
BITMAP
0780
06C0
0C40
0820
0000
07E0
1FF0
1C38
301C
7008
6000
6000
E000
C1FC
C1FC
C1FC
600C
600C
700C
301C
3838
1FF0
07E0
ENDCHAR
STARTCHAR 011D
ENCODING 285
SWIDTH 504 0
DWIDTH 14 0
BBX 13 24 1 -6
BITMAP
0E00
0F00
1900
1080
0000
0F10
3FF8
79F0
6060
C060
C060
6060
79C0
7FC0
6E00
6000
7F00
1FC0
00E0
0060
E060
71E0
3FC0
0E00
ENDCHAR
STARTCHAR 011E
ENCODING 286
SWIDTH 576 0
DWIDTH 16 0
BBX 14 23 1 0
BITMAP
1860
0CE0
07C0
0000
0000
07E0
1FF0
1C38
301C
7008
6000
6000
E000
C1FC
C1FC
C1FC
600C
600C
700C
301C
3838
1FF0
07E0
ENDCHAR
STARTCHAR 011F
ENCODING 287
SWIDTH 504 0
DWIDTH 14 0
BBX 13 24 1 -6
BITMAP
3080
3180
1F80
0E00
0000
0F10
3FF8
79F0
6060
C060
C060
6060
79C0
7FC0
6E00
6000
7F00
1FC0
00E0
0060
E060
71E0
3FC0
0E00
ENDCHAR
STARTCHAR 0120
ENCODING 288
SWIDTH 576 0
DWIDTH 16 0
BBX 14 23 1 0
BITMAP
0100
0380
0300
0000
0000
07E0
1FF0
1C38
301C
7008
6000
6000
E000
C1FC
C1FC
C1FC
600C
600C
700C
301C
3838
1FF0
07E0
ENDCHAR
STARTCHAR 0121
ENCODING 289
SWIDTH 504 0
DWIDTH 14 0
BBX 13 23 1 -6
BITMAP
0E00
0E00
0400
0000
0F10
3FF8
79F0
6060
C060
C060
6060
79C0
7FC0
6E00
6000
7F00
1FC0
00E0
0060
E060
71E0
3FC0
0E00
ENDCHAR
STARTCHAR 0122
ENCODING 290
SWIDTH 576 0
DWIDTH 16 0
BBX 14 24 1 -6
BITMAP
07E0
1FF0
1C38
301C
7008
6000
6000
E000
C1FC
C1FC
C1FC
600C
600C
700C
301C
3838
1FF0
07E0
0100
03C0
0040
0060
07C0
0380
ENDCHAR
STARTCHAR 0123
ENCODING 291
SWIDTH 504 0
DWIDTH 14 0
BBX 13 26 1 -6
BITMAP
0200
0F00
1800
1800
0E00
0600
0000
0F10
3FF8
79F0
6060
C060
C060
6060
79C0
7FC0
6E00
6000
7F00
1FC0
00E0
0060
E060
71E0
3FC0
0E00
ENDCHAR
STARTCHAR 0124
ENCODING 292
SWIDTH 504 0
DWIDTH 14 0
BBX 12 23 1 0
BITMAP
0F00
0900
1080
0000
0000
C030
C030
C030
C030
C030
C030
C030
C030
FFF0
FFF0
C030
C030
C030
C030
C030
C030
C030
C030
ENDCHAR
STARTCHAR 0125
ENCODING 293
SWIDTH 468 0
DWIDTH 13 0
BBX 11 23 1 0
BITMAP
0E00
0B00
1100
0080
0000
C000
C000
C000
C000
C000
C600
DF80
F9C0
F0E0
E060
E060
C060
C060
C060
C060
C060
C060
C060
ENDCHAR
STARTCHAR 0126
ENCODING 294
SWIDTH 648 0
DWIDTH 18 0
BBX 16 18 1 0
BITMAP
300C
300C
300C
FFFF
FFFF
300C
300C
300C
3FFC
3FFC
300C
300C
300C
300C
300C
300C
300C
300C
ENDCHAR
STARTCHAR 0127
ENCODING 295
SWIDTH 540 0
DWIDTH 15 0
BBX 13 18 1 0
BITMAP
3000
3000
FFF0
FFF0
3000
3180
37E0
3E70
3C38
3818
3818
3018
3018
3018
3018
3018
3018
3018
ENDCHAR
STARTCHAR 0128
ENCODING 296
SWIDTH 288 0
DWIDTH 8 0
BBX 9 23 0 0
BITMAP
7080
F880
8F00
0000
0000
7E00
7E00
1800
1800
1800
1800
1800
1800
1800
1800
1800
1800
1800
1800
1800
1800
7E00
7E00
ENDCHAR
STARTCHAR 0129
ENCODING 297
SWIDTH 144 0
DWIDTH 4 0
BBX 9 17 -2 1
BITMAP
F880
9F80
8700
0000
0000
1800
1800
1800
1800
1800
1800
1800
1800
1800
1800
1800
1800
ENDCHAR
STARTCHAR 012A
ENCODING 298
SWIDTH 288 0
DWIDTH 8 0
BBX 7 22 1 0
BITMAP
FE
FE
00
00
FC
FC
30
30
30
30
30
30
30
30
30
30
30
30
30
30
FC
FC
ENDCHAR
STARTCHAR 012B
ENCODING 299
SWIDTH 144 0
DWIDTH 4 0
BBX 7 17 -1 0
BITMAP
FE
FE
00
00
00
30
30
30
30
30
30
30
30
30
30
30
30
ENDCHAR
STARTCHAR 012C
ENCODING 300
SWIDTH 288 0
DWIDTH 8 0
BBX 7 23 1 0
BITMAP
86
C6
7C
00
00
FC
FC
30
30
30
30
30
30
30
30
30
30
30
30
30
30
FC
FC
ENDCHAR
STARTCHAR 012D
ENCODING 301
SWIDTH 144 0
DWIDTH 4 0
BBX 7 18 -1 0
BITMAP
86
C6
FC
38
00
00
30
30
30
30
30
30
30
30
30
30
30
30
ENDCHAR
STARTCHAR 012E
ENCODING 302
SWIDTH 288 0
DWIDTH 8 0
BBX 8 23 1 -5
BITMAP
FC
FC
30
30
30
30
30
30
30
30
30
30
30
30
30
30
FC
FC
10
10
18
1C
0F
ENDCHAR
STARTCHAR 012F
ENCODING 303
SWIDTH 144 0
DWIDTH 4 0
BBX 6 22 1 -5
BITMAP
E0
E0
40
00
00
C0
C0
C0
C0
C0
C0
C0
C0
C0
C0
C0
C0
40
C0
C0
70
3C
ENDCHAR
STARTCHAR 0130
ENCODING 304
SWIDTH 288 0
DWIDTH 8 0
BBX 6 23 1 0
BITMAP
10
38
38
00
00
FC
FC
30
30
30
30
30
30
30
30
30
30
30
30
30
30
FC
FC
ENDCHAR
STARTCHAR 0131
ENCODING 305
SWIDTH 144 0
DWIDTH 4 0
BBX 2 12 1 0
BITMAP
C0
C0
C0
C0
C0
C0
C0
C0
C0
C0
C0
C0
ENDCHAR
STARTCHAR 0132
ENCODING 306
SWIDTH 612 0
DWIDTH 17 0
BBX 15 18 1 0
BITMAP
FC06
FC06
3006
3006
3006
3006
3006
3006
3006
3006
3006
3006
3006
3006
30C6
30C6
FCFE
FC7C
ENDCHAR
STARTCHAR 0133
ENCODING 307
SWIDTH 324 0
DWIDTH 9 0
BBX 8 23 1 -6
BITMAP
E6
E7
40
00
00
C6
C6
C6
C6
C6
C6
C6
C6
C6
C6
C6
C6
06
06
06
2E
7C
30
ENDCHAR
STARTCHAR 0134
ENCODING 308
SWIDTH 360 0
DWIDTH 10 0
BBX 10 23 1 0
BITMAP
0780
0580
08C0
0040
0000
0300
0300
0300
0300
0300
0300
0300
0300
0300
0300
0300
0300
0300
0300
C300
E300
7E00
3C00
ENDCHAR
STARTCHAR 0135
ENCODING 309
SWIDTH 144 0
DWIDTH 4 0
BBX 8 24 -3 -6
BITMAP
0E
1E
13
21
00
00
0C
0C
0C
0C
0C
0C
0C
0C
0C
0C
0C
0C
0C
0C
0C
5C
F8
70
ENDCHAR
STARTCHAR 0136
ENCODING 310
SWIDTH 540 0
DWIDTH 15 0
BBX 12 24 1 -6
BITMAP
C060
C0C0
C1C0
C380
C300
C700
CE00
CC00
DC00
FE00
F600
E300
E380
C1C0
C0C0
C0E0
C070
C030
0400
0F00
0100
0100
1F00
0C00
ENDCHAR
STARTCHAR 0137
ENCODING 311
SWIDTH 432 0
DWIDTH 12 0
BBX 10 24 1 -6
BITMAP
C000
C000
C000
C000
C000
C000
C700
C600
CC00
DC00
D800
F800
FC00
EE00
C600
C300
C380
C1C0
0800
1E00
0200
0200
3E00
1800
ENDCHAR
STARTCHAR 0138
ENCODING 312
SWIDTH 432 0
DWIDTH 12 0
BBX 10 12 1 0
BITMAP
C700
C600
CC00
DC00
D800
F800
FC00
EE00
C600
C300
C380
C1C0
ENDCHAR
STARTCHAR 0139
ENCODING 313
SWIDTH 504 0
DWIDTH 14 0
BBX 12 23 1 0
BITMAP
0380
0200
0400
0000
0000
C000
C000
C000
C000
C000
C000
C000
C000
C000
C000
C000
C000
C000
C000
C000
C000
FFF0
FFF0
ENDCHAR
STARTCHAR 013A
ENCODING 314
SWIDTH 216 0
DWIDTH 6 0
BBX 4 23 1 0
BITMAP
30
60
40
80
00
C0
C0
C0
C0
C0
C0
C0
C0
C0
C0
C0
C0
C0
C0
C0
C0
F0
70
ENDCHAR
STARTCHAR 013B
ENCODING 315
SWIDTH 504 0
DWIDTH 14 0
BBX 12 24 1 -6
BITMAP
C000
C000
C000
C000
C000
C000
C000
C000
C000
C000
C000
C000
C000
C000
C000
C000
FFF0
FFF0
0600
0700
0180
0080
0F80
0E00
ENDCHAR
STARTCHAR 013C
ENCODING 316
SWIDTH 216 0
DWIDTH 6 0
BBX 5 24 1 -6
BITMAP
C0
C0
C0
C0
C0
C0
C0
C0
C0
C0
C0
C0
C0
C0
C0
C0
F0
70
60
70
18
08
F8
60
ENDCHAR
STARTCHAR 013D
ENCODING 317
SWIDTH 504 0
DWIDTH 14 0
BBX 12 18 1 0
BITMAP
C600
CF00
C700
C100
C100
C200
CC00
C000
C000
C000
C000
C000
C000
C000
C000
C000
FFF0
FFF0
ENDCHAR
STARTCHAR 013E
ENCODING 318
SWIDTH 216 0
DWIDTH 6 0
BBX 7 18 1 0
BITMAP
CE
CE
CE
C2
C2
C4
C8
C0
C0
C0
C0
C0
C0
C0
C0
C0
F0
70
ENDCHAR
STARTCHAR 013F
ENCODING 319
SWIDTH 504 0
DWIDTH 14 0
BBX 12 18 1 0
BITMAP
C000
C000
C000
C000
C000
C000
C000
C000
C700
C700
C000
C000
C000
C000
C000
C000
FFF0
FFF0
ENDCHAR
STARTCHAR 0140
ENCODING 320
SWIDTH 324 0
DWIDTH 9 0
BBX 7 18 1 0
BITMAP
C0
C0
C0
C0
C0
C0
C0
C0
C6
CE
C4
C0
C0
C0
C0
C0
F0
70
ENDCHAR
STARTCHAR 0141
ENCODING 321
SWIDTH 576 0
DWIDTH 16 0
BBX 14 18 1 0
BITMAP
1800
1800
1800
1800
1800
1800
1800
1F00
1F00
FC00
F800
1800
1800
1800
1800
1800
1FFC
1FFC
ENDCHAR
STARTCHAR 0142
ENCODING 322
SWIDTH 360 0
DWIDTH 10 0
BBX 8 18 1 0
BITMAP
18
18
18
18
18
18
18
1F
1F
FC
F8
18
18
18
18
18
1E
0E
ENDCHAR
STARTCHAR 0143
ENCODING 323
SWIDTH 576 0
DWIDTH 16 0
BBX 14 23 1 0
BITMAP
00C0
0180
0300
0200
0000
E00C
E00C
F00C
F80C
D80C
CC0C
CE0C
C70C
C30C
C18C
C1CC
C0CC
C06C
C07C
C03C
C01C
C01C
C00C
ENDCHAR
STARTCHAR 0144
ENCODING 324
SWIDTH 468 0
DWIDTH 13 0
BBX 11 18 1 0
BITMAP
0380
0300
0600
0800
0000
0600
DF80
F9C0
F0E0
E060
E060
C060
C060
C060
C060
C060
C060
C060
ENDCHAR
STARTCHAR 0145
ENCODING 325
SWIDTH 576 0
DWIDTH 16 0
BBX 14 24 1 -6
BITMAP
E00C
E00C
F00C
F80C
D80C
CC0C
CE0C
C70C
C30C
C18C
C1CC
C0CC
C06C
C07C
C03C
C01C
C01C
C00C
0300
0380
00C0
0040
07C0
0700
ENDCHAR
STARTCHAR 0146
ENCODING 326
SWIDTH 468 0
DWIDTH 13 0
BBX 11 19 1 -6
BITMAP
0600
DF80
F9C0
F0E0
E060
E060
C060
C060
C060
C060
C060
C060
C060
0400
0700
0180
0180
1F00
0E00
ENDCHAR
STARTCHAR 0147
ENCODING 327
SWIDTH 576 0
DWIDTH 16 0
BBX 14 23 1 0
BITMAP
0840
04C0
0780
0380
0000
E00C
E00C
F00C
F80C
D80C
CC0C
CE0C
C70C
C30C
C18C
C1CC
C0CC
C06C
C07C
C03C
C01C
C01C
C00C
ENDCHAR
STARTCHAR 0148
ENCODING 328
SWIDTH 468 0
DWIDTH 13 0
BBX 11 18 1 0
BITMAP
0080
1100
0B00
0E00
0000
0600
DF80
F9C0
F0E0
E060
E060
C060
C060
C060
C060
C060
C060
C060
ENDCHAR
STARTCHAR 0149
ENCODING 329
SWIDTH 576 0
DWIDTH 16 0
BBX 14 18 1 0
BITMAP
E000
F000
7000
1000
1000
20C0
DBF0
1F38
1E18
1C0C
180C
180C
180C
180C
180C
180C
180C
180C
ENDCHAR
STARTCHAR 014A
ENCODING 330
SWIDTH 540 0
DWIDTH 15 0
BBX 13 18 1 0
BITMAP
C7C0
DFE0
F870
F038
F018
E018
E018
C018
C018
C018
C018
C018
C018
C018
C018
C018
C0F8
C1F0
ENDCHAR
STARTCHAR 014B
ENCODING 331
SWIDTH 468 0
DWIDTH 13 0
BBX 11 19 1 -6
BITMAP
0600
DF80
F9C0
F0E0
E060
E060
C060
C060
C060
C060
C060
C060
C060
0060
0060
0060
02E0
07C0
0300
ENDCHAR
STARTCHAR 014C
ENCODING 332
SWIDTH 612 0
DWIDTH 17 0
BBX 15 22 1 0
BITMAP
0FE0
0FE0
0000
0000
07E0
1FF0
1C38
301C
700C
6006
6006
E006
C006
C006
C006
6006
6006
700C
301C
3838
1FF0
07E0
ENDCHAR
STARTCHAR 014D
ENCODING 333
SWIDTH 468 0
DWIDTH 13 0
BBX 11 17 1 0
BITMAP
3F80
3F80
0000
0000
0600
1F80
39C0
60C0
6060
E060
C060
C060
6060
60E0
70C0
3F80
1F00
ENDCHAR
STARTCHAR 014E
ENCODING 334
SWIDTH 612 0
DWIDTH 17 0
BBX 15 23 1 0
BITMAP
0C30
0E60
07C0
0000
0000
07E0
1FF0
1C38
301C
700C
6006
6006
E006
C006
C006
C006
6006
6006
700C
301C
3838
1FF0
07E0
ENDCHAR
STARTCHAR 014F
ENCODING 335
SWIDTH 468 0
DWIDTH 13 0
BBX 11 18 1 0
BITMAP
30C0
3180
1F80
0F00
0000
0600
1F80
39C0
60C0
6060
E060
C060
C060
6060
60E0
70C0
3F80
1F00
ENDCHAR
STARTCHAR 0150
ENCODING 336
SWIDTH 612 0
DWIDTH 17 0
BBX 15 23 1 0
BITMAP
0398
0330
0660
0440
0000
07E0
1FF0
1C38
301C
700C
6006
6006
E006
C006
C006
C006
6006
6006
700C
301C
3838
1FF0
07E0
ENDCHAR
STARTCHAR 0151
ENCODING 337
SWIDTH 468 0
DWIDTH 13 0
BBX 11 18 1 0
BITMAP
0660
0CC0
0880
1100
0000
0600
1F80
39C0
60C0
6060
E060
C060
C060
6060
60E0
70C0
3F80
1F00
ENDCHAR
STARTCHAR 0152
ENCODING 338
SWIDTH 972 0
DWIDTH 27 0
BBX 25 18 1 0
BITMAP
07E7FF80
1FF7FF80
1C3E0000
301E0000
700E0000
60060000
60060000
E0060000
C007FE00
C007FE00
C0060000
60060000
60060000
700E0000
301E0000
383E0000
1FF7FF80
07E7FF80
ENDCHAR
STARTCHAR 0153
ENCODING 339
SWIDTH 792 0
DWIDTH 22 0
BBX 20 13 1 0
BITMAP
060700
1F9FC0
39FDE0
60F060
607030
E07FF0
C07FF0
C06000
606000
60F060
70F8E0
3FDFC0
1F0F80
ENDCHAR
STARTCHAR 0154
ENCODING 340
SWIDTH 504 0
DWIDTH 14 0
BBX 12 23 1 0
BITMAP
0300
0600
0400
0800
0000
FF00
FF80
C1C0
C0E0
C060
C060
C060
C0C0
FFC0
FF80
C300
C380
C180
C0C0
C0E0
C060
C070
C030
ENDCHAR
STARTCHAR 0155
ENCODING 341
SWIDTH 324 0
DWIDTH 9 0
BBX 7 18 1 0
BITMAP
0C
08
10
20
00
0E
DE
F8
F0
E0
E0
C0
C0
C0
C0
C0
C0
C0
ENDCHAR
STARTCHAR 0156
ENCODING 342
SWIDTH 468 0
DWIDTH 13 0
BBX 12 24 1 -6
BITMAP
FF00
FF80
C1C0
C0E0
C060
C060
C060
C0C0
FFC0
FF80
C300
C380
C180
C0C0
C0E0
C060
C070
C030
0400
0700
0180
0180
1F00
0E00
ENDCHAR
STARTCHAR 0157
ENCODING 343
SWIDTH 324 0
DWIDTH 9 0
BBX 8 19 0 -6
BITMAP
07
6F
7C
78
70
70
60
60
60
60
60
60
60
60
70
18
08
F8
E0
ENDCHAR
STARTCHAR 0158
ENCODING 344
SWIDTH 504 0
DWIDTH 14 0
BBX 12 23 1 0
BITMAP
1080
1900
0F00
0E00
0000
FF00
FF80
C1C0
C0E0
C060
C060
C060
C0C0
FFC0
FF80
C300
C380
C180
C0C0
C0E0
C060
C070
C030
ENDCHAR
STARTCHAR 0159
ENCODING 345
SWIDTH 324 0
DWIDTH 9 0
BBX 7 18 1 0
BITMAP
02
44
2C
38
00
0E
DE
F8
F0
E0
E0
C0
C0
C0
C0
C0
C0
C0
ENDCHAR
STARTCHAR 015A
ENCODING 346
SWIDTH 468 0
DWIDTH 13 0
BBX 11 23 1 0
BITMAP
0300
0600
0400
0800
0000
1F00
3F80
71C0
60C0
60E0
6000
7000
3C00
1F00
0780
01C0
00E0
0060
C060
6060
70E0
3FC0
1F80
ENDCHAR
STARTCHAR 015B
ENCODING 347
SWIDTH 360 0
DWIDTH 10 0
BBX 8 18 1 0
BITMAP
06
0C
08
10
00
1C
3E
77
63
60
78
1E
07
03
C3
63
7F
3E
ENDCHAR
STARTCHAR 015C
ENCODING 348
SWIDTH 468 0
DWIDTH 13 0
BBX 11 23 1 0
BITMAP
0F00
0B00
1180
2080
0000
1F00
3F80
71C0
60C0
60E0
6000
7000
3C00
1F00
0780
01C0
00E0
0060
C060
6060
70E0
3FC0
1F80
ENDCHAR
STARTCHAR 015D
ENCODING 349
SWIDTH 360 0
DWIDTH 10 0
BBX 8 18 1 0
BITMAP
1C
34
22
41
00
1C
3E
77
63
60
78
1E
07
03
C3
63
7F
3E
ENDCHAR
STARTCHAR 015E
ENCODING 350
SWIDTH 468 0
DWIDTH 13 0
BBX 11 24 1 -6
BITMAP
1F00
3F80
71C0
60C0
60E0
6000
7000
3C00
1F00
0780
01C0
00E0
0060
C060
6060
70E0
3FC0
1F80
0400
0F00
0100
0100
1F00
0C00
ENDCHAR
STARTCHAR 015F
ENCODING 351
SWIDTH 360 0
DWIDTH 10 0
BBX 8 19 1 -6
BITMAP
18
3E
77
63
60
78
1E
07
03
C3
63
7F
3E
18
1C
06
02
3E
38
ENDCHAR
STARTCHAR 0160
ENCODING 352
SWIDTH 468 0
DWIDTH 13 0
BBX 11 23 1 0
BITMAP
1080
1900
0F00
0E00
0000
1F00
3F80
71C0
60C0
60E0
6000
7000
3C00
1F00
0780
01C0
00E0
0060
C060
6060
70E0
3FC0
1F80
ENDCHAR
STARTCHAR 0161
ENCODING 353
SWIDTH 360 0
DWIDTH 10 0
BBX 8 18 1 0
BITMAP
41
22
36
1C
00
1C
3E
77
63
60
78
1E
07
03
C3
63
7F
3E
ENDCHAR
STARTCHAR 0162
ENCODING 354
SWIDTH 504 0
DWIDTH 14 0
BBX 12 24 1 -6
BITMAP
FFF0
FFF0
0600
0600
0600
0600
0600
0600
0600
0600
0600
0600
0600
0600
0600
0600
0600
0600
0600
0700
0180
0180
0F00
0E00
ENDCHAR
STARTCHAR 0163
ENCODING 355
SWIDTH 324 0
DWIDTH 9 0
BBX 7 21 1 -6
BITMAP
18
18
18
FE
FE
18
18
18
18
18
18
18
18
1E
1E
18
1C
06
02
3E
38
ENDCHAR
STARTCHAR 0164
ENCODING 356
SWIDTH 504 0
DWIDTH 14 0
BBX 12 23 1 0
BITMAP
1080
0980
0F00
0700
0000
FFF0
FFF0
0600
0600
0600
0600
0600
0600
0600
0600
0600
0600
0600
0600
0600
0600
0600
0600
ENDCHAR
STARTCHAR 0165
ENCODING 357
SWIDTH 468 0
DWIDTH 13 0
BBX 11 18 1 0
BITMAP
00E0
00E0
08E0
1820
1820
1840
FE80
FE00
1800
1800
1800
1800
1800
1800
1800
1800
1E00
1E00
ENDCHAR
STARTCHAR 0166
ENCODING 358
SWIDTH 504 0
DWIDTH 14 0
BBX 12 18 1 0
BITMAP
FFF0
FFF0
0600
0600
0600
0600
0600
0600
7FE0
7FE0
0600
0600
0600
0600
0600
0600
0600
0600
ENDCHAR
STARTCHAR 0167
ENCODING 359
SWIDTH 324 0
DWIDTH 9 0
BBX 7 15 1 0
BITMAP
18
18
18
FE
FE
18
18
18
FE
FE
18
18
18
1E
1E
ENDCHAR
STARTCHAR 0168
ENCODING 360
SWIDTH 576 0
DWIDTH 16 0
BBX 14 23 1 0
BITMAP
1C10
1F30
31E0
0000
0000
C00C
C00C
C00C
C00C
C00C
C00C
C00C
C00C
C00C
C00C
C00C
C00C
C00C
601C
6018
3838
1FF0
0FC0
ENDCHAR
STARTCHAR 0169
ENCODING 361
SWIDTH 468 0
DWIDTH 13 0
BBX 11 18 1 0
BITMAP
1000
3C40
67C0
4180
0000
0000
C060
C060
C060
C060
C060
C060
C060
E060
60E0
61E0
3FE0
1F60
ENDCHAR
STARTCHAR 016A
ENCODING 362
SWIDTH 576 0
DWIDTH 16 0
BBX 14 22 1 0
BITMAP
0FE0
0FE0
0000
0000
C00C
C00C
C00C
C00C
C00C
C00C
C00C
C00C
C00C
C00C
C00C
C00C
C00C
601C
6018
3838
1FF0
0FC0
ENDCHAR
STARTCHAR 016B
ENCODING 363
SWIDTH 468 0
DWIDTH 13 0
BBX 11 17 1 0
BITMAP
3F80
3F80
0000
0000
0000
C060
C060
C060
C060
C060
C060
C060
E060
60E0
61E0
3FE0
1F60
ENDCHAR
STARTCHAR 016C
ENCODING 364
SWIDTH 576 0
DWIDTH 16 0
BBX 14 23 1 0
BITMAP
1860
0CC0
07C0
0000
0000
C00C
C00C
C00C
C00C
C00C
C00C
C00C
C00C
C00C
C00C
C00C
C00C
C00C
601C
6018
3838
1FF0
0FC0
ENDCHAR
STARTCHAR 016D
ENCODING 365
SWIDTH 468 0
DWIDTH 13 0
BBX 11 18 1 0
BITMAP
30C0
3180
1F80
0F00
0000
0000
C060
C060
C060
C060
C060
C060
C060
E060
60E0
61E0
3FE0
1F60
ENDCHAR
STARTCHAR 016E
ENCODING 366
SWIDTH 576 0
DWIDTH 16 0
BBX 14 24 1 0
BITMAP
0300
0780
0480
0680
0380
0000
C00C
C00C
C00C
C00C
C00C
C00C
C00C
C00C
C00C
C00C
C00C
C00C
C00C
601C
6018
3838
1FF0
0FC0
ENDCHAR
STARTCHAR 016F
ENCODING 367
SWIDTH 468 0
DWIDTH 13 0
BBX 11 18 1 0
BITMAP
0F00
1900
1900
0F00
0000
0000
C060
C060
C060
C060
C060
C060
C060
E060
60E0
61E0
3FE0
1F60
ENDCHAR
STARTCHAR 0170
ENCODING 368
SWIDTH 576 0
DWIDTH 16 0
BBX 14 23 1 0
BITMAP
0330
0660
0440
0880
0000
C00C
C00C
C00C
C00C
C00C
C00C
C00C
C00C
C00C
C00C
C00C
C00C
C00C
601C
6018
3838
1FF0
0FC0
ENDCHAR
STARTCHAR 0171
ENCODING 369
SWIDTH 468 0
DWIDTH 13 0
BBX 11 18 1 0
BITMAP
0660
0CC0
0880
1100
0000
0000
C060
C060
C060
C060
C060
C060
C060
E060
60E0
61E0
3FE0
1F60
ENDCHAR
STARTCHAR 0172
ENCODING 370
SWIDTH 576 0
DWIDTH 16 0
BBX 14 23 1 -5
BITMAP
C00C
C00C
C00C
C00C
C00C
C00C
C00C
C00C
C00C
C00C
C00C
C00C
C00C
601C
6018
3838
1FF0
0FC0
0100
0300
0300
01D0
00E0
ENDCHAR
STARTCHAR 0173
ENCODING 371
SWIDTH 468 0
DWIDTH 13 0
BBX 14 17 1 -5
BITMAP
C060
C060
C060
C060
C060
C060
C060
E060
60E0
61E0
3FE0
1F60
0080
00C0
00C0
00F4
0078
ENDCHAR
STARTCHAR 0174
ENCODING 372
SWIDTH 864 0
DWIDTH 24 0
BBX 22 23 1 0
BITMAP
007800
004800
008400
000000
000000
E0301C
603018
607818
607818
307838
30FC30
30CC30
30CC30
18CC60
19CE60
198660
1D8660
0D86C0
0F03C0
0F03C0
0F03C0
070380
060180
ENDCHAR
STARTCHAR 0175
ENCODING 373
SWIDTH 648 0
DWIDTH 18 0
BBX 15 18 2 0
BITMAP
0380
0780
04C0
0840
0000
0000
C30E
C38C
C78C
E78C
67DC
6ED8
6CD8
7CD8
3CF0
3C70
3870
1870
ENDCHAR
STARTCHAR 0176
ENCODING 374
SWIDTH 612 0
DWIDTH 17 0
BBX 14 23 2 0
BITMAP
0780
0580
08C0
0040
0000
C00C
E018
7038
3070
3860
1CE0
0DC0
0780
0780
0300
0300
0300
0300
0300
0300
0300
0300
0300
ENDCHAR
STARTCHAR 0177
ENCODING 375
SWIDTH 468 0
DWIDTH 13 0
BBX 10 24 2 -6
BITMAP
1E00
1E00
3300
2100
0000
0000
C0C0
C0C0
E1C0
6180
6180
3300
3300
3300
1E00
1E00
1E00
0C00
0C00
1C00
1800
3800
F000
C000
ENDCHAR
STARTCHAR 0178
ENCODING 376
SWIDTH 612 0
DWIDTH 17 0
BBX 14 23 2 0
BITMAP
08C0
1CE0
1CC0
0000
0000
C00C
E018
7038
3070
3860
1CE0
0DC0
0780
0780
0300
0300
0300
0300
0300
0300
0300
0300
0300
ENDCHAR
STARTCHAR 0179
ENCODING 377
SWIDTH 504 0
DWIDTH 14 0
BBX 13 23 1 0
BITMAP
0180
0300
0200
0400
0000
FFF8
FFF8
0030
0070
00E0
00C0
01C0
0380
0300
0600
0E00
1C00
1800
3800
7000
6000
FFF8
FFF8
ENDCHAR
STARTCHAR 017A
ENCODING 378
SWIDTH 396 0
DWIDTH 11 0
BBX 9 18 1 0
BITMAP
0600
0C00
0800
1000
0000
0000
FF80
FF80
0300
0600
0E00
1C00
1800
3800
7000
6000
FF80
FF80
ENDCHAR
STARTCHAR 017B
ENCODING 379
SWIDTH 504 0
DWIDTH 14 0
BBX 13 23 1 0
BITMAP
0200
0700
0700
0000
0000
FFF8
FFF8
0030
0070
00E0
00C0
01C0
0380
0300
0600
0E00
1C00
1800
3800
7000
6000
FFF8
FFF8
ENDCHAR
STARTCHAR 017C
ENCODING 380
SWIDTH 396 0
DWIDTH 11 0
BBX 9 17 1 0
BITMAP
1C00
1C00
0800
0000
0000
FF80
FF80
0300
0600
0E00
1C00
1800
3800
7000
6000
FF80
FF80
ENDCHAR
STARTCHAR 017D
ENCODING 381
SWIDTH 504 0
DWIDTH 14 0
BBX 13 23 1 0
BITMAP
1080
0D80
0F00
0700
0000
FFF8
FFF8
0030
0070
00E0
00C0
01C0
0380
0300
0600
0E00
1C00
1800
3800
7000
6000
FFF8
FFF8
ENDCHAR
STARTCHAR 017E
ENCODING 382
SWIDTH 396 0
DWIDTH 11 0
BBX 9 18 1 0
BITMAP
4100
2200
3600
1C00
0000
0000
FF80
FF80
0300
0600
0E00
1C00
1800
3800
7000
6000
FF80
FF80
ENDCHAR
STARTCHAR 017F
ENCODING 383
SWIDTH 144 0
DWIDTH 4 0
BBX 6 24 1 -6
BITMAP
3C
7C
E0
C0
C0
C0
C0
C0
C0
C0
C0
C0
C0
C0
C0
C0
C0
C0
C0
C0
C0
C0
C0
40
ENDCHAR
STARTCHAR 0180
ENCODING 384
SWIDTH 468 0
DWIDTH 13 0
BBX 13 18 -1 0
BITMAP
3000
3000
FE00
FE00
3000
3380
37E0
3E70
3830
3818
3818
3018
3018
3818
3838
3C30
3FE0
37C0
ENDCHAR
STARTCHAR 0181
ENCODING 385
SWIDTH 684 0
DWIDTH 19 0
BBX 17 18 1 0
BITMAP
3FFC00
7FFE00
630700
C30300
C30300
430300
030300
03FF00
03FE00
030F00
030380
030180
030180
030180
030180
030700
03FF00
03FC00
ENDCHAR
STARTCHAR 0182
ENCODING 386
SWIDTH 504 0
DWIDTH 14 0
BBX 12 18 1 0
BITMAP
FFC0
FFC0
C000
C000
C000
C000
C000
FE00
FFC0
C1E0
C060
C070
C030
C030
C060
C0E0
FFC0
FF80
ENDCHAR
STARTCHAR 0183
ENCODING 387
SWIDTH 468 0
DWIDTH 13 0
BBX 11 18 1 0
BITMAP
FFC0
FFC0
C000
C000
C000
CE00
DF80
F9C0
E0C0
E060
E060
C060
C060
E060
E0E0
F0C0
FF80
DF00
ENDCHAR
STARTCHAR 0184
ENCODING 388
SWIDTH 648 0
DWIDTH 18 0
BBX 16 18 2 0
BITMAP
0C00
1C00
3C00
7C00
EC00
CC00
0C00
0FE0
0FF8
0C3C
0C06
0C06
0C03
0C06
0C06
0C0E
0FFC
0FF8
ENDCHAR
STARTCHAR 0185
ENCODING 389
SWIDTH 504 0
DWIDTH 14 0
BBX 11 12 2 0
BITMAP
3800
7800
F800
D800
1F80
1FC0
18E0
1860
1860
18E0
1FC0
1F80
ENDCHAR
STARTCHAR 0186
ENCODING 390
SWIDTH 576 0
DWIDTH 16 0
BBX 13 18 2 0
BITMAP
1F00
7FC0
E0E0
C070
8030
0038
0018
0018
0018
0018
0018
0018
0038
8030
C070
E0E0
7FC0
1F80
ENDCHAR
STARTCHAR 0187
ENCODING 391
SWIDTH 576 0
DWIDTH 16 0
BBX 18 23 1 0
BITMAP
000080
0007C0
000F80
000C00
000C00
07EC00
1FFC00
1C3C00
301C00
700800
600000
600000
E00000
C00000
C00000
C00000
600000
600000
700800
301C00
383800
1FF000
07E000
ENDCHAR
STARTCHAR 0188
ENCODING 392
SWIDTH 432 0
DWIDTH 12 0
BBX 14 18 1 0
BITMAP
001C
007C
0060
0060
0060
0660
1FE0
39E0
60E0
6000
E000
C000
C000
6000
60C0
70C0
3FC0
1F00
ENDCHAR
STARTCHAR 0189
ENCODING 393
SWIDTH 612 0
DWIDTH 17 0
BBX 15 18 1 0
BITMAP
FFC0
FFF0
3038
301C
300C
3006
3006
3006
FF82
FF82
3002
3006
3006
300C
301C
3038
FFF0
FFC0
ENDCHAR
STARTCHAR 018A
ENCODING 394
SWIDTH 756 0
DWIDTH 21 0
BBX 19 18 1 0
BITMAP
3FF800
7FFE00
630700
C30380
C301C0
4300C0
0300C0
0300E0
030060
030060
030060
0300C0
0300C0
0301C0
030380
030700
0FFE00
0FFC00
ENDCHAR
STARTCHAR 018B
ENCODING 395
SWIDTH 504 0
DWIDTH 14 0
BBX 12 18 1 0
BITMAP
3FF0
3FF0
0030
0030
0030
0030
0030
07F0
3FF0
7C30
6030
E030
C030
C030
6030
7030
3FF0
1FF0
ENDCHAR
STARTCHAR 018C
ENCODING 396
SWIDTH 468 0
DWIDTH 13 0
BBX 11 18 1 0
BITMAP
3FE0
3FE0
0060
0060
0060
0660
1FE0
39E0
60E0
6060
E060
C060
C060
6060
60E0
70E0
3FE0
1F60
ENDCHAR
STARTCHAR 018D
ENCODING 397
SWIDTH 468 0
DWIDTH 13 0
BBX 11 19 1 -6
BITMAP
0600
1F80
39C0
60C0
6060
E060
C060
C060
6060
70E0
38C0
1FC0
0F00
0700
0300
6300
7700
3E00
0800
ENDCHAR
STARTCHAR 018E
ENCODING 398
SWIDTH 504 0
DWIDTH 14 0
BBX 12 18 1 0
BITMAP
FFF0
FFF0
0030
0030
0030
0030
0030
0030
3FF0
3FF0
0030
0030
0030
0030
0030
0030
FFF0
FFF0
ENDCHAR
STARTCHAR 018F
ENCODING 399
SWIDTH 612 0
DWIDTH 17 0
BBX 15 18 1 0
BITMAP
07E0
0FF0
1C38
101C
000C
0006
0006
0006
FFFE
FFFE
C006
6006
6006
700C
301C
3838
1FF0
07E0
ENDCHAR
STARTCHAR 0190
ENCODING 400
SWIDTH 468 0
DWIDTH 13 0
BBX 12 18 1 0
BITMAP
1F80
3FC0
70E0
E060
C060
E000
6000
7E00
3E00
7C00
E000
C000
C000
C030
C070
E0E0
7FC0
1F80
ENDCHAR
STARTCHAR 0191
ENCODING 401
SWIDTH 504 0
DWIDTH 14 0
BBX 16 24 -3 -6
BITMAP
0FFF
0FFF
0C00
0C00
0C00
0C00
0C00
0C00
0FFC
0FFC
0C00
0C00
0C00
0C00
0C00
0C00
0C00
0C00
0C00
0C00
0C00
5C00
F800
7000
ENDCHAR
STARTCHAR 0192
ENCODING 402
SWIDTH 288 0
DWIDTH 8 0
BBX 10 24 0 -6
BITMAP
07C0
0F80
0C00
0C00
0C00
0C00
0C00
7F00
7F00
0C00
0C00
0C00
0C00
0C00
0C00
0C00
0C00
0C00
0C00
0C00
0C00
5800
F800
6000
ENDCHAR
STARTCHAR 0193
ENCODING 403
SWIDTH 576 0
DWIDTH 16 0
BBX 18 23 1 0
BITMAP
000080
0007C0
000F80
000C00
000C00
07EC00
1FFC00
1C3C00
301C00
700800
600000
600000
E00000
C1FC00
C1FC00
C1FC00
600C00
600C00
700C00
301C00
383800
1FF000
07E000
ENDCHAR
STARTCHAR 0194
ENCODING 404
SWIDTH 612 0
DWIDTH 17 0
BBX 14 24 2 -6
BITMAP
C00C
C00C
C00C
6018
6018
6038
3030
3030
3870
1860
1860
0CC0
0CC0
0CC0
0780
0780
0780
0300
0780
0780
0780
0780
0780
0300
ENDCHAR
STARTCHAR 0195
ENCODING 405
SWIDTH 684 0
DWIDTH 19 0
BBX 17 18 1 0
BITMAP
C00000
C00000
C00000
C00000
C00000
C60000
DF8180
F9C180
F0E180
E06180
E06180
C06180
C06180
C06180
C06180
C07180
C03F80
C01F00
ENDCHAR
STARTCHAR 0196
ENCODING 406
SWIDTH 360 0
DWIDTH 10 0
BBX 8 18 1 0
BITMAP
C0
C0
C0
C0
C0
C0
C0
C0
C0
C0
C0
C0
C0
C0
C3
E3
7E
3C
ENDCHAR
STARTCHAR 0197
ENCODING 407
SWIDTH 288 0
DWIDTH 8 0
BBX 6 18 1 0
BITMAP
FC
FC
30
30
30
30
30
30
FC
FC
30
30
30
30
30
30
FC
FC
ENDCHAR
STARTCHAR 0198
ENCODING 408
SWIDTH 540 0
DWIDTH 15 0
BBX 12 22 1 1
BITMAP
3E00
7C00
E000
C000
C060
C0C0
C1C0
C380
C300
C700
CE00
CC00
DC00
FE00
F600
E300
E380
C1C0
C0C0
C0E0
C070
C030
ENDCHAR
STARTCHAR 0199
ENCODING 409
SWIDTH 432 0
DWIDTH 12 0
BBX 10 22 1 1
BITMAP
3E00
7C00
E000
C000
C000
C000
C000
C000
C000
C000
C700
C600
CC00
DC00
D800
F800
FC00
EE00
C600
C300
C380
C1C0
ENDCHAR
STARTCHAR 019A
ENCODING 410
SWIDTH 288 0
DWIDTH 8 0
BBX 6 18 1 0
BITMAP
30
30
30
30
30
30
30
30
FC
FC
30
30
30
30
30
30
3C
1C
ENDCHAR
STARTCHAR 019B
ENCODING 411
SWIDTH 468 0
DWIDTH 13 0
BBX 10 18 2 0
BITMAP
E000
7100
1F00
7E00
FC00
4C00
0C00
1E00
1E00
3F00
3300
3300
7380
6180
6180
C0C0
C0C0
C0C0
ENDCHAR
STARTCHAR 019C
ENCODING 412
SWIDTH 576 0
DWIDTH 16 0
BBX 15 18 1 0
BITMAP
C386
C386
C386
C386
C386
C386
C386
C386
C386
C386
C386
C386
C386
C38E
638E
679E
7FFE
3CF6
ENDCHAR
STARTCHAR 019D
ENCODING 413
SWIDTH 576 0
DWIDTH 16 0
BBX 18 24 -3 -6
BITMAP
0E00C0
0E00C0
0F00C0
0F80C0
0D80C0
0CC0C0
0CE0C0
0C70C0
0C30C0
0C18C0
0C1CC0
0C0CC0
0C06C0
0C07C0
0C03C0
0C01C0
0C01C0
0C00C0
0C0000
0C0000
0C0000
5C0000
F80000
700000
ENDCHAR
STARTCHAR 019E
ENCODING 414
SWIDTH 468 0
DWIDTH 13 0
BBX 11 19 1 -6
BITMAP
0600
DF80
F9C0
F0E0
E060
E060
C060
C060
C060
C060
C060
C060
C060
0060
0060
0060
0060
0060
0020
ENDCHAR
STARTCHAR 019F
ENCODING 415
SWIDTH 612 0
DWIDTH 17 0
BBX 15 18 1 0
BITMAP
07E0
1FF0
1C38
301C
700C
6006
6006
E006
FFFE
FFFE
C006
6006
6006
700C
301C
3838
1FF0
07E0
ENDCHAR
STARTCHAR 01A0
ENCODING 416
SWIDTH 684 0
DWIDTH 19 0
BBX 19 18 1 0
BITMAP
07E1C0
1FF1E0
1C39E0
301C20
700C40
600680
600700
E00600
C00600
C00600
C00600
600600
600600
700C00
301C00
383800
1FF000
07E000
ENDCHAR
STARTCHAR 01A1
ENCODING 417
SWIDTH 504 0
DWIDTH 14 0
BBX 14 15 1 0
BITMAP
0038
003C
0614
1F84
39C8
60D0
6060
E060
C060
C060
6060
60E0
70C0
3F80
1F00
ENDCHAR
STARTCHAR 01A2
ENCODING 418
SWIDTH 684 0
DWIDTH 19 0
BBX 17 23 1 -5
BITMAP
07FF80
1FFF80
1C3980
301980
701980
601980
601980
E01980
C01980
C01980
C01980
601980
601980
701980
301980
383980
1FF180
07E180
000180
000180
000180
000180
000180
ENDCHAR
STARTCHAR 01A3
ENCODING 419
SWIDTH 540 0
DWIDTH 15 0
BBX 13 19 1 -6
BITMAP
0600
1FF8
39F8
6198
6198
E198
C198
C198
6198
6198
7198
3F98
1F18
0018
0018
0018
0018
0018
0008
ENDCHAR
STARTCHAR 01A4
ENCODING 420
SWIDTH 648 0
DWIDTH 18 0
BBX 16 18 1 0
BITMAP
3FF8
7FFE
6307
C303
C303
4303
0303
0307
03FE
03FC
0300
0300
0300
0300
0300
0300
0300
0300
ENDCHAR
STARTCHAR 01A5
ENCODING 421
SWIDTH 468 0
DWIDTH 13 0
BBX 11 24 1 -6
BITMAP
3C00
7C00
E000
C000
C000
CE00
DF80
F9C0
E0C0
E060
E060
C060
C060
E060
E0E0
F0C0
FF80
DF00
C000
C000
C000
C000
C000
4000
ENDCHAR
STARTCHAR 01A6
ENCODING 422
SWIDTH 468 0
DWIDTH 13 0
BBX 11 22 1 -4
BITMAP
C000
C000
C000
C000
FF00
FFC0
C0C0
C060
C060
C060
C0E0
FFC0
FF80
FF00
C180
C180
C0C0
C0C0
00E0
0060
0060
0060
ENDCHAR
STARTCHAR 01A7
ENCODING 423
SWIDTH 468 0
DWIDTH 13 0
BBX 11 18 1 0
BITMAP
1F00
3F80
70C0
60C0
60E0
00C0
01C0
0380
0F00
3C00
7000
6000
E000
C060
6060
70E0
3FC0
1F80
ENDCHAR
STARTCHAR 01A8
ENCODING 424
SWIDTH 360 0
DWIDTH 10 0
BBX 8 13 1 0
BITMAP
18
3E
77
63
03
0F
3C
70
E0
C3
63
7F
3E
ENDCHAR
STARTCHAR 01A9
ENCODING 425
SWIDTH 504 0
DWIDTH 14 0
BBX 12 18 1 0
BITMAP
FFF0
FFF0
6000
7000
3800
1800
1C00
0E00
0600
0600
0E00
1C00
1800
3800
7000
6000
FFF0
FFF0
ENDCHAR
STARTCHAR 01AA
ENCODING 426
SWIDTH 360 0
DWIDTH 10 0
BBX 12 24 1 -6
BITMAP
3C00
7E00
E300
C300
E300
7F00
3F00
0300
0300
0300
0300
0300
0300
0300
0300
0300
0300
0300
0300
0300
0300
03A0
01F0
0060
ENDCHAR
STARTCHAR 01AB
ENCODING 427
SWIDTH 324 0
DWIDTH 9 0
BBX 7 22 1 -6
BITMAP
08
18
18
18
FE
FE
18
18
18
18
18
18
18
18
1E
1E
06
06
06
2E
7C
30
ENDCHAR
STARTCHAR 01AC
ENCODING 428
SWIDTH 576 0
DWIDTH 16 0
BBX 14 18 1 0
BITMAP
3FFC
7FFC
6180
C180
C180
4180
0180
0180
0180
0180
0180
0180
0180
0180
0180
0180
0180
0180
ENDCHAR
STARTCHAR 01AD
ENCODING 429
SWIDTH 324 0
DWIDTH 9 0
BBX 9 18 1 0
BITMAP
0F80
1F00
1800
1800
1800
1800
FE00
FE00
1800
1800
1800
1800
1800
1800
1800
1800
1E00
1E00
ENDCHAR
STARTCHAR 01AE
ENCODING 430
SWIDTH 504 0
DWIDTH 14 0
BBX 12 24 1 -6
BITMAP
FFF0
FFF0
0600
0600
0600
0600
0600
0600
0600
0600
0600
0600
0600
0600
0600
0600
0600
0600
0600
0600
0600
0740
03E0
00C0
ENDCHAR
STARTCHAR 01AF
ENCODING 431
SWIDTH 648 0
DWIDTH 18 0
BBX 18 18 1 0
BITMAP
C00F80
C00FC0
C00DC0
C00C40
C00C40
C00C80
C00F00
C00C00
C00C00
C00C00
C00C00
C00C00
C00C00
601C00
601800
383800
1FF000
0FC000
ENDCHAR
STARTCHAR 01B0
ENCODING 432
SWIDTH 576 0
DWIDTH 16 0
BBX 15 15 1 0
BITMAP
001C
001E
0002
C062
C064
C06C
C070
C060
C060
C060
E060
60E0
61E0
3FE0
1F60
ENDCHAR
STARTCHAR 01B1
ENCODING 433
SWIDTH 612 0
DWIDTH 17 0
BBX 15 18 1 0
BITMAP
FC7E
FC7E
1C38
301C
700C
6006
6006
E006
C006
C006
C006
6006
6006
700C
301C
3838
1FF0
07E0
ENDCHAR
STARTCHAR 01B2
ENCODING 434
SWIDTH 576 0
DWIDTH 16 0
BBX 13 18 2 0
BITMAP
C0E0
C0F0
C018
6018
6018
6038
3030
3030
3870
1860
1860
0CC0
0CC0
0CC0
0780
0780
0780
0300
ENDCHAR
STARTCHAR 01B3
ENCODING 435
SWIDTH 612 0
DWIDTH 17 0
BBX 18 18 2 0
BITMAP
C00F00
E01F80
7039C0
307000
386000
1CE000
0DC000
078000
078000
030000
030000
030000
030000
030000
030000
030000
030000
030000
ENDCHAR
STARTCHAR 01B4
ENCODING 436
SWIDTH 612 0
DWIDTH 17 0
BBX 14 19 2 -6
BITMAP
0038
C0FC
C0CC
E1C0
6180
6180
3300
3300
3300
1E00
1E00
1E00
0C00
0C00
1C00
1800
3800
F000
C000
ENDCHAR
STARTCHAR 01B5
ENCODING 437
SWIDTH 504 0
DWIDTH 14 0
BBX 13 18 1 0
BITMAP
FFF8
FFF8
0030
0070
00E0
00C0
01C0
0380
3FE0
3FE0
0E00
1C00
1800
3800
7000
6000
FFF8
FFF8
ENDCHAR
STARTCHAR 01B6
ENCODING 438
SWIDTH 396 0
DWIDTH 11 0
BBX 9 12 1 0
BITMAP
FF80
FF80
0300
0600
0E00
7F00
7F00
3800
7000
6000
FF80
FF80
ENDCHAR
STARTCHAR 01B7
ENCODING 439
SWIDTH 504 0
DWIDTH 14 0
BBX 13 18 1 0
BITMAP
FFF8
FFF8
0030
0070
00E0
00C0
01C0
03C0
03E0
0070
0030
0030
0018
E030
6030
7070
3FE0
1F80
ENDCHAR
STARTCHAR 01B8
ENCODING 440
SWIDTH 504 0
DWIDTH 14 0
BBX 13 18 1 0
BITMAP
FFF8
FFF8
6000
7000
3800
1800
1C00
1E00
3E00
7000
6000
E000
C000
E030
6030
7070
3FE0
1F80
ENDCHAR
STARTCHAR 01B9
ENCODING 441
SWIDTH 432 0
DWIDTH 12 0
BBX 10 18 1 -6
BITMAP
FFC0
FFC0
7000
3000
3800
1C00
1C00
3C00
7000
6000
E000
C000
C000
6000
6000
3BC0
1F80
0600
ENDCHAR
STARTCHAR 01BA
ENCODING 442
SWIDTH 360 0
DWIDTH 10 0
BBX 9 18 1 -6
BITMAP
FF80
FF80
0300
0600
0E00
1E00
1F00
0300
0300
0700
1E00
7800
6000
E000
6380
7700
3E00
1C00
ENDCHAR
STARTCHAR 01BB
ENCODING 443
SWIDTH 432 0
DWIDTH 12 0
BBX 10 18 1 0
BITMAP
1F00
7F80
6180
E0C0
C0C0
00C0
01C0
0380
FFC0
FFC0
1C00
3800
7000
6000
6000
C000
FFC0
FFC0
ENDCHAR
STARTCHAR 01BC
ENCODING 444
SWIDTH 432 0
DWIDTH 12 0
BBX 11 18 1 0
BITMAP
FFC0
FFC0
6000
6000
6000
6C00
7F00
7380
E1C0
00C0
00C0
0060
00E0
00C0
40C0
61C0
7F80
1F00
ENDCHAR
STARTCHAR 01BD
ENCODING 445
SWIDTH 360 0
DWIDTH 10 0
BBX 8 12 1 0
BITMAP
FF
FF
60
7E
7F
63
03
01
63
63
7F
3E
ENDCHAR
STARTCHAR 01BE
ENCODING 446
SWIDTH 432 0
DWIDTH 12 0
BBX 11 16 1 0
BITMAP
0800
1800
1800
1800
FE00
FE00
1800
1800
1E00
0780
01C0
00E0
3860
18C0
1FC0
0F80
ENDCHAR
STARTCHAR 01BF
ENCODING 447
SWIDTH 432 0
DWIDTH 12 0
BBX 10 19 1 -6
BITMAP
0C00
FF00
F380
E1C0
C0C0
C0C0
C1C0
C180
C380
C700
CE00
D800
F000
E000
E000
C000
C000
C000
4000
ENDCHAR
STARTCHAR 01C0
ENCODING 448
SWIDTH 144 0
DWIDTH 4 0
BBX 2 24 1 -6
BITMAP
C0
C0
C0
C0
C0
C0
C0
C0
C0
C0
C0
C0
C0
C0
C0
C0
C0
C0
C0
C0
C0
C0
C0
40
ENDCHAR
STARTCHAR 01C1
ENCODING 449
SWIDTH 288 0
DWIDTH 8 0
BBX 6 24 1 -6
BITMAP
CC
CC
CC
CC
CC
CC
CC
CC
CC
CC
CC
CC
CC
CC
CC
CC
CC
CC
CC
CC
CC
CC
CC
44
ENDCHAR
STARTCHAR 01C2
ENCODING 450
SWIDTH 432 0
DWIDTH 12 0
BBX 10 18 1 0
BITMAP
0C00
0C00
0C00
0C00
0C00
0C00
FFC0
FFC0
0C00
0C00
FFC0
FFC0
FFC0
0C00
0C00
0C00
0C00
0C00
ENDCHAR
STARTCHAR 01C3
ENCODING 451
SWIDTH 144 0
DWIDTH 4 0
BBX 3 18 1 0
BITMAP
C0
C0
C0
C0
C0
C0
C0
C0
C0
C0
C0
C0
C0
00
00
40
E0
E0
ENDCHAR
STARTCHAR 01C4
ENCODING 452
SWIDTH 1152 0
DWIDTH 32 0
BBX 30 23 1 0
BITMAP
00000420
00000260
000003C0
000001C0
00000000
FFC03FFC
FFF03FFC
3078001C
301C0018
300C0038
300E0070
30060060
300600C0
300601C0
30060180
30060300
30060700
300E0E00
300C0C00
301C1C00
30383800
FFF03FFC
FFC03FFC
ENDCHAR
STARTCHAR 01C5
ENCODING 453
SWIDTH 1008 0
DWIDTH 28 0
BBX 26 18 1 0
BITMAP
FFC01000
FFF01880
30780D00
301C0700
300C0000
300E0000
30063FC0
30063FC0
300601C0
30060180
30060300
30060700
300E0E00
300C0C00
301C1C00
30383800
FFF03FC0
FFC03FC0
ENDCHAR
STARTCHAR 01C6
ENCODING 454
SWIDTH 864 0
DWIDTH 24 0
BBX 22 18 1 0
BITMAP
006100
006188
0060F0
0060F0
006000
066000
1FE3FC
39E3FC
60E01C
606038
E06030
C06070
C060E0
6060C0
60E180
70E380
3FE3FC
1F63FC
ENDCHAR
STARTCHAR 01C7
ENCODING 455
SWIDTH 864 0
DWIDTH 24 0
BBX 22 18 1 0
BITMAP
C0000C
C0000C
C0000C
C0000C
C0000C
C0000C
C0000C
C0000C
C0000C
C0000C
C0000C
C0000C
C0000C
C0000C
C0038C
C0018C
FFF1F8
FFF0F8
ENDCHAR
STARTCHAR 01C8
ENCODING 456
SWIDTH 684 0
DWIDTH 19 0
BBX 17 24 1 -6
BITMAP
C00000
C00380
C00380
C00100
C00000
C00000
C00180
C00180
C00180
C00180
C00180
C00180
C00180
C00180
C00180
C00180
FFF180
FFF180
000180
000180
000180
000B00
001F00
000C00
ENDCHAR
STARTCHAR 01C9
ENCODING 457
SWIDTH 432 0
DWIDTH 12 0
BBX 10 24 1 -6
BITMAP
C000
C180
C1C0
C000
C000
C000
C180
C180
C180
C180
C180
C180
C180
C180
C180
C180
F180
7180
0180
0180
0180
0B80
1F00
0C00
ENDCHAR
STARTCHAR 01CA
ENCODING 458
SWIDTH 972 0
DWIDTH 27 0
BBX 25 18 1 0
BITMAP
E00C0180
E00C0180
F00C0180
F80C0180
D80C0180
CC0C0180
CE0C0180
C70C0180
C30C0180
C18C0180
C1CC0180
C0CC0180
C06C0180
C07C0180
C03C6180
C01C7380
C01C3F00
C00C1E00
ENDCHAR
STARTCHAR 01CB
ENCODING 459
SWIDTH 792 0
DWIDTH 22 0
BBX 20 24 1 -6
BITMAP
E00C00
E00C70
F00C70
F80C20
D80C00
CC0C00
CE0C30
C70C30
C30C30
C18C30
C1CC30
C0CC30
C06C30
C07C30
C03C30
C01C30
C01C30
C00C30
000030
000030
000070
000260
0003E0
000180
ENDCHAR
STARTCHAR 01CC
ENCODING 460
SWIDTH 648 0
DWIDTH 18 0
BBX 17 23 1 -6
BITMAP
000300
000380
000000
000000
060000
DF8300
F9C300
F0E300
E06300
E06300
C06300
C06300
C06300
C06300
C06300
C06300
C06300
000300
000300
000300
001700
003E00
001800
ENDCHAR
STARTCHAR 01CD
ENCODING 461
SWIDTH 612 0
DWIDTH 17 0
BBX 14 23 2 0
BITMAP
0840
0C80
0780
0300
0000
0300
0780
0780
0780
0DC0
0CC0
0CC0
1860
1860
3FE0
3FF0
3030
7038
6018
6018
C01C
C00C
C00C
ENDCHAR
STARTCHAR 01CE
ENCODING 462
SWIDTH 396 0
DWIDTH 11 0
BBX 9 18 1 0
BITMAP
4100
2200
3600
1C00
0000
0C00
3F00
3F80
0180
0180
0980
3F80
7780
E180
C180
6380
7F80
3F80
ENDCHAR
STARTCHAR 01CF
ENCODING 463
SWIDTH 288 0
DWIDTH 8 0
BBX 6 23 1 0
BITMAP
84
4C
78
38
00
FC
FC
30
30
30
30
30
30
30
30
30
30
30
30
30
30
FC
FC
ENDCHAR
STARTCHAR 01D0
ENCODING 464
SWIDTH 144 0
DWIDTH 4 0
BBX 7 18 -1 0
BITMAP
82
44
6C
38
00
00
30
30
30
30
30
30
30
30
30
30
30
30
ENDCHAR
STARTCHAR 01D1
ENCODING 465
SWIDTH 612 0
DWIDTH 17 0
BBX 15 23 1 0
BITMAP
0420
0640
03C0
0380
0000
07E0
1FF0
1C38
301C
700C
6006
6006
E006
C006
C006
C006
6006
6006
700C
301C
3838
1FF0
07E0
ENDCHAR
STARTCHAR 01D2
ENCODING 466
SWIDTH 468 0
DWIDTH 13 0
BBX 11 18 1 0
BITMAP
0080
1100
0B00
0E00
0000
0600
1F80
39C0
60C0
6060
E060
C060
C060
6060
60E0
70C0
3F80
1F00
ENDCHAR
STARTCHAR 01D3
ENCODING 467
SWIDTH 576 0
DWIDTH 16 0
BBX 14 23 1 0
BITMAP
0840
04C0
0780
0380
0000
C00C
C00C
C00C
C00C
C00C
C00C
C00C
C00C
C00C
C00C
C00C
C00C
C00C
601C
6018
3838
1FF0
0FC0
ENDCHAR
STARTCHAR 01D4
ENCODING 468
SWIDTH 468 0
DWIDTH 13 0
BBX 11 18 1 0
BITMAP
0080
1100
0B00
0E00
0000
0000
C060
C060
C060
C060
C060
C060
C060
E060
60E0
61E0
3FE0
1F60
ENDCHAR
STARTCHAR 01D5
ENCODING 469
SWIDTH 576 0
DWIDTH 16 0
BBX 14 23 1 0
BITMAP
0FE0
0FE0
0CE0
1CE0
0CE0
C00C
C00C
C00C
C00C
C00C
C00C
C00C
C00C
C00C
C00C
C00C
C00C
C00C
601C
6018
3838
1FF0
0FC0
ENDCHAR
STARTCHAR 01D6
ENCODING 470
SWIDTH 468 0
DWIDTH 13 0
BBX 11 21 1 0
BITMAP
3F80
3F80
0000
0000
3980
39C0
1000
0000
0000
C060
C060
C060
C060
C060
C060
C060
E060
60E0
61E0
3FE0
1F60
ENDCHAR
STARTCHAR 01D7
ENCODING 471
SWIDTH 576 0
DWIDTH 16 0
BBX 14 23 1 0
BITMAP
00C0
0180
05C0
0EC0
0440
C00C
C00C
C00C
C00C
C00C
C00C
C00C
C00C
C00C
C00C
C00C
C00C
C00C
601C
6018
3838
1FF0
0FC0
ENDCHAR
STARTCHAR 01D8
ENCODING 472
SWIDTH 468 0
DWIDTH 13 0
BBX 11 22 1 0
BITMAP
0300
0600
0400
0800
0000
3980
39C0
1000
0000
0000
C060
C060
C060
C060
C060
C060
C060
E060
60E0
61E0
3FE0
1F60
ENDCHAR
STARTCHAR 01D9
ENCODING 473
SWIDTH 576 0
DWIDTH 16 0
BBX 14 23 1 0
BITMAP
0480
0680
0300
0CC0
0CC0
C00C
C00C
C00C
C00C
C00C
C00C
C00C
C00C
C00C
C00C
C00C
C00C
C00C
601C
6018
3838
1FF0
0FC0
ENDCHAR
STARTCHAR 01DA
ENCODING 474
SWIDTH 468 0
DWIDTH 13 0
BBX 11 22 1 0
BITMAP
1080
1900
0F00
0E00
0000
3980
39C0
1000
0000
0000
C060
C060
C060
C060
C060
C060
C060
E060
60E0
61E0
3FE0
1F60
ENDCHAR
STARTCHAR 01DB
ENCODING 475
SWIDTH 576 0
DWIDTH 16 0
BBX 14 23 1 0
BITMAP
0C00
0200
05C0
0CC0
0080
C00C
C00C
C00C
C00C
C00C
C00C
C00C
C00C
C00C
C00C
C00C
C00C
C00C
601C
6018
3838
1FF0
0FC0
ENDCHAR
STARTCHAR 01DC
ENCODING 476
SWIDTH 468 0
DWIDTH 13 0
BBX 11 22 1 0
BITMAP
1C00
0400
0200
0000
0000
3980
39C0
1000
0000
0000
C060
C060
C060
C060
C060
C060
C060
E060
60E0
61E0
3FE0
1F60
ENDCHAR
STARTCHAR 01DD
ENCODING 477
SWIDTH 468 0
DWIDTH 13 0
BBX 11 13 1 0
BITMAP
0600
1F80
39C0
60C0
2060
0060
FFE0
FFE0
6060
60E0
70C0
3F80
1F00
ENDCHAR
STARTCHAR 01DE
ENCODING 478
SWIDTH 612 0
DWIDTH 17 0
BBX 14 23 2 0
BITMAP
0FC0
0FC0
0CC0
1CE0
0CC0
0300
0780
0780
0780
0DC0
0CC0
0CC0
1860
1860
3FE0
3FF0
3030
7038
6018
6018
C01C
C00C
C00C
ENDCHAR
STARTCHAR 01DF
ENCODING 479
SWIDTH 396 0
DWIDTH 11 0
BBX 9 21 1 0
BITMAP
7F00
7F00
0000
0000
7300
7700
2000
0000
0C00
3F00
3F80
0180
0180
0980
3F80
7780
E180
C180
6380
7F80
3F80
ENDCHAR
STARTCHAR 01E0
ENCODING 480
SWIDTH 612 0
DWIDTH 17 0
BBX 14 23 2 0
BITMAP
0FC0
0FC0
0300
0300
0000
0300
0780
0780
0780
0DC0
0CC0
0CC0
1860
1860
3FE0
3FF0
3030
7038
6018
6018
C01C
C00C
C00C
ENDCHAR
STARTCHAR 01E1
ENCODING 481
SWIDTH 396 0
DWIDTH 11 0
BBX 9 21 1 0
BITMAP
7F00
7F00
0000
0000
1C00
1C00
0800
0000
0C00
3F00
3F80
0180
0180
0980
3F80
7780
E180
C180
6380
7F80
3F80
ENDCHAR
STARTCHAR 01E2
ENCODING 482
SWIDTH 720 0
DWIDTH 20 0
BBX 17 22 2 0
BITMAP
01FC00
01FC00
000000
000000
03FF80
07FF80
06C000
06C000
0CC000
0CC000
0CC000
18C000
1FFE00
3FFE00
30C000
30C000
70C000
60C000
60C000
C0C000
C0FF80
C0FF80
ENDCHAR
STARTCHAR 01E3
ENCODING 483
SWIDTH 720 0
DWIDTH 20 0
BBX 18 17 1 0
BITMAP
03F000
03F000
000000
000000
0C1800
3F7E00
3FE700
01C180
018180
09FFC0
3FFFC0
778000
E18000
C1C100
63C380
7F7F00
3E3E00
ENDCHAR
STARTCHAR 01E4
ENCODING 484
SWIDTH 648 0
DWIDTH 18 0
BBX 16 18 1 0
BITMAP
07E0
1FF0
1C38
301C
7008
6000
6000
E000
C1FC
C1FC
C1FC
600C
603F
703F
301C
3838
1FF0
07E0
ENDCHAR
STARTCHAR 01E5
ENCODING 485
SWIDTH 504 0
DWIDTH 14 0
BBX 14 19 0 -6
BITMAP
0788
1FFC
3CF8
3030
6030
6030
3030
3CE0
3FE0
3700
3000
3F00
0FE0
0070
FFFC
FFFC
3CF0
1FE0
0700
ENDCHAR
STARTCHAR 01E6
ENCODING 486
SWIDTH 576 0
DWIDTH 16 0
BBX 14 23 1 0
BITMAP
0840
04C0
0780
0380
0000
07E0
1FF0
1C38
301C
7008
6000
6000
E000
C1FC
C1FC
C1FC
600C
600C
700C
301C
3838
1FF0
07E0
ENDCHAR
STARTCHAR 01E7
ENCODING 487
SWIDTH 504 0
DWIDTH 14 0
BBX 13 24 1 -6
BITMAP
2080
1100
0B00
0E00
0000
0F10
3FF8
79F0
6060
C060
C060
6060
79C0
7FC0
6E00
6000
7F00
1FC0
00E0
0060
E060
71E0
3FC0
0E00
ENDCHAR
STARTCHAR 01E8
ENCODING 488
SWIDTH 540 0
DWIDTH 15 0
BBX 12 23 1 0
BITMAP
08C0
0D80
0700
0700
0000
C060
C0C0
C1C0
C380
C300
C700
CE00
CC00
DC00
FE00
F600
E300
E380
C1C0
C0C0
C0E0
C070
C030
ENDCHAR
STARTCHAR 01E9
ENCODING 489
SWIDTH 432 0
DWIDTH 12 0
BBX 10 23 1 0
BITMAP
2100
1300
1E00
0E00
0000
C000
C000
C000
C000
C000
C000
C700
C600
CC00
DC00
D800
F800
FC00
EE00
C600
C300
C380
C1C0
ENDCHAR
STARTCHAR 01EA
ENCODING 490
SWIDTH 612 0
DWIDTH 17 0
BBX 15 23 1 -5
BITMAP
07E0
1FF0
1C38
301C
700C
6006
6006
E006
C006
C006
C006
6006
6006
700C
301C
3838
1FF0
07E0
0100
0100
0180
01E8
00F0
ENDCHAR
STARTCHAR 01EB
ENCODING 491
SWIDTH 468 0
DWIDTH 13 0
BBX 11 18 1 -5
BITMAP
0600
1F80
39C0
60C0
6060
E060
C060
C060
6060
60E0
70C0
3FC0
1F00
0400
0400
0600
0720
03C0
ENDCHAR
STARTCHAR 01EC
ENCODING 492
SWIDTH 612 0
DWIDTH 17 0
BBX 15 27 1 -5
BITMAP
0FE0
0FE0
0000
0000
07E0
1FF0
1C38
301C
700C
6006
6006
E006
C006
C006
C006
6006
6006
700C
301C
3838
1FF0
07E0
0100
0100
0180
01E8
00F0
ENDCHAR
STARTCHAR 01ED
ENCODING 493
SWIDTH 468 0
DWIDTH 13 0
BBX 11 22 1 -5
BITMAP
3F80
3F80
0000
0000
0600
1F80
39C0
60C0
6060
E060
C060
C060
6060
60E0
70C0
3FC0
1F00
0400
0400
0600
0720
03C0
ENDCHAR
STARTCHAR 01EE
ENCODING 494
SWIDTH 504 0
DWIDTH 14 0
BBX 13 23 1 0
BITMAP
1080
0D80
0F00
0700
0000
FFF8
FFF8
0030
0070
00E0
00C0
01C0
03C0
03E0
0070
0030
0030
0018
E030
6030
7070
3FE0
1F80
ENDCHAR
STARTCHAR 01EF
ENCODING 495
SWIDTH 432 0
DWIDTH 12 0
BBX 10 24 1 -6
BITMAP
2000
3100
1A00
0E00
0000
0000
FFC0
FFC0
0180
0380
0700
0600
0E00
0F00
0180
01C0
00C0
00C0
00C0
01C0
0180
7780
7F00
1800
ENDCHAR
STARTCHAR 01F0
ENCODING 496
SWIDTH 144 0
DWIDTH 4 0
BBX 9 24 -3 -6
BITMAP
2080
1100
1B00
0E00
0000
0000
0C00
0C00
0C00
0C00
0C00
0C00
0C00
0C00
0C00
0C00
0C00
0C00
0C00
0C00
0C00
5C00
F800
7000
ENDCHAR
STARTCHAR 01F1
ENCODING 497
SWIDTH 1152 0
DWIDTH 32 0
BBX 30 18 1 0
BITMAP
FFC03FFC
FFF03FFC
3078001C
301C0018
300C0038
300E0070
30060060
300600C0
300601C0
30060180
30060300
30060700
300E0E00
300C0C00
301C1C00
30383800
FFF03FFC
FFC03FFC
ENDCHAR
STARTCHAR 01F2
ENCODING 498
SWIDTH 1008 0
DWIDTH 28 0
BBX 26 18 1 0
BITMAP
FFC00000
FFF00000
30780000
301C0000
300C0000
300E0000
30063FC0
30063FC0
300601C0
30060180
30060300
30060700
300E0E00
300C0C00
301C1C00
30383800
FFF03FC0
FFC03FC0
ENDCHAR
STARTCHAR 01F3
ENCODING 499
SWIDTH 864 0
DWIDTH 24 0
BBX 22 18 1 0
BITMAP
006000
006000
006000
006000
006000
066000
1FE3FC
39E3FC
60E01C
606038
E06030
C06070
C060E0
6060C0
60E180
70E380
3FE3FC
1F63FC
ENDCHAR
STARTCHAR 01F4
ENCODING 500
SWIDTH 576 0
DWIDTH 16 0
BBX 14 23 1 0
BITMAP
01C0
0180
0300
0000
0000
07E0
1FF0
1C38
301C
7008
6000
6000
E000
C1FC
C1FC
C1FC
600C
600C
700C
301C
3838
1FF0
07E0
ENDCHAR
STARTCHAR 01F5
ENCODING 501
SWIDTH 504 0
DWIDTH 14 0
BBX 13 24 1 -6
BITMAP
0300
0600
0400
0800
0000
0F10
3FF8
79F0
6060
C060
C060
6060
79C0
7FC0
6E00
6000
7F00
1FC0
00E0
0060
E060
71E0
3FC0
0E00
ENDCHAR
STARTCHAR 01F6
ENCODING 502
SWIDTH 792 0
DWIDTH 22 0
BBX 21 18 1 0
BITMAP
C03000
C03000
C03000
C03000
C03000
C03000
C03018
C03018
FFF018
FFF018
C03018
C03018
C03018
C03030
C03030
C03870
C01FE0
C00FC0
ENDCHAR
STARTCHAR 01F7
ENCODING 503
SWIDTH 432 0
DWIDTH 12 0
BBX 10 23 1 -5
BITMAP
DF00
FF80
E180
E0C0
C0C0
C0C0
C1C0
C380
C300
CE00
DC00
F800
F000
E000
E000
C000
C000
C000
C000
C000
C000
C000
C000
ENDCHAR
STARTCHAR 01F8
ENCODING 504
SWIDTH 576 0
DWIDTH 16 0
BBX 14 23 1 0
BITMAP
0600
0300
0100
0080
0000
E00C
E00C
F00C
F80C
D80C
CC0C
CE0C
C70C
C30C
C18C
C1CC
C0CC
C06C
C07C
C03C
C01C
C01C
C00C
ENDCHAR
STARTCHAR 01F9
ENCODING 505
SWIDTH 468 0
DWIDTH 13 0
BBX 11 18 1 0
BITMAP
1800
0C00
0600
0200
0000
0600
DF80
F9C0
F0E0
E060
E060
C060
C060
C060
C060
C060
C060
C060
ENDCHAR
STARTCHAR 01FA
ENCODING 506
SWIDTH 612 0
DWIDTH 17 0
BBX 14 23 2 0
BITMAP
0180
0300
0200
0780
0580
0480
0780
0780
0780
0DC0
0CC0
0CC0
1860
1860
3FE0
3FF0
3030
7038
6018
6018
C01C
C00C
C00C
ENDCHAR
STARTCHAR 01FB
ENCODING 507
SWIDTH 396 0
DWIDTH 11 0
BBX 9 23 1 0
BITMAP
0300
0600
0400
0800
0000
1E00
1200
1200
1E00
0000
0C00
3F00
3F80
0180
0180
0980
3F80
7780
E180
C180
6380
7F80
3F80
ENDCHAR
STARTCHAR 01FC
ENCODING 508
SWIDTH 720 0
DWIDTH 20 0
BBX 17 23 2 0
BITMAP
003000
006000
004000
008000
000000
03FF80
07FF80
06C000
06C000
0CC000
0CC000
0CC000
18C000
1FFE00
3FFE00
30C000
30C000
70C000
60C000
60C000
C0C000
C0FF80
C0FF80
ENDCHAR
STARTCHAR 01FD
ENCODING 509
SWIDTH 720 0
DWIDTH 20 0
BBX 18 18 1 0
BITMAP
007000
006000
00C000
008000
000000
0C1800
3F7E00
3FE700
01C180
018180
09FFC0
3FFFC0
778000
E18000
C1C100
63C380
7F7F00
3E3E00
ENDCHAR
STARTCHAR 01FE
ENCODING 510
SWIDTH 612 0
DWIDTH 17 0
BBX 15 24 1 -1
BITMAP
00C0
0180
0100
0200
0006
07E6
1FFC
1C3C
303C
703C
6076
60E6
E0C6
C186
C386
C306
6606
6E06
7C0C
381C
3838
7FF0
67E0
4000
ENDCHAR
STARTCHAR 01FF
ENCODING 511
SWIDTH 468 0
DWIDTH 13 0
BBX 11 20 1 -2
BITMAP
0380
0300
0600
0800
0020
0660
1FE0
3BC0
61E0
63E0
E760
C660
CE60
7C60
78E0
70C0
7F80
7F00
C000
4000
ENDCHAR
STARTCHAR 0200
ENCODING 512
SWIDTH 612 0
DWIDTH 17 0
BBX 14 23 2 0
BITMAP
7700
1100
0880
0000
0000
0300
0780
0780
0780
0DC0
0CC0
0CC0
1860
1860
3FE0
3FF0
3030
7038
6018
6018
C01C
C00C
C00C
ENDCHAR
STARTCHAR 0201
ENCODING 513
SWIDTH 396 0
DWIDTH 11 0
BBX 9 18 1 0
BITMAP
CC00
6600
2200
1100
0000
0C00
3F00
3F80
0180
0180
0980
3F80
7780
E180
C180
6380
7F80
3F80
ENDCHAR
STARTCHAR 0202
ENCODING 514
SWIDTH 612 0
DWIDTH 17 0
BBX 14 23 2 0
BITMAP
0780
0CC0
1860
0000
0000
0300
0780
0780
0780
0DC0
0CC0
0CC0
1860
1860
3FE0
3FF0
3030
7038
6018
6018
C01C
C00C
C00C
ENDCHAR
STARTCHAR 0203
ENCODING 515
SWIDTH 396 0
DWIDTH 11 0
BBX 9 18 1 0
BITMAP
1C00
3F00
6300
4100
0000
0C00
3F00
3F80
0180
0180
0980
3F80
7780
E180
C180
6380
7F80
3F80
ENDCHAR
STARTCHAR 0204
ENCODING 516
SWIDTH 504 0
DWIDTH 14 0
BBX 12 23 1 0
BITMAP
6600
3300
1100
0880
0000
FFF0
FFF0
C000
C000
C000
C000
C000
C000
FFC0
FFC0
C000
C000
C000
C000
C000
C000
FFF0
FFF0
ENDCHAR
STARTCHAR 0205
ENCODING 517
SWIDTH 468 0
DWIDTH 13 0
BBX 11 18 1 0
BITMAP
3300
1980
0880
0440
0000
0600
1F80
39C0
60C0
6060
FFE0
FFE0
C000
6000
60C0
70C0
3FC0
1F00
ENDCHAR
STARTCHAR 0206
ENCODING 518
SWIDTH 504 0
DWIDTH 14 0
BBX 12 23 1 0
BITMAP
0F00
1980
30C0
0000
0000
FFF0
FFF0
C000
C000
C000
C000
C000
C000
FFC0
FFC0
C000
C000
C000
C000
C000
C000
FFF0
FFF0
ENDCHAR
STARTCHAR 0207
ENCODING 519
SWIDTH 468 0
DWIDTH 13 0
BBX 11 18 1 0
BITMAP
0E00
1F80
3080
30C0
0000
0600
1F80
39C0
60C0
6060
FFE0
FFE0
C000
6000
60C0
70C0
3FC0
1F00
ENDCHAR
STARTCHAR 0208
ENCODING 520
SWIDTH 288 0
DWIDTH 8 0
BBX 8 23 -1 0
BITMAP
EE
22
11
00
00
3F
3F
0C
0C
0C
0C
0C
0C
0C
0C
0C
0C
0C
0C
0C
0C
3F
3F
ENDCHAR
STARTCHAR 0209
ENCODING 521
SWIDTH 144 0
DWIDTH 4 0
BBX 8 18 -3 0
BITMAP
CE
66
23
11
00
00
0C
0C
0C
0C
0C
0C
0C
0C
0C
0C
0C
0C
ENDCHAR
STARTCHAR 020A
ENCODING 522
SWIDTH 288 0
DWIDTH 8 0
BBX 7 23 1 0
BITMAP
7C
CE
86
00
00
FC
FC
30
30
30
30
30
30
30
30
30
30
30
30
30
30
FC
FC
ENDCHAR
STARTCHAR 020B
ENCODING 523
SWIDTH 144 0
DWIDTH 4 0
BBX 7 18 -1 0
BITMAP
38
FC
C6
82
00
00
30
30
30
30
30
30
30
30
30
30
30
30
ENDCHAR
STARTCHAR 020C
ENCODING 524
SWIDTH 612 0
DWIDTH 17 0
BBX 15 23 1 0
BITMAP
3B80
0880
0440
0000
0000
07E0
1FF0
1C38
301C
700C
6006
6006
E006
C006
C006
C006
6006
6006
700C
301C
3838
1FF0
07E0
ENDCHAR
STARTCHAR 020D
ENCODING 525
SWIDTH 468 0
DWIDTH 13 0
BBX 11 18 1 0
BITMAP
6600
3300
1100
0880
0000
0600
1F80
39C0
60C0
6060
E060
C060
C060
6060
60E0
70C0
3F80
1F00
ENDCHAR
STARTCHAR 020E
ENCODING 526
SWIDTH 612 0
DWIDTH 17 0
BBX 15 23 1 0
BITMAP
07C0
0660
0C20
0000
0000
07E0
1FF0
1C38
301C
700C
6006
6006
E006
C006
C006
C006
6006
6006
700C
301C
3838
1FF0
07E0
ENDCHAR
STARTCHAR 020F
ENCODING 527
SWIDTH 468 0
DWIDTH 13 0
BBX 11 18 1 0
BITMAP
0E00
1F80
3080
30C0
0000
0600
1F80
39C0
60C0
6060
E060
C060
C060
6060
60E0
70C0
3F80
1F00
ENDCHAR
STARTCHAR 0210
ENCODING 528
SWIDTH 504 0
DWIDTH 14 0
BBX 12 23 1 0
BITMAP
EE00
6200
3100
0000
0000
FF00
FF80
C1C0
C0E0
C060
C060
C060
C0C0
FFC0
FF80
C300
C380
C180
C0C0
C0E0
C060
C070
C030
ENDCHAR
STARTCHAR 0211
ENCODING 529
SWIDTH 324 0
DWIDTH 9 0
BBX 9 18 -1 0
BITMAP
EE00
6600
3300
1100
0000
0380
3780
3E00
3C00
3800
3800
3000
3000
3000
3000
3000
3000
3000
ENDCHAR
STARTCHAR 0212
ENCODING 530
SWIDTH 504 0
DWIDTH 14 0
BBX 12 23 1 0
BITMAP
1E00
3300
6180
0000
0000
FF00
FF80
C1C0
C0E0
C060
C060
C060
C0C0
FFC0
FF80
C300
C380
C180
C0C0
C0E0
C060
C070
C030
ENDCHAR
STARTCHAR 0213
ENCODING 531
SWIDTH 324 0
DWIDTH 9 0
BBX 8 18 1 0
BITMAP
38
7E
C6
C3
00
0E
DE
F8
F0
E0
E0
C0
C0
C0
C0
C0
C0
C0
ENDCHAR
STARTCHAR 0214
ENCODING 532
SWIDTH 576 0
DWIDTH 16 0
BBX 14 23 1 0
BITMAP
3B80
0880
0440
0000
0000
C00C
C00C
C00C
C00C
C00C
C00C
C00C
C00C
C00C
C00C
C00C
C00C
C00C
601C
6018
3838
1FF0
0FC0
ENDCHAR
STARTCHAR 0215
ENCODING 533
SWIDTH 468 0
DWIDTH 13 0
BBX 11 18 1 0
BITMAP
6600
3300
1100
0880
0000
0000
C060
C060
C060
C060
C060
C060
C060
E060
60E0
61E0
3FE0
1F60
ENDCHAR
STARTCHAR 0216
ENCODING 534
SWIDTH 576 0
DWIDTH 16 0
BBX 14 23 1 0
BITMAP
07C0
0CC0
1860
0000
0000
C00C
C00C
C00C
C00C
C00C
C00C
C00C
C00C
C00C
C00C
C00C
C00C
C00C
601C
6018
3838
1FF0
0FC0
ENDCHAR
STARTCHAR 0217
ENCODING 535
SWIDTH 468 0
DWIDTH 13 0
BBX 11 18 1 0
BITMAP
0E00
1F80
3080
30C0
0000
0000
C060
C060
C060
C060
C060
C060
C060
E060
60E0
61E0
3FE0
1F60
ENDCHAR
STARTCHAR 0218
ENCODING 536
SWIDTH 468 0
DWIDTH 13 0
BBX 11 27 1 -9
BITMAP
1F00
3F80
71C0
60C0
60E0
6000
7000
3C00
1F00
0780
01C0
00E0
0060
C060
6060
70E0
3FC0
1F80
0000
0400
0E00
0F00
0100
0100
0200
0400
0800
ENDCHAR
STARTCHAR 0219
ENCODING 537
SWIDTH 360 0
DWIDTH 10 0
BBX 8 22 1 -9
BITMAP
1C
3E
77
63
60
78
1E
07
03
C3
63
7F
3E
00
08
1C
1C
04
04
04
08
30
ENDCHAR
STARTCHAR 021A
ENCODING 538
SWIDTH 504 0
DWIDTH 14 0
BBX 12 27 1 -9
BITMAP
FFF0
FFF0
0600
0600
0600
0600
0600
0600
0600
0600
0600
0600
0600
0600
0600
0600
0600
0600
0000
0400
0F00
0F00
0100
0100
0200
0400
0800
ENDCHAR
STARTCHAR 021B
ENCODING 539
SWIDTH 324 0
DWIDTH 9 0
BBX 7 25 1 -9
BITMAP
08
18
18
18
FE
FE
18
18
18
18
18
18
18
18
1E
1E
00
10
38
3C
04
04
08
10
20
ENDCHAR
STARTCHAR 021C
ENCODING 540
SWIDTH 468 0
DWIDTH 13 0
BBX 11 18 1 0
BITMAP
1F00
7FC0
E0C0
0060
0060
0060
00E0
00C0
03C0
7FC0
7C60
0060
0060
0060
00C0
0380
7F00
7C00
ENDCHAR
STARTCHAR 021D
ENCODING 541
SWIDTH 468 0
DWIDTH 13 0
BBX 10 19 2 -6
BITMAP
1C00
7F00
E380
C1C0
00C0
00C0
00C0
01C0
0380
3F80
FDC0
C0C0
00C0
00C0
01C0
0380
3F00
FC00
C000
ENDCHAR
STARTCHAR 021E
ENCODING 542
SWIDTH 504 0
DWIDTH 14 0
BBX 12 23 1 0
BITMAP
1080
0980
0F00
0700
0000
C030
C030
C030
C030
C030
C030
C030
C030
FFF0
FFF0
C030
C030
C030
C030
C030
C030
C030
C030
ENDCHAR
STARTCHAR 021F
ENCODING 543
SWIDTH 468 0
DWIDTH 13 0
BBX 11 23 1 0
BITMAP
1080
1900
0F00
0E00
0000
C000
C000
C000
C000
C000
C600
DF80
F9C0
F0E0
E060
E060
C060
C060
C060
C060
C060
C060
C060
ENDCHAR
STARTCHAR 0220
ENCODING 544
SWIDTH 576 0
DWIDTH 16 0
BBX 14 23 1 -5
BITMAP
CFC0
DFF0
F878
F018
E01C
E00C
C00C
C00C
C00C
C00C
C00C
C00C
C00C
C00C
C00C
C00C
C00C
C00C
000C
000C
000C
000C
000C
ENDCHAR
STARTCHAR 0221
ENCODING 545
SWIDTH 684 0
DWIDTH 19 0
BBX 17 24 1 -6
BITMAP
006000
006000
006000
006000
006000
066000
1FE000
39E000
60E000
606000
E06000
C06000
C06080
606380
60E280
70E580
3FF700
1F3E00
000400
000400
000400
00C800
004800
003000
ENDCHAR
STARTCHAR 0222
ENCODING 546
SWIDTH 468 0
DWIDTH 13 0
BBX 11 18 1 0
BITMAP
C060
C060
6060
60E0
70C0
3FC0
1F80
39C0
60C0
6060
E060
C060
C060
6060
60E0
70C0
3F80
1F00
ENDCHAR
STARTCHAR 0223
ENCODING 547
SWIDTH 432 0
DWIDTH 12 0
BBX 10 18 1 0
BITMAP
6180
E0C0
C0C0
C0C0
60C0
6180
7B80
3F00
3F80
6180
61C0
C0C0
C0C0
C0C0
61C0
7180
3F80
1F00
ENDCHAR
STARTCHAR 0224
ENCODING 548
SWIDTH 504 0
DWIDTH 14 0
BBX 13 24 1 -6
BITMAP
FFF8
FFF8
0030
0070
00E0
00C0
01C0
0380
0300
0600
0E00
1C00
1800
3800
7000
6000
FFF8
FFF8
0018
0018
0038
0170
03F0
01C0
ENDCHAR
STARTCHAR 0225
ENCODING 549
SWIDTH 396 0
DWIDTH 11 0
BBX 9 18 1 -6
BITMAP
FF80
FF80
0300
0600
0E00
1C00
1800
3800
7000
6000
FF80
FF80
0180
0180
0180
0B00
1F00
0C00
ENDCHAR
STARTCHAR 0226
ENCODING 550
SWIDTH 612 0
DWIDTH 17 0
BBX 14 23 2 0
BITMAP
0300
0700
0300
0000
0000
0300
0780
0780
0780
0DC0
0CC0
0CC0
1860
1860
3FE0
3FF0
3030
7038
6018
6018
C01C
C00C
C00C
ENDCHAR
STARTCHAR 0227
ENCODING 551
SWIDTH 396 0
DWIDTH 11 0
BBX 9 17 1 0
BITMAP
1C00
1C00
0800
0000
0C00
3F00
3F80
0180
0180
0980
3F80
7780
E180
C180
6380
7F80
3F80
ENDCHAR
STARTCHAR 0228
ENCODING 552
SWIDTH 504 0
DWIDTH 14 0
BBX 12 24 1 -6
BITMAP
FFF0
FFF0
C000
C000
C000
C000
C000
C000
FFC0
FFC0
C000
C000
C000
C000
C000
C000
FFF0
FFF0
0600
0700
0180
0080
0F80
0E00
ENDCHAR
STARTCHAR 0229
ENCODING 553
SWIDTH 468 0
DWIDTH 13 0
BBX 11 19 1 -6
BITMAP
0600
1F80
39C0
60C0
6060
FFE0
FFE0
C000
6000
60C0
70C0
3FC0
1F00
0400
0700
0180
0180
1F00
0E00
ENDCHAR
STARTCHAR 022A
ENCODING 554
SWIDTH 612 0
DWIDTH 17 0
BBX 15 23 1 0
BITMAP
0FE0
0FE0
0E60
0E70
0E60
07E0
1FF0
1C38
301C
700C
6006
6006
E006
C006
C006
C006
6006
6006
700C
301C
3838
1FF0
07E0
ENDCHAR
STARTCHAR 022B
ENCODING 555
SWIDTH 468 0
DWIDTH 13 0
BBX 11 21 1 0
BITMAP
3F80
3F80
0000
0000
3980
39C0
1000
0000
0600
1F80
39C0
60C0
6060
E060
C060
C060
6060
60E0
70C0
3F80
1F00
ENDCHAR
STARTCHAR 022C
ENCODING 556
SWIDTH 612 0
DWIDTH 17 0
BBX 15 23 1 0
BITMAP
0FE0
0FF8
0F10
19F0
1060
07E0
1FF0
1C38
301C
700C
6006
6006
E006
C006
C006
C006
6006
6006
700C
301C
3838
1FF0
07E0
ENDCHAR
STARTCHAR 022D
ENCODING 557
SWIDTH 468 0
DWIDTH 13 0
BBX 11 21 1 0
BITMAP
3F80
3F80
0000
1000
3C40
67C0
4180
0000
0600
1F80
39C0
60C0
6060
E060
C060
C060
6060
60E0
70C0
3F80
1F00
ENDCHAR
STARTCHAR 022E
ENCODING 558
SWIDTH 612 0
DWIDTH 17 0
BBX 15 23 1 0
BITMAP
0100
0380
0180
0000
0000
07E0
1FF0
1C38
301C
700C
6006
6006
E006
C006
C006
C006
6006
6006
700C
301C
3838
1FF0
07E0
ENDCHAR
STARTCHAR 022F
ENCODING 559
SWIDTH 468 0
DWIDTH 13 0
BBX 11 17 1 0
BITMAP
0E00
0E00
0400
0000
0600
1F80
39C0
60C0
6060
E060
C060
C060
6060
60E0
70C0
3F80
1F00
ENDCHAR
STARTCHAR 0230
ENCODING 560
SWIDTH 612 0
DWIDTH 17 0
BBX 15 23 1 0
BITMAP
0FE0
0FE0
0380
0380
0000
07E0
1FF0
1C38
301C
700C
6006
6006
E006
C006
C006
C006
6006
6006
700C
301C
3838
1FF0
07E0
ENDCHAR
STARTCHAR 0231
ENCODING 561
SWIDTH 468 0
DWIDTH 13 0
BBX 11 21 1 0
BITMAP
3F80
3F80
0000
0000
0E00
0E00
0400
0000
0600
1F80
39C0
60C0
6060
E060
C060
C060
6060
60E0
70C0
3F80
1F00
ENDCHAR
STARTCHAR 0232
ENCODING 562
SWIDTH 612 0
DWIDTH 17 0
BBX 14 22 2 0
BITMAP
1FC0
1FC0
0000
0000
C00C
E018
7038
3070
3860
1CE0
0DC0
0780
0780
0300
0300
0300
0300
0300
0300
0300
0300
0300
ENDCHAR
STARTCHAR 0233
ENCODING 563
SWIDTH 468 0
DWIDTH 13 0
BBX 10 23 2 -6
BITMAP
3F00
3F00
0000
0000
0000
C0C0
C0C0
E1C0
6180
6180
3300
3300
3300
1E00
1E00
1E00
0C00
0C00
1C00
1800
3800
F000
C000
ENDCHAR
STARTCHAR 0234
ENCODING 564
SWIDTH 360 0
DWIDTH 10 0
BBX 8 24 1 -6
BITMAP
C0
C0
C0
C0
C0
C0
C0
C0
C0
C0
C0
C0
C1
C7
C5
C5
6E
7C
08
08
08
88
90
60
ENDCHAR
STARTCHAR 0235
ENCODING 565
SWIDTH 684 0
DWIDTH 19 0
BBX 17 19 1 -6
BITMAP
060000
DF8000
F9C000
F0E000
E06000
E06000
C06000
C06080
C06380
C06280
C06580
C07700
C03E00
000400
000400
000400
00C800
004800
003000
ENDCHAR
STARTCHAR 0236
ENCODING 566
SWIDTH 468 0
DWIDTH 13 0
BBX 11 20 1 -6
BITMAP
1800
1800
1800
FE00
FE00
1800
1800
1800
1800
1860
18A0
1920
1940
1D80
0F00
0100
0100
0200
3200
3400
ENDCHAR
STARTCHAR 0237
ENCODING 567
SWIDTH 144 0
DWIDTH 4 0
BBX 6 18 -3 -6
BITMAP
0C
0C
0C
0C
0C
0C
0C
0C
0C
0C
0C
0C
0C
0C
0C
5C
F8
70
ENDCHAR
STARTCHAR 0238
ENCODING 568
SWIDTH 792 0
DWIDTH 22 0
BBX 20 18 1 0
BITMAP
006000
006000
006000
006000
006000
066700
1FFFC0
39FDE0
60F060
607030
E06030
C06030
C06030
606030
60F070
70F8E0
3FFFC0
1F6F80
ENDCHAR
STARTCHAR 0239
ENCODING 569
SWIDTH 792 0
DWIDTH 22 0
BBX 20 19 1 -6
BITMAP
060700
1FFFC0
39FDE0
60F060
607030
E06030
C06030
C06030
606030
60F070
70F8E0
3FFFC0
1F6F80
006000
006000
006000
006000
006000
002000
ENDCHAR
STARTCHAR 023A
ENCODING 570
SWIDTH 612 0
DWIDTH 17 0
BBX 14 20 2 -1
BITMAP
000C
030C
079C
07B8
07B0
0DE0
0CE0
0DC0
19E0
1BE0
3FE0
3FF0
3C30
7C38
7818
7018
F01C
E00C
C00C
C000
ENDCHAR
STARTCHAR 023B
ENCODING 571
SWIDTH 576 0
DWIDTH 16 0
BBX 15 20 1 -1
BITMAP
0006
07E6
1FFC
1C3C
303C
7038
6070
60E0
C0C0
C180
C380
C300
6600
6E00
7C08
381C
3838
7FF0
67E0
4000
ENDCHAR
STARTCHAR 023C
ENCODING 572
SWIDTH 432 0
DWIDTH 12 0
BBX 11 16 1 -2
BITMAP
0020
0660
1FE0
3BC0
61C0
6380
E700
C600
CE00
7C00
78C0
70C0
7FC0
7F00
C000
4000
ENDCHAR
STARTCHAR 023D
ENCODING 573
SWIDTH 576 0
DWIDTH 16 0
BBX 14 18 1 0
BITMAP
3000
3000
3000
3000
3000
3000
3000
3000
FE00
FE00
3000
3000
3000
3000
3000
3000
3FFC
3FFC
ENDCHAR
STARTCHAR 023E
ENCODING 574
SWIDTH 504 0
DWIDTH 14 0
BBX 14 20 0 -1
BITMAP
000C
7FFC
7FFC
0338
0330
0370
03E0
03C0
0380
0380
0700
0700
0F00
1F00
1B00
3B00
7300
6300
C300
C000
ENDCHAR
STARTCHAR 023F
ENCODING 575
SWIDTH 360 0
DWIDTH 10 0
BBX 14 19 1 -6
BITMAP
1800
3E00
7700
6300
6000
7800
1E00
0700
0300
C300
6300
7F00
3E00
0700
0300
0180
0180
00FC
00F8
ENDCHAR
STARTCHAR 0240
ENCODING 576
SWIDTH 396 0
DWIDTH 11 0
BBX 13 18 1 -6
BITMAP
FF80
FF80
0300
0600
0E00
1C00
1800
3800
7000
6000
F800
FC00
0600
0700
0300
0390
01F8
00F0
ENDCHAR
STARTCHAR 0241
ENCODING 577
SWIDTH 468 0
DWIDTH 13 0
BBX 11 18 1 0
BITMAP
1F00
3F80
71C0
60E0
6060
C060
0060
0060
0060
00E0
01C0
0780
0700
0600
0600
0600
0600
0600
ENDCHAR
STARTCHAR 0242
ENCODING 578
SWIDTH 360 0
DWIDTH 10 0
BBX 8 13 1 0
BITMAP
18
7E
7F
C3
03
07
06
0C
1C
18
18
18
18
ENDCHAR
STARTCHAR 0243
ENCODING 579
SWIDTH 576 0
DWIDTH 16 0
BBX 14 18 1 0
BITMAP
3FC0
3FF0
3038
3018
3018
3018
3038
3FF0
3FF0
3078
3018
300C
FE0C
FE0C
3018
3038
3FF0
3FE0
ENDCHAR
STARTCHAR 0244
ENCODING 580
SWIDTH 648 0
DWIDTH 18 0
BBX 17 18 1 0
BITMAP
300600
300600
300600
300600
300600
300600
300600
300600
FFFF80
FFFF80
300600
300600
300600
300600
380E00
1C1C00
0FF800
07F000
ENDCHAR
STARTCHAR 0245
ENCODING 581
SWIDTH 612 0
DWIDTH 17 0
BBX 14 18 2 0
BITMAP
0300
0780
0780
0780
0DC0
0CC0
0CC0
1860
1860
3860
3030
3030
7038
6018
6018
C01C
C00C
C00C
ENDCHAR
STARTCHAR 0246
ENCODING 582
SWIDTH 504 0
DWIDTH 14 0
BBX 14 20 0 -1
BITMAP
000C
7FFC
7FFC
6038
6030
6060
60E0
60C0
6180
7FE0
7FE0
6600
6E00
7C00
7800
7000
7000
7FF8
FFF8
C000
ENDCHAR
STARTCHAR 0247
ENCODING 583
SWIDTH 468 0
DWIDTH 13 0
BBX 11 16 1 -2
BITMAP
0020
0660
1FE0
3BC0
61E0
63E0
FFE0
FFE0
CE00
7C00
78C0
70C0
7FC0
7F00
C000
4000
ENDCHAR
STARTCHAR 0248
ENCODING 584
SWIDTH 432 0
DWIDTH 12 0
BBX 10 18 1 0
BITMAP
0300
0300
0300
0300
0300
0300
0300
0300
1FC0
1FC0
0300
0300
0300
0300
C300
E300
7E00
3C00
ENDCHAR
STARTCHAR 0249
ENCODING 585
SWIDTH 324 0
DWIDTH 9 0
BBX 8 23 0 -6
BITMAP
0C
0C
00
00
00
0C
0C
0C
0C
0C
7F
7F
0C
0C
0C
0C
0C
0C
0C
0C
5C
F8
60
ENDCHAR
STARTCHAR 024A
ENCODING 586
SWIDTH 612 0
DWIDTH 17 0
BBX 19 24 1 -6
BITMAP
07E600
1FF600
1C3E00
301E00
700E00
600600
600600
E00600
C00600
C00600
C00600
600600
600600
700E00
301E00
383E00
1FF600
07E600
000600
000600
000600
000340
0003E0
0000C0
ENDCHAR
STARTCHAR 024B
ENCODING 587
SWIDTH 468 0
DWIDTH 13 0
BBX 15 19 1 -6
BITMAP
0600
1FE0
39E0
60E0
6060
E060
C060
C060
6060
60E0
70E0
3FE0
1F60
0060
0060
0060
0034
003E
000C
ENDCHAR
STARTCHAR 024C
ENCODING 588
SWIDTH 576 0
DWIDTH 16 0
BBX 14 18 1 0
BITMAP
3FC0
3FE0
3070
3038
3018
3018
3018
3038
FFF0
FFE0
30C0
30E0
3060
3030
3038
3018
301C
300C
ENDCHAR
STARTCHAR 024D
ENCODING 589
SWIDTH 396 0
DWIDTH 11 0
BBX 9 13 1 0
BITMAP
0180
3780
3E00
3C00
3800
3800
FE00
FE00
3000
3000
3000
3000
3000
ENDCHAR
STARTCHAR 024E
ENCODING 590
SWIDTH 612 0
DWIDTH 17 0
BBX 15 18 1 0
BITMAP
6006
700C
381C
FFFE
FFFE
0E70
06E0
03C0
03C0
0180
0180
0180
0180
0180
0180
0180
0180
0180
ENDCHAR
STARTCHAR 024F
ENCODING 591
SWIDTH 468 0
DWIDTH 13 0
BBX 12 18 1 -6
BITMAP
6060
6060
70E0
30C0
30C0
FFF0
FFF0
1980
0F00
0F00
0F00
0600
0600
0E00
0C00
1C00
7800
6000
ENDCHAR
STARTCHAR 0250
ENCODING 592
SWIDTH 396 0
DWIDTH 11 0
BBX 9 13 1 0
BITMAP
1C00
FF00
F300
E180
C180
C380
FF00
FE00
C000
C000
E200
7F00
3E00
ENDCHAR
STARTCHAR 0251
ENCODING 593
SWIDTH 468 0
DWIDTH 13 0
BBX 11 13 1 0
BITMAP
0600
1FE0
39E0
60E0
6060
E060
C060
C060
6060
60E0
70E0
3FE0
1F60
ENDCHAR
STARTCHAR 0252
ENCODING 594
SWIDTH 468 0
DWIDTH 13 0
BBX 11 13 1 0
BITMAP
0E00
DF80
F9C0
E0C0
E060
E060
C060
C060
E060
E0E0
F0C0
FF80
DF00
ENDCHAR
STARTCHAR 0253
ENCODING 595
SWIDTH 468 0
DWIDTH 13 0
BBX 11 18 1 0
BITMAP
3C00
7C00
E000
C000
C000
CE00
DF80
F9C0
E0C0
E060
E060
C060
C060
E060
E0E0
F0C0
FF80
DF00
ENDCHAR
STARTCHAR 0254
ENCODING 596
SWIDTH 432 0
DWIDTH 12 0
BBX 11 13 1 0
BITMAP
0C00
3F00
7380
E1C0
00C0
00C0
00E0
00E0
00C0
40C0
61C0
7F80
3F00
ENDCHAR
STARTCHAR 0255
ENCODING 597
SWIDTH 432 0
DWIDTH 12 0
BBX 11 19 1 -6
BITMAP
0600
1F80
39C0
60C0
6000
E000
C000
C020
60E0
6120
7140
3FC0
1F00
0100
0100
0100
3200
3200
1C00
ENDCHAR
STARTCHAR 0256
ENCODING 598
SWIDTH 468 0
DWIDTH 13 0
BBX 15 24 1 -6
BITMAP
0060
0060
0060
0060
0060
0660
1FE0
39E0
60E0
6060
E060
C060
C060
6060
60E0
70E0
3FE0
1F60
0060
0060
0060
0034
003E
000C
ENDCHAR
STARTCHAR 0257
ENCODING 599
SWIDTH 468 0
DWIDTH 13 0
BBX 15 18 1 0
BITMAP
001E
003E
0070
0060
0060
0660
1FE0
39E0
60E0
6060
E060
C060
C060
6060
60E0
70E0
3FE0
1F60
ENDCHAR
STARTCHAR 0258
ENCODING 600
SWIDTH 468 0
DWIDTH 13 0
BBX 11 13 1 0
BITMAP
0600
1F80
39C0
60C0
6060
FFE0
FFE0
0060
0060
20E0
70C0
3F80
1F00
ENDCHAR
STARTCHAR 0259
ENCODING 601
SWIDTH 468 0
DWIDTH 13 0
BBX 11 13 1 0
BITMAP
0600
1F80
39C0
60C0
2060
0060
FFE0
FFE0
6060
60E0
70C0
3F80
1F00
ENDCHAR
STARTCHAR 025A
ENCODING 602
SWIDTH 684 0
DWIDTH 19 0
BBX 17 13 1 0
BITMAP
060000
1F8000
39C000
60C000
206180
006980
FFF980
FFED80
606700
60E000
70C000
3FC000
1F0000
ENDCHAR
STARTCHAR 025B
ENCODING 603
SWIDTH 360 0
DWIDTH 10 0
BBX 8 13 1 0
BITMAP
1C
3E
77
63
60
78
78
60
E0
C3
63
7F
3E
ENDCHAR
STARTCHAR 025C
ENCODING 604
SWIDTH 360 0
DWIDTH 10 0
BBX 8 13 1 0
BITMAP
1C
3E
77
63
03
0E
0E
07
03
C3
63
7F
3E
ENDCHAR
STARTCHAR 025D
ENCODING 605
SWIDTH 540 0
DWIDTH 15 0
BBX 14 13 1 0
BITMAP
1C00
3E08
7708
63CC
0348
0E78
0E30
0700
0300
C300
6300
7F00
3E00
ENDCHAR
STARTCHAR 025E
ENCODING 606
SWIDTH 432 0
DWIDTH 12 0
BBX 10 13 1 0
BITMAP
0600
1F00
3B80
6180
6180
E780
C780
C180
60C0
60C0
71C0
3F80
1F00
ENDCHAR
STARTCHAR 025F
ENCODING 607
SWIDTH 324 0
DWIDTH 9 0
BBX 8 18 0 -6
BITMAP
0C
0C
0C
0C
0C
0C
0C
0C
0C
7F
7F
0C
0C
0C
0C
18
F8
60
ENDCHAR
STARTCHAR 0260
ENCODING 608
SWIDTH 468 0
DWIDTH 13 0
BBX 15 24 1 -6
BITMAP
001E
003E
0070
0060
0060
0660
1FE0
39E0
60E0
6060
E060
C060
C060
6060
60E0
70E0
3FE0
1F60
0060
0060
2060
79C0
3F80
0E00
ENDCHAR
STARTCHAR 0261
ENCODING 609
SWIDTH 468 0
DWIDTH 13 0
BBX 11 19 1 -6
BITMAP
0600
1FE0
39E0
60E0
6060
E060
C060
C060
6060
60E0
70E0
3FE0
1F60
0060
0060
2060
79C0
3F80
0E00
ENDCHAR
STARTCHAR 0262
ENCODING 610
SWIDTH 432 0
DWIDTH 12 0
BBX 11 13 1 0
BITMAP
0600
1F80
39C0
60C0
6000
E000
C3E0
C3E0
6060
60E0
70C0
3FC0
1F00
ENDCHAR
STARTCHAR 0263
ENCODING 611
SWIDTH 468 0
DWIDTH 13 0
BBX 10 18 2 -6
BITMAP
C0C0
C0C0
E1C0
6180
6180
3300
3300
3300
1E00
1E00
1E00
0C00
1E00
1E00
1E00
1E00
1E00
0C00
ENDCHAR
STARTCHAR 0264
ENCODING 612
SWIDTH 612 0
DWIDTH 17 0
BBX 14 13 2 0
BITMAP
7030
FCFC
DCCC
0F80
0780
0780
0700
0300
0780
0780
0F80
0780
0780
ENDCHAR
STARTCHAR 0265
ENCODING 613
SWIDTH 468 0
DWIDTH 13 0
BBX 11 18 1 -6
BITMAP
C060
C060
C060
C060
C060
C060
C060
E060
60E0
61E0
3FE0
1F60
0060
0060
0060
0060
0060
0020
ENDCHAR
STARTCHAR 0266
ENCODING 614
SWIDTH 468 0
DWIDTH 13 0
BBX 11 18 1 0
BITMAP
3C00
7C00
E000
C000
C000
C600
DF80
F9C0
F0E0
E060
E060
C060
C060
C060
C060
C060
C060
C060
ENDCHAR
STARTCHAR 0267
ENCODING 615
SWIDTH 468 0
DWIDTH 13 0
BBX 11 24 1 -6
BITMAP
3C00
7C00
E000
C000
C000
C600
DF80
F9C0
F0E0
E060
E060
C060
C060
C060
C060
C060
C060
C060
0060
0060
0060
02E0
07C0
0300
ENDCHAR
STARTCHAR 0268
ENCODING 616
SWIDTH 288 0
DWIDTH 8 0
BBX 6 17 1 0
BITMAP
38
38
10
00
00
30
30
30
30
30
FC
FC
30
30
30
30
30
ENDCHAR
STARTCHAR 0269
ENCODING 617
SWIDTH 216 0
DWIDTH 6 0
BBX 4 12 1 0
BITMAP
C0
C0
C0
C0
C0
C0
C0
C0
C0
C0
F0
70
ENDCHAR
STARTCHAR 026A
ENCODING 618
SWIDTH 288 0
DWIDTH 8 0
BBX 6 12 1 0
BITMAP
FC
FC
30
30
30
30
30
30
30
30
FC
FC
ENDCHAR
STARTCHAR 026B
ENCODING 619
SWIDTH 432 0
DWIDTH 12 0
BBX 10 18 1 0
BITMAP
0C00
0C00
0C00
0C00
0C00
0C00
0C00
2C40
7CC0
CF80
CF00
0C00
0C00
0C00
0C00
0C00
0F00
0700
ENDCHAR
STARTCHAR 026C
ENCODING 620
SWIDTH 432 0
DWIDTH 12 0
BBX 10 18 1 0
BITMAP
0600
0600
0600
0600
3E00
7E00
EE00
C6C0
E7C0
7780
7F00
1E00
0600
0600
0600
0600
0780
0780
ENDCHAR
STARTCHAR 026D
ENCODING 621
SWIDTH 144 0
DWIDTH 4 0
BBX 6 24 1 -6
BITMAP
C0
C0
C0
C0
C0
C0
C0
C0
C0
C0
C0
C0
C0
C0
C0
C0
C0
C0
C0
C0
C0
64
7C
18
ENDCHAR
STARTCHAR 026E
ENCODING 622
SWIDTH 468 0
DWIDTH 13 0
BBX 11 24 1 -6
BITMAP
C000
C000
C000
C000
C000
C000
FFE0
FFE0
C0E0
C1C0
C180
C300
C780
C3C0
C0C0
C060
C060
C060
0060
0060
00E0
3BC0
1F80
0E00
ENDCHAR
STARTCHAR 026F
ENCODING 623
SWIDTH 576 0
DWIDTH 16 0
BBX 15 12 1 0
BITMAP
C386
C386
C386
C386
C386
C386
C386
C38E
638E
679E
7FFE
3CF6
ENDCHAR
STARTCHAR 0270
ENCODING 624
SWIDTH 576 0
DWIDTH 16 0
BBX 15 18 1 -6
BITMAP
C386
C386
C386
C386
C386
C386
C386
C38E
638E
679E
7FFE
3CF6
0006
0006
0006
0006
0006
0002
ENDCHAR
STARTCHAR 0271
ENCODING 625
SWIDTH 576 0
DWIDTH 16 0
BBX 15 19 1 -6
BITMAP
0C30
FEF8
F7CC
E38C
E38C
C386
C386
C386
C386
C386
C386
C386
C386
0006
0006
000E
005C
007C
0030
ENDCHAR
STARTCHAR 0272
ENCODING 626
SWIDTH 468 0
DWIDTH 13 0
BBX 15 19 -3 -6
BITMAP
0060
0DF8
0F9C
0F0E
0E06
0E06
0C06
0C06
0C06
0C06
0C06
0C06
0C06
0C00
0C00
0C00
5C00
F800
7000
ENDCHAR
STARTCHAR 0273
ENCODING 627
SWIDTH 468 0
DWIDTH 13 0
BBX 15 19 1 -6
BITMAP
0600
DF80
F9C0
F0E0
E060
E060
C060
C060
C060
C060
C060
C060
C060
0060
0060
0060
0034
003E
000C
ENDCHAR
STARTCHAR 0274
ENCODING 628
SWIDTH 468 0
DWIDTH 13 0
BBX 11 12 1 0
BITMAP
E060
F060
F060
D860
DC60
CE60
C660
C360
C3E0
C1E0
C0E0
C0E0
ENDCHAR
STARTCHAR 0275
ENCODING 629
SWIDTH 468 0
DWIDTH 13 0
BBX 11 13 1 0
BITMAP
0600
1F80
39C0
60C0
6060
E060
FFE0
FFE0
6060
60E0
70C0
3F80
1F00
ENDCHAR
STARTCHAR 0276
ENCODING 630
SWIDTH 720 0
DWIDTH 20 0
BBX 18 13 1 0
BITMAP
060000
1FFFC0
39FFC0
60E000
606000
E06000
C07F00
C07F00
606000
60E000
70E000
3FFFC0
1F7FC0
ENDCHAR
STARTCHAR 0277
ENCODING 631
SWIDTH 576 0
DWIDTH 16 0
BBX 15 13 1 0
BITMAP
0FE0
3FF8
701C
600C
600C
C00E
C006
C386
E38C
638C
638C
3EF8
3C70
ENDCHAR
STARTCHAR 0278
ENCODING 632
SWIDTH 468 0
DWIDTH 13 0
BBX 11 24 1 -6
BITMAP
0600
0600
0600
0600
0600
0E00
1F80
3FC0
66C0
6660
E660
C660
C660
6660
66E0
76C0
3FC0
1F00
0600
0600
0600
0600
0600
0200
ENDCHAR
STARTCHAR 0279
ENCODING 633
SWIDTH 324 0
DWIDTH 9 0
BBX 6 12 2 0
BITMAP
0C
0C
0C
0C
0C
0C
0C
0C
1C
3C
FC
EC
ENDCHAR
STARTCHAR 027A
ENCODING 634
SWIDTH 324 0
DWIDTH 9 0
BBX 6 18 2 0
BITMAP
0C
0C
0C
0C
0C
0C
0C
0C
0C
0C
0C
0C
0C
0C
1C
3C
FC
EC
ENDCHAR
STARTCHAR 027B
ENCODING 635
SWIDTH 324 0
DWIDTH 9 0
BBX 10 18 2 -6
BITMAP
0C00
0C00
0C00
0C00
0C00
0C00
0C00
0C00
1C00
3C00
FC00
EC00
0C00
0C00
0C00
0E80
07C0
0180
ENDCHAR
STARTCHAR 027C
ENCODING 636
SWIDTH 324 0
DWIDTH 9 0
BBX 7 19 1 -6
BITMAP
0E
DE
F8
F0
E0
E0
C0
C0
C0
C0
C0
C0
C0
C0
C0
C0
C0
C0
40
ENDCHAR
STARTCHAR 027D
ENCODING 637
SWIDTH 324 0
DWIDTH 9 0
BBX 7 19 1 -6
BITMAP
0E
DE
F8
F0
E0
E0
C0
C0
C0
C0
C0
C0
C0
C0
C0
C0
64
7C
18
ENDCHAR
STARTCHAR 027E
ENCODING 638
SWIDTH 324 0
DWIDTH 9 0
BBX 6 13 1 0
BITMAP
1C
7C
60
C0
C0
C0
C0
C0
C0
C0
C0
C0
C0
ENDCHAR
STARTCHAR 027F
ENCODING 639
SWIDTH 324 0
DWIDTH 9 0
BBX 6 19 2 -6
BITMAP
E0
F8
18
0C
0C
0C
0C
0C
0C
0C
0C
0C
0C
0C
0C
0C
0C
0C
04
ENDCHAR
STARTCHAR 0280
ENCODING 640
SWIDTH 396 0
DWIDTH 11 0
BBX 9 12 1 0
BITMAP
FE00
FE00
C300
C300
C700
FE00
FC00
CE00
C600
C700
C300
C180
ENDCHAR
STARTCHAR 0281
ENCODING 641
SWIDTH 396 0
DWIDTH 11 0
BBX 9 12 1 0
BITMAP
C380
C300
C600
C600
FC00
FE00
CE00
C300
C300
C700
FE00
FC00
ENDCHAR
STARTCHAR 0282
ENCODING 642
SWIDTH 360 0
DWIDTH 10 0
BBX 8 19 1 -6
BITMAP
18
3E
77
63
60
78
1E
07
03
C3
E3
FF
FE
C0
C0
C0
64
7C
18
ENDCHAR
STARTCHAR 0283
ENCODING 643
SWIDTH 144 0
DWIDTH 4 0
BBX 10 24 -3 -6
BITMAP
03C0
07C0
0E00
0C00
0C00
0C00
0C00
0C00
0C00
0C00
0C00
0C00
0C00
0C00
0C00
0C00
0C00
0C00
0C00
0C00
0C00
5C00
F800
7000
ENDCHAR
STARTCHAR 0284
ENCODING 644
SWIDTH 144 0
DWIDTH 4 0
BBX 10 24 -3 -6
BITMAP
03C0
07C0
0E00
0C00
0C00
0C00
0C00
0C00
0C00
0C00
0C00
0C00
0C00
0C00
0C00
0C00
7F80
7F80
0C00
0C00
0C00
5C00
F800
7000
ENDCHAR
STARTCHAR 0285
ENCODING 645
SWIDTH 324 0
DWIDTH 9 0
BBX 10 19 2 -6
BITMAP
E000
F800
1800
0C00
0C00
0C00
0C00
0C00
0C00
0C00
0C00
0C00
0C00
0C00
0C00
0C00
0E80
07C0
0380
ENDCHAR
STARTCHAR 0286
ENCODING 646
SWIDTH 432 0
DWIDTH 12 0
BBX 10 24 1 -6
BITMAP
03C0
07C0
0C00
0C00
0C00
0C00
0C00
0C00
0C00
0C00
0C00
0C00
0C00
0C00
0C00
0C00
3E00
7F00
CF80
CD80
CD80
FC00
F800
3000
ENDCHAR
STARTCHAR 0287
ENCODING 647
SWIDTH 324 0
DWIDTH 9 0
BBX 7 15 1 -3
BITMAP
70
78
18
18
18
18
18
18
18
18
FE
FE
18
18
10
ENDCHAR
STARTCHAR 0288
ENCODING 648
SWIDTH 324 0
DWIDTH 9 0
BBX 9 21 1 -6
BITMAP
1800
1800
1800
FE00
FE00
1800
1800
1800
1800
1800
1800
1800
1800
1800
1800
1800
1800
1800
1D00
0F80
0700
ENDCHAR
STARTCHAR 0289
ENCODING 649
SWIDTH 612 0
DWIDTH 17 0
BBX 15 12 1 0
BITMAP
3018
3018
3018
3018
3018
FFFE
FFFE
1818
1838
1C78
0FF8
07D8
ENDCHAR
STARTCHAR 028A
ENCODING 650
SWIDTH 468 0
DWIDTH 13 0
BBX 11 12 1 0
BITMAP
F9E0
F9E0
60C0
6060
E060
C060
C060
6060
60E0
70C0
3F80
1F00
ENDCHAR
STARTCHAR 028B
ENCODING 651
SWIDTH 432 0
DWIDTH 12 0
BBX 9 13 2 0
BITMAP
0E00
CF00
C380
E180
6180
6180
3300
3300
3300
1E00
1E00
1E00
0C00
ENDCHAR
STARTCHAR 028C
ENCODING 652
SWIDTH 468 0
DWIDTH 13 0
BBX 10 12 2 0
BITMAP
0C00
1E00
1E00
3F00
3300
3300
7380
6180
6180
C0C0
C0C0
C0C0
ENDCHAR
STARTCHAR 028D
ENCODING 653
SWIDTH 648 0
DWIDTH 18 0
BBX 16 12 1 0
BITMAP
1C38
1C38
1E38
1E7C
366C
366C
336C
33C6
63C6
63C6
61C6
E183
ENDCHAR
STARTCHAR 028E
ENCODING 654
SWIDTH 468 0
DWIDTH 13 0
BBX 10 18 2 0
BITMAP
03C0
0780
0600
0600
0C00
0C00
0C00
1E00
1E00
3F00
3300
3300
7380
6180
6180
C0C0
C0C0
C0C0
ENDCHAR
STARTCHAR 028F
ENCODING 655
SWIDTH 468 0
DWIDTH 13 0
BBX 10 12 2 0
BITMAP
E1C0
6180
7380
3F00
1E00
0C00
0C00
0C00
0C00
0C00
0C00
0C00
ENDCHAR
STARTCHAR 0290
ENCODING 656
SWIDTH 396 0
DWIDTH 11 0
BBX 13 18 1 -6
BITMAP
FF80
FF80
0300
0600
0E00
1C00
1800
3800
7000
6000
FF80
FF80
0180
0180
0180
01D0
00F8
0070
ENDCHAR
STARTCHAR 0291
ENCODING 657
SWIDTH 432 0
DWIDTH 12 0
BBX 10 18 1 -6
BITMAP
FF80
FF80
0300
0600
0E00
1C00
18C0
3940
7240
6280
FF80
FE00
0200
0200
0400
6400
6400
1800
ENDCHAR
STARTCHAR 0292
ENCODING 658
SWIDTH 432 0
DWIDTH 12 0
BBX 10 18 1 -6
BITMAP
FFC0
FFC0
0180
0380
0700
0600
0E00
0F00
0180
01C0
00C0
00C0
00C0
01C0
0180
7780
7F00
1800
ENDCHAR
STARTCHAR 0293
ENCODING 659
SWIDTH 432 0
DWIDTH 12 0
BBX 11 23 0 -11
BITMAP
7FE0
7FE0
00C0
01C0
0380
0300
0700
0780
00C0
00E0
0060
8060
E060
A0E0
D0C0
7BC0
3F80
1C00
1000
1000
1180
0980
0700
ENDCHAR
STARTCHAR 0294
ENCODING 660
SWIDTH 432 0
DWIDTH 12 0
BBX 10 18 1 0
BITMAP
1F00
7F80
6180
E0C0
C0C0
00C0
01C0
0180
0380
0700
0E00
0C00
0C00
0C00
0C00
0C00
0C00
0C00
ENDCHAR
STARTCHAR 0295
ENCODING 661
SWIDTH 432 0
DWIDTH 12 0
BBX 10 18 1 0
BITMAP
1F00
7F80
6180
E0C0
C0C0
C000
6000
6000
3000
1800
1C00
0C00
0C00
0C00
0C00
0C00
0C00
0C00
ENDCHAR
STARTCHAR 0296
ENCODING 662
SWIDTH 432 0
DWIDTH 12 0
BBX 10 18 1 0
BITMAP
0C00
0C00
0C00
0C00
0C00
0C00
0C00
0E00
0700
0380
0180
01C0
00C0
C0C0
E0C0
6180
7F80
3F00
ENDCHAR
STARTCHAR 0297
ENCODING 663
SWIDTH 468 0
DWIDTH 13 0
BBX 10 19 1 -6
BITMAP
0E00
1F80
39C0
30C0
6000
6000
6000
E000
C000
C000
C000
E000
6000
6000
6000
30C0
3BC0
1F80
0600
ENDCHAR
STARTCHAR 0298
ENCODING 664
SWIDTH 468 0
DWIDTH 13 0
BBX 11 18 1 0
BITMAP
0F00
1F80
31C0
70C0
60C0
6060
6060
C060
CE60
CE60
C060
6060
6060
60E0
70C0
31C0
1F80
0F00
ENDCHAR
STARTCHAR 0299
ENCODING 665
SWIDTH 396 0
DWIDTH 11 0
BBX 9 12 1 0
BITMAP
FF00
FF00
C380
C380
FF00
FF00
C380
C180
C180
C380
FF00
FE00
ENDCHAR
STARTCHAR 029A
ENCODING 666
SWIDTH 432 0
DWIDTH 12 0
BBX 10 13 1 0
BITMAP
1C00
3F00
7780
6180
61C0
78C0
78C0
60C0
E0C0
C180
6380
7F00
3E00
ENDCHAR
STARTCHAR 029B
ENCODING 667
SWIDTH 432 0
DWIDTH 12 0
BBX 14 18 1 0
BITMAP
003C
007C
0060
0060
0060
0660
1FE0
39E0
60E0
6060
E000
C3E0
C3E0
6060
60E0
70C0
3FC0
1F00
ENDCHAR
STARTCHAR 029C
ENCODING 668
SWIDTH 432 0
DWIDTH 12 0
BBX 10 12 1 0
BITMAP
C0C0
C0C0
C0C0
C0C0
C0C0
FFC0
FFC0
C0C0
C0C0
C0C0
C0C0
C0C0
ENDCHAR
STARTCHAR 029D
ENCODING 669
SWIDTH 432 0
DWIDTH 12 0
BBX 10 23 1 -6
BITMAP
0E00
0E00
0400
0000
0000
0600
0600
0600
0600
0600
0600
0600
0600
0600
0600
3F00
7F80
6780
C6C0
CEC0
6C00
7C00
3000
ENDCHAR
STARTCHAR 029E
ENCODING 670
SWIDTH 432 0
DWIDTH 12 0
BBX 9 17 2 -5
BITMAP
E180
6180
7180
3980
1B80
0F80
0F80
0D80
1D80
3980
3180
7180
0180
0180
0180
0180
0180
ENDCHAR
STARTCHAR 029F
ENCODING 671
SWIDTH 360 0
DWIDTH 10 0
BBX 8 12 1 0
BITMAP
C0
C0
C0
C0
C0
C0
C0
C0
C0
C0
FF
FF
ENDCHAR
STARTCHAR 02A0
ENCODING 672
SWIDTH 468 0
DWIDTH 13 0
BBX 15 24 1 -6
BITMAP
001E
003E
0070
0060
0060
0660
1FE0
39E0
60E0
6060
E060
C060
C060
6060
60E0
70E0
3FE0
1F60
0060
0060
0060
0060
0060
0020
ENDCHAR
STARTCHAR 02A1
ENCODING 673
SWIDTH 432 0
DWIDTH 12 0
BBX 10 18 1 0
BITMAP
1F00
7F80
6180
E0C0
C0C0
00C0
01C0
0180
0380
0700
0E00
3F80
3F80
0C00
0C00
0C00
0C00
0C00
ENDCHAR
STARTCHAR 02A2
ENCODING 674
SWIDTH 432 0
DWIDTH 12 0
BBX 10 18 1 0
BITMAP
1F00
7F80
6180
E0C0
C0C0
C000
6000
6000
3000
1800
1C00
3F80
3F80
0C00
0C00
0C00
0C00
0C00
ENDCHAR
STARTCHAR 02A3
ENCODING 675
SWIDTH 756 0
DWIDTH 21 0
BBX 20 18 1 0
BITMAP
006000
006000
006000
006000
006000
066000
1FFFF0
39FFF0
60E0E0
6060C0
E061C0
C06380
C06300
606600
60EE00
70EC00
3FFFF0
1F7FF0
ENDCHAR
STARTCHAR 02A4
ENCODING 676
SWIDTH 756 0
DWIDTH 21 0
BBX 19 24 1 -6
BITMAP
006000
006000
006000
006000
006000
066000
1FFFE0
39FFE0
60E0E0
6061C0
E06180
C06380
C06780
6063C0
60E0E0
70E060
3FE060
1F6060
000060
000060
0010E0
0039C0
001F80
000E00
ENDCHAR
STARTCHAR 02A5
ENCODING 677
SWIDTH 828 0
DWIDTH 23 0
BBX 21 23 1 -6
BITMAP
006000
006000
006000
006000
006000
066000
1FFFF0
39FFF0
60E0E0
6060C0
E061C0
C06380
C06318
606628
60EE48
70EC50
3FFFE0
1F7FC0
000040
000040
000080
000C80
000D00
ENDCHAR
STARTCHAR 02A6
ENCODING 678
SWIDTH 612 0
DWIDTH 17 0
BBX 15 16 1 0
BITMAP
0800
1800
1800
1810
FEFC
FEFE
19C6
18C0
18F0
187C
180E
1806
1806
1806
1FFE
1FF8
ENDCHAR
STARTCHAR 02A7
ENCODING 679
SWIDTH 432 0
DWIDTH 12 0
BBX 14 24 1 -6
BITMAP
003C
007C
0860
18E0
18E0
18E0
FEE0
FEE0
18E0
18E0
18E0
18E0
18E0
18E0
18E0
18E0
1FE0
1FE0
00E0
00E0
00C0
05C0
0FC0
0300
ENDCHAR
STARTCHAR 02A8
ENCODING 680
SWIDTH 684 0
DWIDTH 19 0
BBX 18 22 1 -6
BITMAP
080000
180000
180000
181C00
FE7F00
FEF780
18C180
19C100
198000
198000
198040
198140
18C280
18E280
1FFF00
1FFE00
000200
000600
000400
006400
006800
003000
ENDCHAR
STARTCHAR 02A9
ENCODING 681
SWIDTH 720 0
DWIDTH 20 0
BBX 18 24 1 -6
BITMAP
0F8000
1F0000
180000
180000
180000
180C00
19BF00
FFF380
FFE180
19C0C0
1980C0
1980C0
1980C0
1980C0
1980C0
1980C0
1980C0
1980C0
0000C0
0000C0
0000C0
0005C0
000F80
000600
ENDCHAR
STARTCHAR 02AA
ENCODING 682
SWIDTH 468 0
DWIDTH 13 0
BBX 11 18 1 0
BITMAP
C000
C000
C000
C000
C000
C300
CFC0
CFE0
D860
DC00
CF00
C7C0
C0E0
C060
C060
C060
FFC0
7F80
ENDCHAR
STARTCHAR 02AB
ENCODING 683
SWIDTH 504 0
DWIDTH 14 0
BBX 13 18 1 0
BITMAP
C000
C000
C000
C000
C000
C000
CFF8
CFF8
C070
C060
C0E0
C1C0
C180
C300
C700
CE00
FFF8
7FF8
ENDCHAR
STARTCHAR 02AC
ENCODING 684
SWIDTH 396 0
DWIDTH 11 0
BBX 9 14 1 0
BITMAP
C980
4900
5D00
7700
7700
3600
3600
C980
5D00
5D00
7700
7700
3600
3600
ENDCHAR
STARTCHAR 02AD
ENCODING 685
SWIDTH 432 0
DWIDTH 12 0
BBX 10 12 1 0
BITMAP
FFC0
FFC0
C0C0
C0C0
0000
0000
0000
0000
FFC0
FFC0
C0C0
C0C0
ENDCHAR
STARTCHAR 02AE
ENCODING 686
SWIDTH 612 0
DWIDTH 17 0
BBX 14 19 2 -6
BITMAP
E000
F80C
180C
0C0C
0C0C
0C0C
0C0C
0C0C
0C0C
0C1C
0E3C
07FC
03EC
000C
000C
000C
000C
000C
0004
ENDCHAR
STARTCHAR 02AF
ENCODING 687
SWIDTH 612 0
DWIDTH 17 0
BBX 19 19 2 -6
BITMAP
E00000
F80C00
180C00
0C0C00
0C0C00
0C0C00
0C0C00
0C0C00
0C0C00
0C1C00
0E3C00
07FC00
03EC00
000C00
000C00
000E00
000740
0007E0
000180
ENDCHAR
STARTCHAR 02B0
ENCODING 688
SWIDTH 288 0
DWIDTH 8 0
BBX 6 10 1 12
BITMAP
C0
C0
C0
F8
EC
C4
C4
C4
C4
C4
ENDCHAR
STARTCHAR 02B1
ENCODING 689
SWIDTH 288 0
DWIDTH 8 0
BBX 6 10 1 12
BITMAP
60
60
C0
F8
EC
C4
C4
C4
C4
C4
ENDCHAR
STARTCHAR 02B2
ENCODING 690
SWIDTH 216 0
DWIDTH 6 0
BBX 3 12 2 9
BITMAP
60
20
20
20
20
20
20
20
20
20
E0
80
ENDCHAR
STARTCHAR 02B3
ENCODING 691
SWIDTH 216 0
DWIDTH 6 0
BBX 4 7 1 12
BITMAP
F0
E0
C0
C0
C0
C0
C0
ENDCHAR
STARTCHAR 02B4
ENCODING 692
SWIDTH 216 0
DWIDTH 6 0
BBX 4 7 1 12
BITMAP
10
10
10
10
30
70
F0
ENDCHAR
STARTCHAR 02B5
ENCODING 693
SWIDTH 288 0
DWIDTH 8 0
BBX 6 10 1 9
BITMAP
10
10
10
10
30
70
F0
10
1C
08
ENDCHAR
STARTCHAR 02B6
ENCODING 694
SWIDTH 252 0
DWIDTH 7 0
BBX 5 7 1 12
BITMAP
D8
D8
F0
F0
D0
F0
F0
ENDCHAR
STARTCHAR 02B7
ENCODING 695
SWIDTH 396 0
DWIDTH 11 0
BBX 9 7 1 12
BITMAP
C980
5D00
7D00
7700
3600
3600
3600
ENDCHAR
STARTCHAR 02B8
ENCODING 696
SWIDTH 288 0
DWIDTH 8 0
BBX 5 10 2 9
BITMAP
88
88
D8
50
70
70
20
60
C0
80
ENDCHAR
STARTCHAR 02B9
ENCODING 697
SWIDTH 216 0
DWIDTH 6 0
BBX 4 8 1 11
BITMAP
70
70
60
60
40
40
40
80
ENDCHAR
STARTCHAR 02BA
ENCODING 698
SWIDTH 360 0
DWIDTH 10 0
BBX 8 8 1 11
BITMAP
77
77
66
66
44
44
44
88
ENDCHAR
STARTCHAR 02BB
ENCODING 699
SWIDTH 180 0
DWIDTH 5 0
BBX 4 7 1 11
BITMAP
30
40
80
80
E0
E0
E0
ENDCHAR
STARTCHAR 02BC
ENCODING 700
SWIDTH 180 0
DWIDTH 5 0
BBX 4 7 1 11
BITMAP
E0
F0
70
10
10
20
C0
ENDCHAR
STARTCHAR 02BD
ENCODING 701
SWIDTH 180 0
DWIDTH 5 0
BBX 3 7 1 11
BITMAP
60
E0
E0
80
80
40
20
ENDCHAR
STARTCHAR 02BE
ENCODING 702
SWIDTH 180 0
DWIDTH 5 0
BBX 3 4 1 13
BITMAP
C0
60
60
C0
ENDCHAR
STARTCHAR 02BF
ENCODING 703
SWIDTH 180 0
DWIDTH 5 0
BBX 3 4 1 13
BITMAP
60
C0
C0
60
ENDCHAR
STARTCHAR 02C0
ENCODING 704
SWIDTH 252 0
DWIDTH 7 0
BBX 5 10 1 12
BITMAP
30
78
C8
08
18
30
30
30
30
30
ENDCHAR
STARTCHAR 02C1
ENCODING 705
SWIDTH 252 0
DWIDTH 7 0
BBX 5 10 1 12
BITMAP
30
78
C8
C0
60
20
30
30
30
30
ENDCHAR
STARTCHAR 02C2
ENCODING 706
SWIDTH 360 0
DWIDTH 10 0
BBX 7 10 2 4
BITMAP
02
06
1C
3C
F8
F8
3C
1C
06
02
ENDCHAR
STARTCHAR 02C3
ENCODING 707
SWIDTH 360 0
DWIDTH 10 0
BBX 7 10 2 4
BITMAP
80
C0
70
78
3E
3E
78
70
C0
80
ENDCHAR
STARTCHAR 02C4
ENCODING 708
SWIDTH 468 0
DWIDTH 13 0
BBX 10 8 2 5
BITMAP
0800
0C00
1C00
3E00
3F00
7F00
E180
8040
ENDCHAR
STARTCHAR 02C5
ENCODING 709
SWIDTH 468 0
DWIDTH 13 0
BBX 11 8 1 5
BITMAP
8020
60C0
3BC0
1F80
1F00
0F00
0600
0400
ENDCHAR
STARTCHAR 02C6
ENCODING 710
SWIDTH 324 0
DWIDTH 9 0
BBX 6 4 2 14
BITMAP
70
78
C8
84
ENDCHAR
STARTCHAR 02C7
ENCODING 711
SWIDTH 324 0
DWIDTH 9 0
BBX 6 4 2 14
BITMAP
04
88
58
70
ENDCHAR
STARTCHAR 02C8
ENCODING 712
SWIDTH 144 0
DWIDTH 4 0
BBX 2 7 1 14
BITMAP
C0
C0
C0
C0
C0
C0
C0
ENDCHAR
STARTCHAR 02C9
ENCODING 713
SWIDTH 324 0
DWIDTH 9 0
BBX 7 2 1 15
BITMAP
FE
FE
ENDCHAR
STARTCHAR 02CA
ENCODING 714
SWIDTH 252 0
DWIDTH 7 0
BBX 4 4 2 14
BITMAP
70
60
C0
80
ENDCHAR
STARTCHAR 02CB
ENCODING 715
SWIDTH 252 0
DWIDTH 7 0
BBX 4 4 2 14
BITMAP
C0
60
20
10
ENDCHAR
STARTCHAR 02CC
ENCODING 716
SWIDTH 144 0
DWIDTH 4 0
BBX 2 7 1 -8
BITMAP
C0
C0
C0
C0
C0
C0
C0
ENDCHAR
STARTCHAR 02CD
ENCODING 717
SWIDTH 324 0
DWIDTH 9 0
BBX 7 2 1 -5
BITMAP
FE
FE
ENDCHAR
STARTCHAR 02CE
ENCODING 718
SWIDTH 252 0
DWIDTH 7 0
BBX 5 4 1 -5
BITMAP
E0
30
10
08
ENDCHAR
STARTCHAR 02CF
ENCODING 719
SWIDTH 252 0
DWIDTH 7 0
BBX 4 4 2 -5
BITMAP
70
60
C0
80
ENDCHAR
STARTCHAR 02D0
ENCODING 720
SWIDTH 216 0
DWIDTH 6 0
BBX 3 12 2 0
BITMAP
E0
C0
40
00
00
00
00
00
40
40
E0
E0
ENDCHAR
STARTCHAR 02D1
ENCODING 721
SWIDTH 216 0
DWIDTH 6 0
BBX 3 3 2 8
BITMAP
E0
C0
40
ENDCHAR
STARTCHAR 02D2
ENCODING 722
SWIDTH 180 0
DWIDTH 5 0
BBX 3 4 1 7
BITMAP
C0
60
60
C0
ENDCHAR
STARTCHAR 02D3
ENCODING 723
SWIDTH 180 0
DWIDTH 5 0
BBX 3 4 1 7
BITMAP
60
C0
C0
60
ENDCHAR
STARTCHAR 02D4
ENCODING 724
SWIDTH 432 0
DWIDTH 12 0
BBX 10 6 1 8
BITMAP
0C00
0C00
0C00
0C00
FFC0
FFC0
ENDCHAR
STARTCHAR 02D5
ENCODING 725
SWIDTH 432 0
DWIDTH 12 0
BBX 10 6 1 4
BITMAP
FFC0
FFC0
0C00
0C00
0C00
0C00
ENDCHAR
STARTCHAR 02D6
ENCODING 726
SWIDTH 432 0
DWIDTH 12 0
BBX 10 10 1 4
BITMAP
0C00
0C00
0C00
0C00
FFC0
FFC0
0C00
0C00
0C00
0C00
ENDCHAR
STARTCHAR 02D7
ENCODING 727
SWIDTH 432 0
DWIDTH 12 0
BBX 10 2 1 8
BITMAP
FFC0
FFC0
ENDCHAR
STARTCHAR 02D8
ENCODING 728
SWIDTH 360 0
DWIDTH 10 0
BBX 8 4 1 14
BITMAP
C3
43
7E
3C
ENDCHAR
STARTCHAR 02D9
ENCODING 729
SWIDTH 180 0
DWIDTH 5 0
BBX 3 2 1 14
BITMAP
E0
E0
ENDCHAR
STARTCHAR 02DA
ENCODING 730
SWIDTH 252 0
DWIDTH 7 0
BBX 5 4 1 13
BITMAP
70
C8
C8
78
ENDCHAR
STARTCHAR 02DB
ENCODING 731
SWIDTH 288 0
DWIDTH 8 0
BBX 6 6 1 -5
BITMAP
40
40
C0
C0
70
3C
ENDCHAR
STARTCHAR 02DC
ENCODING 732
SWIDTH 432 0
DWIDTH 12 0
BBX 10 3 1 15
BITMAP
7840
CF80
C380
ENDCHAR
STARTCHAR 02DD
ENCODING 733
SWIDTH 396 0
DWIDTH 11 0
BBX 8 4 2 14
BITMAP
77
66
CC
88
ENDCHAR
STARTCHAR 02DE
ENCODING 734
SWIDTH 252 0
DWIDTH 7 0
BBX 6 5 0 4
BITMAP
0C
44
C4
6C
38
ENDCHAR
STARTCHAR 02DF
ENCODING 735
SWIDTH 324 0
DWIDTH 9 0
BBX 5 6 2 13
BITMAP
08
D8
70
70
D8
88
ENDCHAR
STARTCHAR 02E0
ENCODING 736
SWIDTH 288 0
DWIDTH 8 0
BBX 5 10 2 9
BITMAP
88
88
D8
50
70
70
20
70
70
20
ENDCHAR
STARTCHAR 02E1
ENCODING 737
SWIDTH 180 0
DWIDTH 5 0
BBX 3 10 1 12
BITMAP
C0
C0
C0
C0
C0
C0
C0
C0
E0
60
ENDCHAR
STARTCHAR 02E2
ENCODING 738
SWIDTH 252 0
DWIDTH 7 0
BBX 5 7 1 12
BITMAP
70
58
60
30
D8
78
70
ENDCHAR
STARTCHAR 02E3
ENCODING 739
SWIDTH 324 0
DWIDTH 9 0
BBX 6 7 2 12
BITMAP
88
D8
70
20
70
D8
8C
ENDCHAR
STARTCHAR 02E4
ENCODING 740
SWIDTH 252 0
DWIDTH 7 0
BBX 5 10 1 12
BITMAP
30
78
C8
C0
60
20
30
30
30
30
ENDCHAR
STARTCHAR 02E5
ENCODING 741
SWIDTH 324 0
DWIDTH 9 0
BBX 7 18 1 0
BITMAP
7E
FE
06
06
06
06
06
06
06
06
06
06
06
06
06
06
06
06
ENDCHAR
STARTCHAR 02E6
ENCODING 742
SWIDTH 324 0
DWIDTH 9 0
BBX 7 18 1 0
BITMAP
06
06
06
06
7E
FE
06
06
06
06
06
06
06
06
06
06
06
06
ENDCHAR
STARTCHAR 02E7
ENCODING 743
SWIDTH 324 0
DWIDTH 9 0
BBX 7 18 1 0
BITMAP
06
06
06
06
06
06
06
06
7E
FE
06
06
06
06
06
06
06
06
ENDCHAR
STARTCHAR 02E8
ENCODING 744
SWIDTH 324 0
DWIDTH 9 0
BBX 7 18 1 0
BITMAP
06
06
06
06
06
06
06
06
06
06
06
06
FE
FE
06
06
06
06
ENDCHAR
STARTCHAR 02E9
ENCODING 745
SWIDTH 324 0
DWIDTH 9 0
BBX 7 18 1 0
BITMAP
06
06
06
06
06
06
06
06
06
06
06
06
06
06
06
06
FE
7E
ENDCHAR
STARTCHAR 02EA
ENCODING 746
SWIDTH 288 0
DWIDTH 8 0
BBX 6 12 1 0
BITMAP
C0
C0
C0
C0
C0
C0
C0
C0
C0
C0
FC
FC
ENDCHAR
STARTCHAR 02EB
ENCODING 747
SWIDTH 288 0
DWIDTH 8 0
BBX 6 12 1 0
BITMAP
C0
C0
C0
C0
C0
FC
FC
C0
C0
C0
C0
C0
ENDCHAR
STARTCHAR 02EC
ENCODING 748
SWIDTH 324 0
DWIDTH 9 0
BBX 7 4 1 -5
BITMAP
82
46
6C
3C
ENDCHAR
STARTCHAR 02ED
ENCODING 749
SWIDTH 324 0
DWIDTH 9 0
BBX 7 4 1 15
BITMAP
FE
FE
00
FE
ENDCHAR
STARTCHAR 02EE
ENCODING 750
SWIDTH 360 0
DWIDTH 10 0
BBX 8 7 1 11
BITMAP
E7
F7
77
11
11
22
C4
ENDCHAR
STARTCHAR 02EF
ENCODING 751
SWIDTH 288 0
DWIDTH 8 0
BBX 6 4 1 -5
BITMAP
84
78
30
30
ENDCHAR
STARTCHAR 02F0
ENCODING 752
SWIDTH 288 0
DWIDTH 8 0
BBX 4 3 2 -4
BITMAP
60
70
90
ENDCHAR
STARTCHAR 02F1
ENCODING 753
SWIDTH 216 0
DWIDTH 6 0
BBX 3 4 2 -6
BITMAP
20
C0
C0
20
ENDCHAR
STARTCHAR 02F2
ENCODING 754
SWIDTH 216 0
DWIDTH 6 0
BBX 4 6 1 -7
BITMAP
80
40
70
70
40
80
ENDCHAR
STARTCHAR 02F3
ENCODING 755
SWIDTH 252 0
DWIDTH 7 0
BBX 5 5 1 -6
BITMAP
70
58
C8
78
30
ENDCHAR
STARTCHAR 02F4
ENCODING 756
SWIDTH 252 0
DWIDTH 7 0
BBX 4 4 2 7
BITMAP
C0
60
20
10
ENDCHAR
STARTCHAR 02F5
ENCODING 757
SWIDTH 396 0
DWIDTH 11 0
BBX 8 4 2 7
BITMAP
CC
66
22
11
ENDCHAR
STARTCHAR 02F6
ENCODING 758
SWIDTH 396 0
DWIDTH 11 0
BBX 8 4 2 7
BITMAP
77
66
CC
88
ENDCHAR
STARTCHAR 02F7
ENCODING 759
SWIDTH 432 0
DWIDTH 12 0
BBX 10 3 1 -5
BITMAP
7840
4EC0
C780
ENDCHAR
STARTCHAR 02F8
ENCODING 760
SWIDTH 180 0
DWIDTH 5 0
BBX 3 13 1 5
BITMAP
60
E0
60
00
00
00
00
00
00
00
60
E0
60
ENDCHAR
STARTCHAR 02F9
ENCODING 761
SWIDTH 288 0
DWIDTH 8 0
BBX 6 8 1 10
BITMAP
FC
FC
C0
C0
C0
C0
C0
C0
ENDCHAR
STARTCHAR 02FA
ENCODING 762
SWIDTH 288 0
DWIDTH 8 0
BBX 6 8 1 10
BITMAP
FC
FC
0C
0C
0C
0C
0C
0C
ENDCHAR
STARTCHAR 02FB
ENCODING 763
SWIDTH 288 0
DWIDTH 8 0
BBX 6 8 1 0
BITMAP
C0
C0
C0
C0
C0
C0
FC
FC
ENDCHAR
STARTCHAR 02FC
ENCODING 764
SWIDTH 288 0
DWIDTH 8 0
BBX 6 8 1 0
BITMAP
0C
0C
0C
0C
0C
0C
FC
FC
ENDCHAR
STARTCHAR 02FD
ENCODING 765
SWIDTH 324 0
DWIDTH 9 0
BBX 7 3 1 -4
BITMAP
C2
C2
FE
ENDCHAR
STARTCHAR 02FE
ENCODING 766
SWIDTH 324 0
DWIDTH 9 0
BBX 7 3 1 -4
BITMAP
C0
C0
FE
ENDCHAR
STARTCHAR 02FF
ENCODING 767
SWIDTH 468 0
DWIDTH 13 0
BBX 10 4 2 -5
BITMAP
2000
FFC0
FFC0
2000
ENDCHAR
STARTCHAR 0300
ENCODING 768
SWIDTH 0 0
DWIDTH 0 0
BBX 4 4 -3 14
BITMAP
E0
60
30
10
ENDCHAR
STARTCHAR 0301
ENCODING 769
SWIDTH 0 0
DWIDTH 0 0
BBX 4 4 -1 14
BITMAP
70
60
C0
80
ENDCHAR
STARTCHAR 0302
ENCODING 770
SWIDTH 0 0
DWIDTH 0 0
BBX 6 4 -3 14
BITMAP
78
78
CC
84
ENDCHAR
STARTCHAR 0303
ENCODING 771
SWIDTH 0 0
DWIDTH 0 0
BBX 10 4 -5 14
BITMAP
2000
78C0
CF80
8300
ENDCHAR
STARTCHAR 0304
ENCODING 772
SWIDTH 0 0
DWIDTH 0 0
BBX 6 2 -3 15
BITMAP
FC
FC
ENDCHAR
STARTCHAR 0306
ENCODING 774
SWIDTH 0 0
DWIDTH 0 0
BBX 8 4 -4 14
BITMAP
C3
C3
7E
3C
ENDCHAR
STARTCHAR 0307
ENCODING 775
SWIDTH 0 0
DWIDTH 0 0
BBX 2 2 -1 14
BITMAP
C0
C0
ENDCHAR
STARTCHAR 0308
ENCODING 776
SWIDTH 0 0
DWIDTH 0 0
BBX 8 3 -4 14
BITMAP
E7
E7
42
ENDCHAR
STARTCHAR 0309
ENCODING 777
SWIDTH 0 0
DWIDTH 0 0
BBX 6 6 -3 14
BITMAP
30
C8
CC
08
10
20
ENDCHAR
STARTCHAR 030A
ENCODING 778
SWIDTH 0 0
DWIDTH 0 0
BBX 4 4 -2 13
BITMAP
F0
90
90
F0
ENDCHAR
STARTCHAR 030B
ENCODING 779
SWIDTH 0 0
DWIDTH 0 0
BBX 8 4 -3 14
BITMAP
33
66
44
88
ENDCHAR
STARTCHAR 030C
ENCODING 780
SWIDTH 0 0
DWIDTH 0 0
BBX 6 4 -3 14
BITMAP
84
CC
78
78
ENDCHAR
STARTCHAR 030D
ENCODING 781
SWIDTH 0 0
DWIDTH 0 0
BBX 2 7 -1 14
BITMAP
C0
C0
C0
C0
C0
C0
C0
ENDCHAR
STARTCHAR 030E
ENCODING 782
SWIDTH 0 0
DWIDTH 0 0
BBX 4 7 -2 14
BITMAP
90
90
90
90
90
90
90
ENDCHAR
STARTCHAR 030F
ENCODING 783
SWIDTH 0 0
DWIDTH 0 0
BBX 8 4 -5 14
BITMAP
CC
66
22
11
ENDCHAR
STARTCHAR 0310
ENCODING 784
SWIDTH 0 0
DWIDTH 0 0
BBX 8 5 -4 14
BITMAP
18
DB
CB
7E
3C
ENDCHAR
STARTCHAR 0311
ENCODING 785
SWIDTH 0 0
DWIDTH 0 0
BBX 8 4 -4 14
BITMAP
3C
7E
C3
C3
ENDCHAR
STARTCHAR 0312
ENCODING 786
SWIDTH 0 0
DWIDTH 0 0
BBX 4 7 -2 13
BITMAP
10
60
40
80
80
F0
F0
ENDCHAR
STARTCHAR 0313
ENCODING 787
SWIDTH 0 0
DWIDTH 0 0
BBX 3 6 -1 13
BITMAP
C0
C0
A0
40
40
80
ENDCHAR
STARTCHAR 0314
ENCODING 788
SWIDTH 0 0
DWIDTH 0 0
BBX 3 6 -2 13
BITMAP
60
60
A0
80
40
20
ENDCHAR
STARTCHAR 0315
ENCODING 789
SWIDTH 0 0
DWIDTH 0 0
BBX 3 7 3 11
BITMAP
E0
E0
E0
20
20
40
80
ENDCHAR
STARTCHAR 0316
ENCODING 790
SWIDTH 0 0
DWIDTH 0 0
BBX 4 4 -3 -5
BITMAP
E0
60
30
10
ENDCHAR
STARTCHAR 0317
ENCODING 791
SWIDTH 0 0
DWIDTH 0 0
BBX 4 4 -1 -5
BITMAP
70
60
C0
80
ENDCHAR
STARTCHAR 0318
ENCODING 792
SWIDTH 0 0
DWIDTH 0 0
BBX 4 7 -3 -8
BITMAP
30
30
30
F0
30
30
30
ENDCHAR
STARTCHAR 0319
ENCODING 793
SWIDTH 0 0
DWIDTH 0 0
BBX 4 7 -1 -8
BITMAP
C0
C0
C0
F0
C0
C0
C0
ENDCHAR
STARTCHAR 031A
ENCODING 794
SWIDTH 0 0
DWIDTH 0 0
BBX 6 5 -3 14
BITMAP
FC
04
04
04
04
ENDCHAR
STARTCHAR 031B
ENCODING 795
SWIDTH 0 0
DWIDTH 0 0
BBX 3 7 -1 7
BITMAP
C0
E0
E0
20
20
40
80
ENDCHAR
STARTCHAR 031C
ENCODING 796
SWIDTH 0 0
DWIDTH 0 0
BBX 2 4 -1 -5
BITMAP
C0
80
80
C0
ENDCHAR
STARTCHAR 031D
ENCODING 797
SWIDTH 0 0
DWIDTH 0 0
BBX 6 4 -3 -5
BITMAP
30
30
30
FC
ENDCHAR
STARTCHAR 031E
ENCODING 798
SWIDTH 0 0
DWIDTH 0 0
BBX 6 4 -3 -8
BITMAP
FC
30
30
30
ENDCHAR
STARTCHAR 031F
ENCODING 799
SWIDTH 0 0
DWIDTH 0 0
BBX 6 7 -3 -8
BITMAP
30
30
30
FC
30
30
30
ENDCHAR
STARTCHAR 0320
ENCODING 800
SWIDTH 0 0
DWIDTH 0 0
BBX 6 1 -3 -5
BITMAP
FC
ENDCHAR
STARTCHAR 0321
ENCODING 801
SWIDTH 0 0
DWIDTH 0 0
BBX 6 10 -7 -6
BITMAP
0C
0C
0C
0C
0C
0C
1C
98
F8
60
ENDCHAR
STARTCHAR 0322
ENCODING 802
SWIDTH 0 0
DWIDTH 0 0
BBX 6 10 -3 -6
BITMAP
C0
C0
C0
C0
C0
C0
C0
E8
7C
38
ENDCHAR
STARTCHAR 0323
ENCODING 803
SWIDTH 0 0
DWIDTH 0 0
BBX 2 3 -1 -5
BITMAP
C0
C0
C0
ENDCHAR
STARTCHAR 0324
ENCODING 804
SWIDTH 0 0
DWIDTH 0 0
BBX 8 3 -4 -5
BITMAP
E7
E7
42
ENDCHAR
STARTCHAR 0325
ENCODING 805
SWIDTH 0 0
DWIDTH 0 0
BBX 4 5 -2 -6
BITMAP
60
F0
90
F0
60
ENDCHAR
STARTCHAR 0326
ENCODING 806
SWIDTH 0 0
DWIDTH 0 0
BBX 4 8 -2 -9
BITMAP
40
F0
F0
10
10
20
40
80
ENDCHAR
STARTCHAR 0327
ENCODING 807
SWIDTH 0 0
DWIDTH 0 0
BBX 5 6 -2 -6
BITMAP
40
70
18
18
F0
E0
ENDCHAR
STARTCHAR 0328
ENCODING 808
SWIDTH 0 0
DWIDTH 0 0
BBX 6 6 -1 -5
BITMAP
40
80
80
C0
F4
78
ENDCHAR
STARTCHAR 0329
ENCODING 809
SWIDTH 0 0
DWIDTH 0 0
BBX 2 7 -1 -8
BITMAP
C0
C0
C0
C0
C0
C0
C0
ENDCHAR
STARTCHAR 032A
ENCODING 810
SWIDTH 0 0
DWIDTH 0 0
BBX 6 4 -3 -5
BITMAP
FC
FC
84
84
ENDCHAR
STARTCHAR 032B
ENCODING 811
SWIDTH 0 0
DWIDTH 0 0
BBX 8 3 -4 -4
BITMAP
99
99
FF
ENDCHAR
STARTCHAR 032C
ENCODING 812
SWIDTH 0 0
DWIDTH 0 0
BBX 6 3 -3 -4
BITMAP
84
48
78
ENDCHAR
STARTCHAR 032D
ENCODING 813
SWIDTH 0 0
DWIDTH 0 0
BBX 6 4 -3 -5
BITMAP
30
78
48
84
ENDCHAR
STARTCHAR 032E
ENCODING 814
SWIDTH 0 0
DWIDTH 0 0
BBX 8 4 -4 -5
BITMAP
C3
C3
7E
3C
ENDCHAR
STARTCHAR 032F
ENCODING 815
SWIDTH 0 0
DWIDTH 0 0
BBX 8 4 -4 -5
BITMAP
18
7E
66
C3
ENDCHAR
STARTCHAR 0330
ENCODING 816
SWIDTH 0 0
DWIDTH 0 0
BBX 10 3 -5 -5
BITMAP
78C0
CF80
C780
ENDCHAR
STARTCHAR 0331
ENCODING 817
SWIDTH 0 0
DWIDTH 0 0
BBX 6 2 -3 -4
BITMAP
FC
FC
ENDCHAR
STARTCHAR 0334
ENCODING 820
SWIDTH 0 0
DWIDTH 0 0
BBX 10 3 -5 5
BITMAP
7040
7CC0
C780
ENDCHAR
STARTCHAR 0335
ENCODING 821
SWIDTH 0 0
DWIDTH 0 0
BBX 6 2 -3 5
BITMAP
FC
FC
ENDCHAR
STARTCHAR 0336
ENCODING 822
SWIDTH 0 0
DWIDTH 0 0
BBX 20 2 -10 5
BITMAP
FFFFF0
FFFFF0
ENDCHAR
STARTCHAR 0337
ENCODING 823
SWIDTH 0 0
DWIDTH 0 0
BBX 12 16 -6 -2
BITMAP
0020
0070
00E0
00C0
01C0
0380
0300
0600
0E00
0C00
1800
3800
7000
6000
E000
4000
ENDCHAR
STARTCHAR 0338
ENCODING 824
SWIDTH 0 0
DWIDTH 0 0
BBX 14 19 -7 -4
BITMAP
000C
000C
0018
0038
0070
0060
00E0
01C0
0180
0300
0700
0600
0C00
1C00
3800
3000
7000
E000
C000
ENDCHAR
STARTCHAR 0339
ENCODING 825
SWIDTH 0 0
DWIDTH 0 0
BBX 2 4 -1 -5
BITMAP
C0
40
40
C0
ENDCHAR
STARTCHAR 033A
ENCODING 826
SWIDTH 0 0
DWIDTH 0 0
BBX 6 4 -3 -5
BITMAP
84
84
FC
FC
ENDCHAR
STARTCHAR 033B
ENCODING 827
SWIDTH 0 0
DWIDTH 0 0
BBX 6 5 -3 -6
BITMAP
FC
FC
84
84
FC
ENDCHAR
STARTCHAR 033C
ENCODING 828
SWIDTH 0 0
DWIDTH 0 0
BBX 10 4 -5 -5
BITMAP
2100
7380
9E40
8840
ENDCHAR
STARTCHAR 033D
ENCODING 829
SWIDTH 0 0
DWIDTH 0 0
BBX 6 5 -3 14
BITMAP
CC
78
30
78
48
ENDCHAR
STARTCHAR 033E
ENCODING 830
SWIDTH 0 0
DWIDTH 0 0
BBX 4 9 -2 14
BITMAP
70
C0
C0
40
60
20
30
30
E0
ENDCHAR
STARTCHAR 0340
ENCODING 832
SWIDTH 0 0
DWIDTH 0 0
BBX 4 4 -3 14
BITMAP
E0
60
30
10
ENDCHAR
STARTCHAR 0341
ENCODING 833
SWIDTH 0 0
DWIDTH 0 0
BBX 4 4 -1 14
BITMAP
70
60
C0
80
ENDCHAR
STARTCHAR 0342
ENCODING 834
SWIDTH 0 0
DWIDTH 0 0
BBX 10 4 -5 14
BITMAP
2000
78C0
CF80
8300
ENDCHAR
STARTCHAR 0343
ENCODING 835
SWIDTH 0 0
DWIDTH 0 0
BBX 3 6 -1 13
BITMAP
C0
C0
A0
40
40
80
ENDCHAR
STARTCHAR 0344
ENCODING 836
SWIDTH 0 0
DWIDTH 0 0
BBX 8 6 -4 14
BITMAP
06
0C
08
F7
E7
42
ENDCHAR
STARTCHAR 0345
ENCODING 837
SWIDTH 0 0
DWIDTH 0 0
BBX 4 6 -1 -7
BITMAP
C0
C0
C0
C0
F0
70
ENDCHAR
STARTCHAR 0346
ENCODING 838
SWIDTH 0 0
DWIDTH 0 0
BBX 6 3 -3 14
BITMAP
FC
84
84
ENDCHAR
STARTCHAR 0347
ENCODING 839
SWIDTH 0 0
DWIDTH 0 0
BBX 6 4 -3 -7
BITMAP
FC
00
FC
FC
ENDCHAR
STARTCHAR 0348
ENCODING 840
SWIDTH 0 0
DWIDTH 0 0
BBX 4 7 -2 -8
BITMAP
90
90
90
90
90
90
90
ENDCHAR
STARTCHAR 0349
ENCODING 841
SWIDTH 0 0
DWIDTH 0 0
BBX 6 6 -3 -7
BITMAP
FC
FC
04
04
04
04
ENDCHAR
STARTCHAR 034A
ENCODING 842
SWIDTH 0 0
DWIDTH 0 0
BBX 10 6 -5 15
BITMAP
0600
7640
7CC0
CF80
1800
1000
ENDCHAR
STARTCHAR 034B
ENCODING 843
SWIDTH 0 0
DWIDTH 0 0
BBX 10 9 -5 13
BITMAP
0800
0C00
0C00
7040
7CC0
C780
0C00
0C00
0C00
ENDCHAR
STARTCHAR 034C
ENCODING 844
SWIDTH 0 0
DWIDTH 0 0
BBX 10 6 -5 14
BITMAP
78C0
DF80
C780
7040
7CC0
C780
ENDCHAR
STARTCHAR 034D
ENCODING 845
SWIDTH 0 0
DWIDTH 0 0
BBX 10 6 -5 -7
BITMAP
1200
2100
E1C0
FFC0
2100
1200
ENDCHAR
STARTCHAR 034E
ENCODING 846
SWIDTH 0 0
DWIDTH 0 0
BBX 4 5 -2 -6
BITMAP
60
60
F0
60
60
ENDCHAR
STARTCHAR 034F
ENCODING 847
SWIDTH 0 0
DWIDTH 0 0
BBX 0 0 0 0
BITMAP
ENDCHAR
STARTCHAR 0350
ENCODING 848
SWIDTH 0 0
DWIDTH 0 0
BBX 4 5 -2 14
BITMAP
80
60
70
40
80
ENDCHAR
STARTCHAR 0351
ENCODING 849
SWIDTH 0 0
DWIDTH 0 0
BBX 2 4 -1 13
BITMAP
C0
80
80
C0
ENDCHAR
STARTCHAR 0352
ENCODING 850
SWIDTH 0 0
DWIDTH 0 0
BBX 8 5 -4 14
BITMAP
3C
66
DB
18
18
ENDCHAR
STARTCHAR 0353
ENCODING 851
SWIDTH 0 0
DWIDTH 0 0
BBX 6 5 -3 -8
BITMAP
CC
78
30
78
CC
ENDCHAR
STARTCHAR 0354
ENCODING 852
SWIDTH 0 0
DWIDTH 0 0
BBX 4 5 -2 -6
BITMAP
30
60
E0
20
10
ENDCHAR
STARTCHAR 0355
ENCODING 853
SWIDTH 0 0
DWIDTH 0 0
BBX 4 5 -2 -6
BITMAP
C0
60
70
40
80
ENDCHAR
STARTCHAR 0356
ENCODING 854
SWIDTH 0 0
DWIDTH 0 0
BBX 9 5 -4 -6
BITMAP
C200
6700
7480
4800
8000
ENDCHAR
STARTCHAR 0357
ENCODING 855
SWIDTH 0 0
DWIDTH 0 0
BBX 2 4 -1 13
BITMAP
C0
40
40
C0
ENDCHAR
STARTCHAR 0358
ENCODING 856
SWIDTH 0 0
DWIDTH 0 0
BBX 3 3 2 14
BITMAP
E0
E0
40
ENDCHAR
STARTCHAR 0359
ENCODING 857
SWIDTH 0 0
DWIDTH 0 0
BBX 6 7 -3 -8
BITMAP
30
B4
FC
78
FC
B4
30
ENDCHAR
STARTCHAR 035A
ENCODING 858
SWIDTH 0 0
DWIDTH 0 0
BBX 8 4 -4 -5
BITMAP
24
5A
99
7E
ENDCHAR
STARTCHAR 035B
ENCODING 859
SWIDTH 0 0
DWIDTH 0 0
BBX 6 7 -3 14
BITMAP
08
18
30
7C
98
30
60
ENDCHAR
STARTCHAR 035C
ENCODING 860
SWIDTH 0 0
DWIDTH 0 0
BBX 24 4 -12 -10
BITMAP
C00003
FC003F
3FFFFC
07FFE0
ENDCHAR
STARTCHAR 035D
ENCODING 861
SWIDTH 0 0
DWIDTH 0 0
BBX 24 5 -12 18
BITMAP
800001
E00007
FF00FF
1FFFF8
01FF80
ENDCHAR
STARTCHAR 035E
ENCODING 862
SWIDTH 0 0
DWIDTH 0 0
BBX 24 2 -12 19
BITMAP
FFFFFF
FFFFFF
ENDCHAR
STARTCHAR 035F
ENCODING 863
SWIDTH 0 0
DWIDTH 0 0
BBX 24 2 -12 -9
BITMAP
FFFFFF
FFFFFF
ENDCHAR
STARTCHAR 0360
ENCODING 864
SWIDTH 0 0
DWIDTH 0 0
BBX 24 5 -12 18
BITMAP
1F8000
7FF003
60FE06
C01FFE
0003FC
ENDCHAR
STARTCHAR 0361
ENCODING 865
SWIDTH 0 0
DWIDTH 0 0
BBX 24 5 -12 18
BITMAP
007E00
0FFFF8
7FE7FE
F0000F
800001
ENDCHAR
STARTCHAR 0362
ENCODING 866
SWIDTH 0 0
DWIDTH 0 0
BBX 23 6 -12 -11
BITMAP
000010
00001C
FFFFFE
FFFFFE
000018
000010
ENDCHAR
STARTCHAR 0363
ENCODING 867
SWIDTH 0 0
DWIDTH 0 0
BBX 4 6 -2 13
BITMAP
F0
10
70
F0
90
F0
ENDCHAR
STARTCHAR 0364
ENCODING 868
SWIDTH 0 0
DWIDTH 0 0
BBX 6 6 -3 13
BITMAP
78
CC
FC
C0
CC
78
ENDCHAR
STARTCHAR 0365
ENCODING 869
SWIDTH 0 0
DWIDTH 0 0
BBX 2 9 -1 14
BITMAP
C0
C0
00
C0
C0
C0
C0
C0
C0
ENDCHAR
STARTCHAR 0366
ENCODING 870
SWIDTH 0 0
DWIDTH 0 0
BBX 6 6 -3 13
BITMAP
78
CC
CC
CC
CC
78
ENDCHAR
STARTCHAR 0367
ENCODING 871
SWIDTH 0 0
DWIDTH 0 0
BBX 6 7 -3 13
BITMAP
CC
CC
CC
CC
CC
7C
20
ENDCHAR
STARTCHAR 0368
ENCODING 872
SWIDTH 0 0
DWIDTH 0 0
BBX 6 6 -3 13
BITMAP
78
CC
C0
C0
CC
78
ENDCHAR
STARTCHAR 0369
ENCODING 873
SWIDTH 0 0
DWIDTH 0 0
BBX 6 9 -3 13
BITMAP
0C
0C
0C
7C
CC
CC
CC
CC
7C
ENDCHAR
STARTCHAR 036A
ENCODING 874
SWIDTH 0 0
DWIDTH 0 0
BBX 6 9 -3 14
BITMAP
C0
C0
C0
F8
CC
CC
CC
CC
CC
ENDCHAR
STARTCHAR 036B
ENCODING 875
SWIDTH 0 0
DWIDTH 0 0
BBX 8 6 -4 14
BITMAP
FE
DB
DB
DB
DB
DB
ENDCHAR
STARTCHAR 036C
ENCODING 876
SWIDTH 0 0
DWIDTH 0 0
BBX 4 6 -2 14
BITMAP
F0
C0
C0
C0
C0
C0
ENDCHAR
STARTCHAR 036D
ENCODING 877
SWIDTH 0 0
DWIDTH 0 0
BBX 4 8 -2 14
BITMAP
20
60
F0
60
60
60
60
70
ENDCHAR
STARTCHAR 036E
ENCODING 878
SWIDTH 0 0
DWIDTH 0 0
BBX 6 6 -3 14
BITMAP
CC
48
48
78
30
30
ENDCHAR
STARTCHAR 036F
ENCODING 879
SWIDTH 0 0
DWIDTH 0 0
BBX 6 6 -3 14
BITMAP
CC
78
30
30
78
CC
ENDCHAR
STARTCHAR 0370
ENCODING 880
SWIDTH 432 0
DWIDTH 12 0
BBX 10 18 1 0
BITMAP
C000
C000
C000
C000
C000
C000
C000
C000
FFC0
FFC0
C000
C000
C000
C000
C000
C000
C000
C000
ENDCHAR
STARTCHAR 0371
ENCODING 881
SWIDTH 396 0
DWIDTH 11 0
BBX 9 12 1 0
BITMAP
F000
F000
3000
3000
3000
3F80
3F80
3000
3000
3000
3000
3000
ENDCHAR
STARTCHAR 0372
ENCODING 882
SWIDTH 648 0
DWIDTH 18 0
BBX 16 18 1 0
BITMAP
FFFF
FFFF
C183
C183
C183
C183
C183
C183
C183
C183
0180
0180
0180
0180
0180
0180
0180
0180
ENDCHAR
STARTCHAR 0373
ENCODING 883
SWIDTH 504 0
DWIDTH 14 0
BBX 13 13 1 0
BITMAP
0F00
3FC0
3FE0
6330
6330
E330
C338
C318
0300
0300
0300
03C0
03C0
ENDCHAR
STARTCHAR 0374
ENCODING 884
SWIDTH 216 0
DWIDTH 6 0
BBX 4 8 1 11
BITMAP
70
70
60
60
40
40
40
80
ENDCHAR
STARTCHAR 0375
ENCODING 885
SWIDTH 216 0
DWIDTH 6 0
BBX 3 7 2 0
BITMAP
20
20
60
60
60
E0
C0
ENDCHAR
STARTCHAR 0376
ENCODING 886
SWIDTH 576 0
DWIDTH 16 0
BBX 14 18 1 0
BITMAP
C00C
C01C
C01C
C03C
C07C
C06C
C0CC
C1CC
C18C
C30C
C70C
CE0C
CC0C
DC0C
F80C
F00C
E00C
E00C
ENDCHAR
STARTCHAR 0377
ENCODING 887
SWIDTH 540 0
DWIDTH 15 0
BBX 13 12 1 0
BITMAP
C0E0
C1E0
C1E0
C360
C760
CE60
CC60
DC60
F860
F060
E078
E078
ENDCHAR
STARTCHAR 037A
ENCODING 890
SWIDTH 216 0
DWIDTH 6 0
BBX 4 6 1 -7
BITMAP
C0
C0
C0
C0
F0
70
ENDCHAR
STARTCHAR 037B
ENCODING 891
SWIDTH 432 0
DWIDTH 12 0
BBX 11 13 1 0
BITMAP
0C00
3F00
7380
E1C0
00C0
00C0
00E0
00E0
00C0
40C0
61C0
7F80
3F00
ENDCHAR
STARTCHAR 037C
ENCODING 892
SWIDTH 432 0
DWIDTH 12 0
BBX 10 13 1 0
BITMAP
0600
1F80
39C0
60C0
6000
E400
CE00
C600
6000
60C0
70C0
3FC0
1F00
ENDCHAR
STARTCHAR 037D
ENCODING 893
SWIDTH 432 0
DWIDTH 12 0
BBX 11 13 1 0
BITMAP
0C00
3F00
7380
E1C0
00C0
04C0
0EE0
0CE0
00C0
40C0
61C0
7F80
3F00
ENDCHAR
STARTCHAR 037E
ENCODING 894
SWIDTH 180 0
DWIDTH 5 0
BBX 4 18 1 -5
BITMAP
40
E0
60
00
00
00
00
00
00
00
40
F0
F0
10
10
20
40
80
ENDCHAR
STARTCHAR 037F
ENCODING 895
SWIDTH 360 0
DWIDTH 10 0
BBX 8 18 1 0
BITMAP
03
03
03
03
03
03
03
03
03
03
03
03
03
03
C3
E3
7E
3C
ENDCHAR
STARTCHAR 0384
ENCODING 900
SWIDTH 252 0
DWIDTH 7 0
BBX 4 4 2 14
BITMAP
70
60
C0
80
ENDCHAR
STARTCHAR 0385
ENCODING 901
SWIDTH 360 0
DWIDTH 10 0
BBX 8 6 1 14
BITMAP
07
06
0C
EF
E7
02
ENDCHAR
STARTCHAR 0386
ENCODING 902
SWIDTH 612 0
DWIDTH 17 0
BBX 14 18 2 0
BITMAP
7300
6780
C780
8780
0DC0
0CC0
0CC0
1860
1860
3FE0
3FF0
3030
7038
6018
6018
C01C
C00C
C00C
ENDCHAR
STARTCHAR 0387
ENCODING 903
SWIDTH 180 0
DWIDTH 5 0
BBX 3 2 1 7
BITMAP
E0
E0
ENDCHAR
STARTCHAR 0388
ENCODING 904
SWIDTH 720 0
DWIDTH 20 0
BBX 17 18 2 0
BITMAP
77FF80
67FF80
C70000
870000
070000
070000
070000
070000
07FE00
07FE00
070000
070000
070000
070000
070000
070000
07FF80
07FF80
ENDCHAR
STARTCHAR 0389
ENCODING 905
SWIDTH 720 0
DWIDTH 20 0
BBX 17 18 2 0
BITMAP
770180
670180
C70180
870180
070180
070180
070180
070180
07FF80
07FF80
070180
070180
070180
070180
070180
070180
070180
070180
ENDCHAR
STARTCHAR 038A
ENCODING 906
SWIDTH 504 0
DWIDTH 14 0
BBX 12 18 2 0
BITMAP
77F0
67F0
C1C0
81C0
01C0
01C0
01C0
01C0
01C0
01C0
01C0
01C0
01C0
01C0
01C0
01C0
07F0
07F0
ENDCHAR
STARTCHAR 038C
ENCODING 908
SWIDTH 720 0
DWIDTH 20 0
BBX 17 18 2 0
BITMAP
71F000
67FC00
CE0E00
8C0700
180300
180300
300180
300180
300180
300180
300180
300180
180300
180300
1C0700
0E0E00
07FC00
03F800
ENDCHAR
STARTCHAR 038E
ENCODING 910
SWIDTH 828 0
DWIDTH 23 0
BBX 20 18 2 0
BITMAP
770070
6300E0
C380C0
81C180
00C380
006300
007600
003E00
001C00
001800
001800
001800
001800
001800
001800
001800
001800
001800
ENDCHAR
STARTCHAR 038F
ENCODING 911
SWIDTH 756 0
DWIDTH 21 0
BBX 18 18 2 0
BITMAP
71F800
63FE00
C70E00
8E0300
0C0380
180180
180180
1800C0
1800C0
1800C0
1800C0
180180
180180
0C0380
0E0300
070700
1F8FC0
1F8FC0
ENDCHAR
STARTCHAR 0390
ENCODING 912
SWIDTH 216 0
DWIDTH 6 0
BBX 7 20 -1 0
BITMAP
06
0C
08
FE
EE
04
00
00
30
30
30
30
30
30
30
30
30
30
3C
1C
ENDCHAR
STARTCHAR 0391
ENCODING 913
SWIDTH 612 0
DWIDTH 17 0
BBX 14 18 2 0
BITMAP
0300
0780
0780
0780
0DC0
0CC0
0CC0
1860
1860
3FE0
3FF0
3030
7038
6018
6018
C01C
C00C
C00C
ENDCHAR
STARTCHAR 0392
ENCODING 914
SWIDTH 504 0
DWIDTH 14 0
BBX 12 18 1 0
BITMAP
FF00
FFC0
C0C0
C060
C060
C060
C0E0
FFC0
FFC0
C1E0
C060
C070
C030
C030
C060
C0E0
FFC0
FF80
ENDCHAR
STARTCHAR 0393
ENCODING 915
SWIDTH 504 0
DWIDTH 14 0
BBX 12 18 1 0
BITMAP
FFF0
FFF0
C000
C000
C000
C000
C000
C000
C000
C000
C000
C000
C000
C000
C000
C000
C000
C000
ENDCHAR
STARTCHAR 0394
ENCODING 916
SWIDTH 612 0
DWIDTH 17 0
BBX 14 18 2 0
BITMAP
0300
0780
0780
0780
0DC0
0CC0
0CC0
1860
1860
3860
3030
3030
7038
6018
6018
C01C
FFFC
FFFC
ENDCHAR
STARTCHAR 0395
ENCODING 917
SWIDTH 504 0
DWIDTH 14 0
BBX 12 18 1 0
BITMAP
FFF0
FFF0
C000
C000
C000
C000
C000
C000
FFC0
FFC0
C000
C000
C000
C000
C000
C000
FFF0
FFF0
ENDCHAR
STARTCHAR 0396
ENCODING 918
SWIDTH 504 0
DWIDTH 14 0
BBX 13 18 1 0
BITMAP
FFF8
FFF8
0030
0070
00E0
00C0
01C0
0380
0300
0600
0E00
1C00
1800
3800
7000
6000
FFF8
FFF8
ENDCHAR
STARTCHAR 0397
ENCODING 919
SWIDTH 504 0
DWIDTH 14 0
BBX 12 18 1 0
BITMAP
C030
C030
C030
C030
C030
C030
C030
C030
FFF0
FFF0
C030
C030
C030
C030
C030
C030
C030
C030
ENDCHAR
STARTCHAR 0398
ENCODING 920
SWIDTH 612 0
DWIDTH 17 0
BBX 15 18 1 0
BITMAP
07E0
1FF0
1C38
301C
700C
6006
6006
E006
CFE6
CFE6
C006
6006
6006
700C
301C
3838
1FF0
07E0
ENDCHAR
STARTCHAR 0399
ENCODING 921
SWIDTH 288 0
DWIDTH 8 0
BBX 6 18 1 0
BITMAP
FC
FC
30
30
30
30
30
30
30
30
30
30
30
30
30
30
FC
FC
ENDCHAR
STARTCHAR 039A
ENCODING 922
SWIDTH 540 0
DWIDTH 15 0
BBX 12 18 1 0
BITMAP
C060
C0C0
C1C0
C380
C300
C700
CE00
CC00
DC00
FE00
F600
E300
E380
C1C0
C0C0
C0E0
C070
C030
ENDCHAR
STARTCHAR 039B
ENCODING 923
SWIDTH 612 0
DWIDTH 17 0
BBX 14 18 2 0
BITMAP
0300
0780
0780
0780
0DC0
0CC0
0CC0
1860
1860
3860
3030
3030
7038
6018
6018
C01C
C00C
C00C
ENDCHAR
STARTCHAR 039C
ENCODING 924
SWIDTH 612 0
DWIDTH 17 0
BBX 16 18 1 0
BITMAP
E007
E007
E007
F00F
F00F
F01F
D81B
D81B
DC3B
CC33
CC33
C663
C663
C663
C3C3
C3C3
C3C3
C183
ENDCHAR
STARTCHAR 039D
ENCODING 925
SWIDTH 576 0
DWIDTH 16 0
BBX 14 18 1 0
BITMAP
E00C
E00C
F00C
F80C
D80C
CC0C
CE0C
C70C
C30C
C18C
C1CC
C0CC
C06C
C07C
C03C
C01C
C01C
C00C
ENDCHAR
STARTCHAR 039E
ENCODING 926
SWIDTH 504 0
DWIDTH 14 0
BBX 12 18 1 0
BITMAP
FFF0
FFF0
0000
0000
0000
0000
0000
0000
3FC0
3FC0
0000
0000
0000
0000
0000
0000
FFF0
FFF0
ENDCHAR
STARTCHAR 039F
ENCODING 927
SWIDTH 612 0
DWIDTH 17 0
BBX 15 18 1 0
BITMAP
07E0
1FF0
1C38
301C
700C
6006
6006
E006
C006
C006
C006
6006
6006
700C
301C
3838
1FF0
07E0
ENDCHAR
STARTCHAR 03A0
ENCODING 928
SWIDTH 504 0
DWIDTH 14 0
BBX 12 18 1 0
BITMAP
FFF0
FFF0
C030
C030
C030
C030
C030
C030
C030
C030
C030
C030
C030
C030
C030
C030
C030
C030
ENDCHAR
STARTCHAR 03A1
ENCODING 929
SWIDTH 468 0
DWIDTH 13 0
BBX 11 18 1 0
BITMAP
FF00
FF80
C1C0
C0E0
C060
C060
C060
C0C0
FFC0
FF80
C000
C000
C000
C000
C000
C000
C000
C000
ENDCHAR
STARTCHAR 03A3
ENCODING 931
SWIDTH 504 0
DWIDTH 14 0
BBX 12 18 1 0
BITMAP
FFF0
FFF0
6000
7000
3800
1800
1C00
0E00
0600
0600
0E00
1C00
1800
3800
7000
6000
FFF0
FFF0
ENDCHAR
STARTCHAR 03A4
ENCODING 932
SWIDTH 504 0
DWIDTH 14 0
BBX 12 18 1 0
BITMAP
FFF0
FFF0
0600
0600
0600
0600
0600
0600
0600
0600
0600
0600
0600
0600
0600
0600
0600
0600
ENDCHAR
STARTCHAR 03A5
ENCODING 933
SWIDTH 612 0
DWIDTH 17 0
BBX 14 18 2 0
BITMAP
C00C
E018
7038
3070
3860
1CE0
0DC0
0780
0780
0300
0300
0300
0300
0300
0300
0300
0300
0300
ENDCHAR
STARTCHAR 03A6
ENCODING 934
SWIDTH 576 0
DWIDTH 16 0
BBX 14 18 1 0
BITMAP
0FC0
0FC0
0300
0300
1FE0
3FF0
7338
631C
C30C
C30C
631C
7338
3FF0
1FE0
0300
0300
0FC0
0FC0
ENDCHAR
STARTCHAR 03A7
ENCODING 935
SWIDTH 612 0
DWIDTH 17 0
BBX 14 18 2 0
BITMAP
C00C
E018
7038
3070
3860
1CE0
0DC0
0780
0780
0700
0780
0DC0
1CE0
3860
3070
7038
E018
C00C
ENDCHAR
STARTCHAR 03A8
ENCODING 936
SWIDTH 576 0
DWIDTH 16 0
BBX 14 18 1 0
BITMAP
C30C
C30C
C30C
C30C
E30C
631C
7318
3B70
1FF0
0FC0
0300
0300
0300
0300
0300
0300
0300
0300
ENDCHAR
STARTCHAR 03A9
ENCODING 937
SWIDTH 612 0
DWIDTH 17 0
BBX 15 18 1 0
BITMAP
07E0
1FF0
1C38
301C
700C
6006
6006
E006
C006
C006
C006
6006
6006
700C
301C
3838
FC7E
FC7E
ENDCHAR
STARTCHAR 03AA
ENCODING 938
SWIDTH 288 0
DWIDTH 8 0
BBX 8 23 0 0
BITMAP
62
E7
67
00
00
7E
7E
18
18
18
18
18
18
18
18
18
18
18
18
18
18
7E
7E
ENDCHAR
STARTCHAR 03AB
ENCODING 939
SWIDTH 612 0
DWIDTH 17 0
BBX 14 23 2 0
BITMAP
08C0
1CE0
1CC0
0000
0000
C00C
E018
7038
3070
3860
1CE0
0DC0
0780
0780
0300
0300
0300
0300
0300
0300
0300
0300
0300
ENDCHAR
STARTCHAR 03AC
ENCODING 940
SWIDTH 576 0
DWIDTH 16 0
BBX 14 18 1 0
BITMAP
01C0
0180
0300
0200
0000
0600
1F9C
39D8
60D8
6070
E070
C070
C070
6070
60F8
70D8
3FD8
1F0C
ENDCHAR
STARTCHAR 03AD
ENCODING 941
SWIDTH 360 0
DWIDTH 10 0
BBX 8 18 1 0
BITMAP
06
0C
08
10
00
1C
3E
77
63
60
78
78
60
E0
C3
63
7F
3E
ENDCHAR
STARTCHAR 03AE
ENCODING 942
SWIDTH 468 0
DWIDTH 13 0
BBX 11 24 1 -6
BITMAP
0380
0300
0600
0800
0000
0600
DF80
F9C0
F0E0
E060
E060
C060
C060
C060
C060
C060
C060
C060
0060
0060
0060
0060
0060
0020
ENDCHAR
STARTCHAR 03AF
ENCODING 943
SWIDTH 216 0
DWIDTH 6 0
BBX 4 18 1 0
BITMAP
70
60
C0
80
00
00
C0
C0
C0
C0
C0
C0
C0
C0
C0
C0
F0
70
ENDCHAR
STARTCHAR 03B0
ENCODING 944
SWIDTH 468 0
DWIDTH 13 0
BBX 11 20 1 0
BITMAP
0180
0300
0200
3D80
3980
1000
0000
0000
C060
C060
C060
C060
C060
C060
C060
C060
6060
70C0
3FC0
1F80
ENDCHAR
STARTCHAR 03B1
ENCODING 945
SWIDTH 576 0
DWIDTH 16 0
BBX 14 13 1 0
BITMAP
0600
1F9C
39D8
60D8
6070
E070
C070
C070
6070
60F8
70D8
3FD8
1F0C
ENDCHAR
STARTCHAR 03B2
ENCODING 946
SWIDTH 432 0
DWIDTH 12 0
BBX 11 24 1 -6
BITMAP
1F00
3F80
6180
E0C0
C0C0
C0C0
C1C0
C780
C700
C780
C0C0
C0C0
C0E0
C0E0
C0C0
E1C0
FF80
DF00
C000
C000
C000
C000
C000
4000
ENDCHAR
STARTCHAR 03B3
ENCODING 947
SWIDTH 504 0
DWIDTH 14 0
BBX 12 19 1 -6
BITMAP
8000
E030
7060
3060
3860
18C0
18C0
1DC0
0D80
0D80
0780
0700
0700
0700
0F80
0D80
0D80
0F80
0300
ENDCHAR
STARTCHAR 03B4
ENCODING 948
SWIDTH 468 0
DWIDTH 13 0
BBX 11 18 1 0
BITMAP
0780
0FC0
1CE0
1800
0C00
0E00
1F00
3B80
61C0
60E0
E060
C060
C060
6060
60E0
70C0
3F80
1F00
ENDCHAR
STARTCHAR 03B5
ENCODING 949
SWIDTH 360 0
DWIDTH 10 0
BBX 8 13 1 0
BITMAP
1C
3E
77
63
60
78
78
60
E0
C3
63
7F
3E
ENDCHAR
STARTCHAR 03B6
ENCODING 950
SWIDTH 396 0
DWIDTH 11 0
BBX 10 24 1 -6
BITMAP
FF80
FF80
3800
3000
6000
6000
6000
C000
C000
C000
C000
6000
6000
6000
7000
3800
1F00
0F80
0180
00C0
01C0
0380
0700
0E00
ENDCHAR
STARTCHAR 03B7
ENCODING 951
SWIDTH 468 0
DWIDTH 13 0
BBX 11 19 1 -6
BITMAP
0600
DF80
F9C0
F0E0
E060
E060
C060
C060
C060
C060
C060
C060
C060
0060
0060
0060
0060
0060
0020
ENDCHAR
STARTCHAR 03B8
ENCODING 952
SWIDTH 468 0
DWIDTH 13 0
BBX 11 18 1 0
BITMAP
0F00
1F80
31C0
70C0
60C0
6060
6060
C060
FFE0
FFE0
C060
6060
6060
60E0
70C0
31C0
1F80
0F00
ENDCHAR
STARTCHAR 03B9
ENCODING 953
SWIDTH 216 0
DWIDTH 6 0
BBX 4 12 1 0
BITMAP
C0
C0
C0
C0
C0
C0
C0
C0
C0
C0
F0
70
ENDCHAR
STARTCHAR 03BA
ENCODING 954
SWIDTH 432 0
DWIDTH 12 0
BBX 10 12 1 0
BITMAP
C700
C600
CC00
DC00
D800
F800
FC00
EE00
C600
C300
C380
C1C0
ENDCHAR
STARTCHAR 03BB
ENCODING 955
SWIDTH 468 0
DWIDTH 13 0
BBX 10 18 2 0
BITMAP
E000
7000
1800
1800
0C00
0C00
0C00
1E00
1E00
3F00
3300
3300
7380
6180
6180
C0C0
C0C0
C0C0
ENDCHAR
STARTCHAR 03BC
ENCODING 956
SWIDTH 468 0
DWIDTH 13 0
BBX 11 18 1 -6
BITMAP
C060
C060
C060
C060
C060
C060
C060
E060
E0E0
F0E0
FFE0
DF60
C000
C000
C000
C000
C000
4000
ENDCHAR
STARTCHAR 03BD
ENCODING 957
SWIDTH 432 0
DWIDTH 12 0
BBX 9 13 2 0
BITMAP
0E00
CF00
C380
E180
6180
6180
3300
3300
3300
1E00
1E00
1E00
0C00
ENDCHAR
STARTCHAR 03BE
ENCODING 958
SWIDTH 396 0
DWIDTH 11 0
BBX 10 24 1 -6
BITMAP
FF80
FF80
3000
6000
6000
6000
7000
3E00
1E00
7E00
6000
E000
C000
C000
6000
7000
3F00
1F80
0180
00C0
01C0
0380
0700
0E00
ENDCHAR
STARTCHAR 03BF
ENCODING 959
SWIDTH 468 0
DWIDTH 13 0
BBX 11 13 1 0
BITMAP
0600
1F80
39C0
60C0
6060
E060
C060
C060
6060
60E0
70C0
3F80
1F00
ENDCHAR
STARTCHAR 03C0
ENCODING 960
SWIDTH 468 0
DWIDTH 13 0
BBX 11 12 1 0
BITMAP
FFE0
FFE0
30C0
30C0
30C0
30C0
30C0
30C0
30C0
70C0
E0C0
C0C0
ENDCHAR
STARTCHAR 03C1
ENCODING 961
SWIDTH 468 0
DWIDTH 13 0
BBX 11 19 1 -6
BITMAP
0600
1F80
39C0
60C0
6060
E060
C060
C060
E060
E0E0
F0C0
FF80
DF00
C000
C000
C000
C000
C000
4000
ENDCHAR
STARTCHAR 03C2
ENCODING 962
SWIDTH 432 0
DWIDTH 12 0
BBX 10 18 1 -6
BITMAP
1FC0
3F80
7000
6000
E000
C000
C000
6000
6000
7000
3F00
0F80
0180
00C0
01C0
0380
0700
0E00
ENDCHAR
STARTCHAR 03C3
ENCODING 963
SWIDTH 504 0
DWIDTH 14 0
BBX 13 12 1 0
BITMAP
1FF8
3FF0
70C0
6060
E060
C060
C060
E060
6060
70C0
3FC0
1F00
ENDCHAR
STARTCHAR 03C4
ENCODING 964
SWIDTH 360 0
DWIDTH 10 0
BBX 9 12 1 0
BITMAP
FF80
FF80
1C00
1C00
1C00
1C00
1C00
1C00
1C00
1C00
1F00
0F00
ENDCHAR
STARTCHAR 03C5
ENCODING 965
SWIDTH 468 0
DWIDTH 13 0
BBX 11 12 1 0
BITMAP
C060
C060
C060
C060
C060
C060
C060
C060
6060
70C0
3FC0
1F80
ENDCHAR
STARTCHAR 03C6
ENCODING 966
SWIDTH 576 0
DWIDTH 16 0
BBX 14 18 1 -6
BITMAP
18F8
39F8
739C
630C
E30C
C30C
C30C
631C
6318
3B38
3FF0
0FC0
0300
0300
0300
0300
0300
0100
ENDCHAR
STARTCHAR 03C7
ENCODING 967
SWIDTH 396 0
DWIDTH 11 0
BBX 8 17 2 -5
BITMAP
C3
C6
E6
6E
6C
3C
3C
38
18
38
3C
3C
6C
6E
E6
C6
C3
ENDCHAR
STARTCHAR 03C8
ENCODING 968
SWIDTH 468 0
DWIDTH 13 0
BBX 11 18 1 -6
BITMAP
C660
C660
C660
C660
C660
C660
C660
C660
6660
76C0
3FC0
1F80
0600
0600
0600
0600
0600
0200
ENDCHAR
STARTCHAR 03C9
ENCODING 969
SWIDTH 576 0
DWIDTH 16 0
BBX 15 12 1 1
BITMAP
3018
701C
600C
600C
C00E
C006
C386
E38C
638C
638C
3EF8
3C70
ENDCHAR
STARTCHAR 03CA
ENCODING 970
SWIDTH 216 0
DWIDTH 6 0
BBX 7 17 -1 0
BITMAP
CE
CE
04
00
00
30
30
30
30
30
30
30
30
30
30
3C
1C
ENDCHAR
STARTCHAR 03CB
ENCODING 971
SWIDTH 468 0
DWIDTH 13 0
BBX 11 17 1 0
BITMAP
3980
39C0
1000
0000
0000
C060
C060
C060
C060
C060
C060
C060
C060
6060
70C0
3FC0
1F80
ENDCHAR
STARTCHAR 03CC
ENCODING 972
SWIDTH 468 0
DWIDTH 13 0
BBX 11 18 1 0
BITMAP
0380
0300
0600
0800
0000
0600
1F80
39C0
60C0
6060
E060
C060
C060
6060
60E0
70C0
3F80
1F00
ENDCHAR
STARTCHAR 03CD
ENCODING 973
SWIDTH 468 0
DWIDTH 13 0
BBX 11 18 1 0
BITMAP
0380
0300
0600
0800
0000
0000
C060
C060
C060
C060
C060
C060
C060
C060
6060
70C0
3FC0
1F80
ENDCHAR
STARTCHAR 03CE
ENCODING 974
SWIDTH 576 0
DWIDTH 16 0
BBX 15 18 1 0
BITMAP
00C0
0180
0100
0200
0000
0000
3018
701C
600C
600C
C00E
C006
C386
E38C
638C
638C
3EF8
3C70
ENDCHAR
STARTCHAR 03CF
ENCODING 975
SWIDTH 540 0
DWIDTH 15 0
BBX 12 22 1 -5
BITMAP
C060
C0C0
C1C0
C380
C300
C700
CE00
CC00
DC00
FE00
F600
E300
E380
C1C0
C0C0
C0E0
C070
C030
00F0
01E0
0380
0700
ENDCHAR
STARTCHAR 03D0
ENCODING 976
SWIDTH 432 0
DWIDTH 12 0
BBX 11 18 1 0
BITMAP
1F00
3F80
6180
E0C0
C0C0
C0C0
C1C0
C780
C700
C780
C0C0
C0C0
C0E0
C0E0
C0C0
61C0
7F80
1F00
ENDCHAR
STARTCHAR 03D1
ENCODING 977
SWIDTH 648 0
DWIDTH 18 0
BBX 16 18 1 0
BITMAP
01C0
03E0
0330
0338
0318
0318
F39F
79CE
18FC
187C
180C
181C
1818
0C18
0C38
0E30
07F0
03E0
ENDCHAR
STARTCHAR 03D2
ENCODING 978
SWIDTH 540 0
DWIDTH 15 0
BBX 13 18 1 0
BITMAP
E038
F878
1CE0
0DC0
0780
0700
0700
0300
0300
0300
0300
0300
0300
0300
0300
0300
0300
0300
ENDCHAR
STARTCHAR 03D3
ENCODING 979
SWIDTH 756 0
DWIDTH 21 0
BBX 18 18 2 0
BITMAP
7701C0
67C3C0
C0E700
806E00
003C00
003C00
001800
001800
001800
001800
001800
001800
001800
001800
001800
001800
001800
001800
ENDCHAR
STARTCHAR 03D4
ENCODING 980
SWIDTH 540 0
DWIDTH 15 0
BBX 13 23 1 0
BITMAP
08C0
1CE0
1CC0
0000
0000
E038
F878
1CE0
0DC0
0780
0700
0700
0300
0300
0300
0300
0300
0300
0300
0300
0300
0300
0300
ENDCHAR
STARTCHAR 03D5
ENCODING 981
SWIDTH 468 0
DWIDTH 13 0
BBX 11 24 1 -6
BITMAP
0600
0600
0600
0600
0600
0E00
1F80
3FC0
66C0
6660
E660
C660
C660
6660
66E0
76C0
3FC0
1F00
0600
0600
0600
0600
0600
0200
ENDCHAR
STARTCHAR 03D6
ENCODING 982
SWIDTH 576 0
DWIDTH 16 0
BBX 15 12 1 0
BITMAP
FFFE
FFFE
600C
600C
C00E
C006
C386
E38C
638C
638C
3EF8
3C70
ENDCHAR
STARTCHAR 03D7
ENCODING 983
SWIDTH 648 0
DWIDTH 18 0
BBX 15 18 2 -5
BITMAP
E01C
F83E
1874
0CE0
0DE0
0DE0
0FE0
0F60
0E60
0C60
1C60
F87C
F03E
0006
0006
0006
001E
001E
ENDCHAR
STARTCHAR 03D8
ENCODING 984
SWIDTH 612 0
DWIDTH 17 0
BBX 15 23 1 -5
BITMAP
07E0
1FF0
1C38
301C
700C
6006
6006
E006
C006
C006
C006
6006
6006
700C
301C
3838
1FF0
07E0
0180
0180
0180
0180
0180
ENDCHAR
STARTCHAR 03D9
ENCODING 985
SWIDTH 468 0
DWIDTH 13 0
BBX 11 19 1 -6
BITMAP
0600
1F80
39C0
60C0
6060
E060
C060
C060
6060
60E0
70C0
3FC0
1F00
0600
0600
0600
0600
0600
0200
ENDCHAR
STARTCHAR 03DA
ENCODING 986
SWIDTH 576 0
DWIDTH 16 0
BBX 14 24 1 -6
BITMAP
07E0
1FF0
3838
701C
6008
6000
E000
C000
C000
6000
6000
7000
3C00
1F00
07C0
01E0
0070
0018
3018
1818
1838
1E70
0FE0
0180
ENDCHAR
STARTCHAR 03DB
ENCODING 987
SWIDTH 504 0
DWIDTH 14 0
BBX 10 19 1 -6
BITMAP
0600
1F80
39C0
60C0
6000
E000
C000
C000
6000
6000
7000
3F00
0F80
0180
00C0
01C0
0380
0700
0E00
ENDCHAR
STARTCHAR 03DC
ENCODING 988
SWIDTH 504 0
DWIDTH 14 0
BBX 12 18 1 0
BITMAP
FFF0
FFF0
C000
C000
C000
C000
FF80
FF80
C000
C000
C000
C000
C000
C000
C000
C000
C000
C000
ENDCHAR
STARTCHAR 03DD
ENCODING 989
SWIDTH 396 0
DWIDTH 11 0
BBX 9 18 1 -6
BITMAP
FF80
FF80
C000
C000
C000
FF80
FF80
C000
C000
C000
C000
C000
C000
C000
C000
C000
C000
4000
ENDCHAR
STARTCHAR 03DE
ENCODING 990
SWIDTH 468 0
DWIDTH 13 0
BBX 10 18 2 0
BITMAP
E000
F000
3000
3800
3000
3000
3000
6000
7F80
FF80
0300
0300
0300
0600
0600
0600
03C0
01C0
ENDCHAR
STARTCHAR 03DF
ENCODING 991
SWIDTH 396 0
DWIDTH 11 0
BBX 8 18 2 0
BITMAP
18
38
30
30
70
60
60
C0
FF
FE
06
0C
0C
0C
18
18
38
30
ENDCHAR
STARTCHAR 03E0
ENCODING 992
SWIDTH 576 0
DWIDTH 16 0
BBX 14 18 1 0
BITMAP
0F80
3FE0
7070
60F8
41D8
039C
070C
0E3C
1C7C
78EC
E1CC
438C
071C
0E18
3C38
3070
01E0
01C0
ENDCHAR
STARTCHAR 03E1
ENCODING 993
SWIDTH 396 0
DWIDTH 11 0
BBX 8 19 2 -6
BITMAP
30
F8
DC
0E
0E
1E
3B
73
C3
07
0F
1F
3B
36
06
0E
1C
38
30
ENDCHAR
STARTCHAR 03E2
ENCODING 994
SWIDTH 792 0
DWIDTH 22 0
BBX 20 24 1 -6
BITMAP
C06030
C06030
C06030
C06030
C06030
C06030
C06030
C06030
C06030
C06030
C06030
C06030
C06030
606030
60F070
70F8F0
3FDFF0
1F0FB0
000030
03E070
07F060
063DE0
061FC0
000200
ENDCHAR
STARTCHAR 03E3
ENCODING 995
SWIDTH 576 0
DWIDTH 16 0
BBX 16 18 0 -6
BITMAP
61C3
61C3
61C3
61C3
61C3
61C3
61C3
61C3
61C7
31C7
3F7F
1E3F
0006
3E06
7F0E
63DC
C1F8
0060
ENDCHAR
STARTCHAR 03E4
ENCODING 996
SWIDTH 432 0
DWIDTH 12 0
BBX 11 18 1 0
BITMAP
1C60
3C60
7060
6060
6060
C060
C060
C060
6060
60E0
39E0
3FE0
0F60
0060
0060
0060
0060
0060
ENDCHAR
STARTCHAR 03E5
ENCODING 997
SWIDTH 432 0
DWIDTH 12 0
BBX 11 19 1 -6
BITMAP
0400
1C60
3860
6060
6060
E060
C060
C060
6060
60E0
70E0
3FE0
1F60
0060
0060
0060
0060
0060
0020
ENDCHAR
STARTCHAR 03E6
ENCODING 998
SWIDTH 468 0
DWIDTH 13 0
BBX 11 18 1 0
BITMAP
C000
C000
C000
C000
C000
CE00
FF80
FBC0
E0C0
C0E0
C060
C060
C060
0060
00C0
01C0
0780
0700
ENDCHAR
STARTCHAR 03E7
ENCODING 999
SWIDTH 648 0
DWIDTH 18 0
BBX 15 18 2 0
BITMAP
0380
07C0
0660
0670
0630
0630
073E
039C
01F8
00F8
0018
0038
1030
3830
3870
7C60
EFE0
C7C0
ENDCHAR
STARTCHAR 03E8
ENCODING 1000
SWIDTH 468 0
DWIDTH 13 0
BBX 11 18 1 0
BITMAP
1F00
3F80
70C0
60C0
60E0
00C0
01C0
0380
0F00
3C00
7000
6000
E000
C060
6060
70E0
3FC0
1F80
ENDCHAR
STARTCHAR 03E9
ENCODING 1001
SWIDTH 360 0
DWIDTH 10 0
BBX 8 13 1 0
BITMAP
18
3E
77
63
03
0F
3C
70
E0
C3
63
7F
3E
ENDCHAR
STARTCHAR 03EA
ENCODING 1002
SWIDTH 720 0
DWIDTH 20 0
BBX 18 18 1 0
BITMAP
1C0E00
0E0C00
061C00
073800
03B000
01F000
00E000
00E000
01E000
03B000
073800
061C00
0E0C00
1C0E00
180700
300300
FFFFC0
FFFFC0
ENDCHAR
STARTCHAR 03EB
ENCODING 1003
SWIDTH 504 0
DWIDTH 14 0
BBX 13 12 1 0
BITMAP
19C0
0D80
0F80
0700
0700
0F80
1DC0
18C0
3060
7070
FFF8
FFF8
ENDCHAR
STARTCHAR 03EC
ENCODING 1004
SWIDTH 468 0
DWIDTH 13 0
BBX 13 20 1 0
BITMAP
0018
0030
07F0
1FE0
3800
6000
6000
EE00
DF80
F9C0
E0C0
E060
E060
C060
C060
6060
60E0
70C0
3F80
1F00
ENDCHAR
STARTCHAR 03ED
ENCODING 1005
SWIDTH 468 0
DWIDTH 13 0
BBX 11 18 1 0
BITMAP
00E0
01C0
1F80
3F00
7000
6E00
7F80
F9C0
E0C0
E060
E060
C060
C060
6060
60E0
70C0
3F80
1F00
ENDCHAR
STARTCHAR 03EE
ENCODING 1006
SWIDTH 504 0
DWIDTH 14 0
BBX 12 18 1 0
BITMAP
0600
0600
0600
FFF0
FFF0
0600
0600
0600
0600
0600
0600
0600
0600
0600
0600
0600
0600
0600
ENDCHAR
STARTCHAR 03EF
ENCODING 1007
SWIDTH 360 0
DWIDTH 10 0
BBX 9 18 1 0
BITMAP
1800
1800
1800
1800
1800
1800
FF80
FF80
1800
1800
1800
1800
1800
1800
1800
1800
1800
1800
ENDCHAR
STARTCHAR 03F0
ENCODING 1008
SWIDTH 648 0
DWIDTH 18 0
BBX 15 13 2 0
BITMAP
E01C
F83E
1874
0CE0
0DE0
0DE0
0FE0
0F60
0E60
0C60
1C60
F87C
F03E
ENDCHAR
STARTCHAR 03F1
ENCODING 1009
SWIDTH 468 0
DWIDTH 13 0
BBX 11 19 1 -6
BITMAP
0600
1F80
39C0
60C0
6060
E060
C060
C060
E060
E0E0
F0C0
FF80
DF00
C000
C000
6000
79C0
3F80
0E00
ENDCHAR
STARTCHAR 03F2
ENCODING 1010
SWIDTH 432 0
DWIDTH 12 0
BBX 10 13 1 0
BITMAP
0600
1F80
39C0
60C0
6000
E000
C000
C000
6000
60C0
70C0
3FC0
1F00
ENDCHAR
STARTCHAR 03F3
ENCODING 1011
SWIDTH 144 0
DWIDTH 4 0
BBX 7 23 -3 -6
BITMAP
0E
0E
04
00
00
0C
0C
0C
0C
0C
0C
0C
0C
0C
0C
0C
0C
0C
0C
0C
5C
F8
70
ENDCHAR
STARTCHAR 03F4
ENCODING 1012
SWIDTH 612 0
DWIDTH 17 0
BBX 15 18 1 0
BITMAP
07E0
1FF0
1C38
301C
700C
6006
6006
E006
FFFE
FFFE
C006
6006
6006
700C
301C
3838
1FF0
07E0
ENDCHAR
STARTCHAR 03F5
ENCODING 1013
SWIDTH 432 0
DWIDTH 12 0
BBX 10 13 1 0
BITMAP
0600
1F80
39C0
60C0
6000
E000
FE00
FE00
6000
60C0
70C0
3FC0
1F00
ENDCHAR
STARTCHAR 03F6
ENCODING 1014
SWIDTH 432 0
DWIDTH 12 0
BBX 11 13 1 0
BITMAP
0C00
3F00
7380
E1C0
00C0
00C0
0FE0
0FE0
00C0
40C0
61C0
7F80
1F00
ENDCHAR
STARTCHAR 03F7
ENCODING 1015
SWIDTH 468 0
DWIDTH 13 0
BBX 11 18 1 0
BITMAP
C000
C000
C000
C000
FF00
FF80
C1C0
C0E0
C060
C060
C060
C1C0
FFC0
FF00
C000
C000
C000
C000
ENDCHAR
STARTCHAR 03F8
ENCODING 1016
SWIDTH 468 0
DWIDTH 13 0
BBX 11 24 1 -6
BITMAP
C000
C000
C000
C000
C000
CE00
DF80
F9C0
E0C0
E060
E060
C060
C060
E060
E0E0
F0C0
FF80
DF00
C000
C000
C000
C000
C000
4000
ENDCHAR
STARTCHAR 03F9
ENCODING 1017
SWIDTH 576 0
DWIDTH 16 0
BBX 14 18 1 0
BITMAP
07E0
1FF0
1C38
301C
7008
6000
6000
E000
C000
C000
C000
6000
6000
7008
301C
3838
1FF0
07E0
ENDCHAR
STARTCHAR 03FA
ENCODING 1018
SWIDTH 612 0
DWIDTH 17 0
BBX 15 18 1 0
BITMAP
E006
F00E
F81E
D83E
DC36
CE76
C6E6
C3C6
C3C6
C186
C006
C006
C006
C006
C006
C006
C006
C006
ENDCHAR
STARTCHAR 03FB
ENCODING 1019
SWIDTH 468 0
DWIDTH 13 0
BBX 12 18 1 -6
BITMAP
E070
E070
F0F0
F0F0
F0F0
D9B0
D9B0
D9B0
CF30
CF30
CF30
C630
C000
C000
C000
C000
C000
4000
ENDCHAR
STARTCHAR 03FC
ENCODING 1020
SWIDTH 468 0
DWIDTH 13 0
BBX 13 19 -1 -6
BITMAP
0180
07E0
0E70
1830
1818
3818
3018
3018
3818
3838
3C30
3FE0
37C0
3000
FC00
FC00
3000
3000
1000
ENDCHAR
STARTCHAR 03FD
ENCODING 1021
SWIDTH 576 0
DWIDTH 16 0
BBX 13 18 2 0
BITMAP
1F00
7FC0
E0E0
C070
8030
0038
0018
0018
0018
0018
0018
0018
0038
8030
C070
E0E0
7FC0
1F80
ENDCHAR
STARTCHAR 03FE
ENCODING 1022
SWIDTH 576 0
DWIDTH 16 0
BBX 14 18 1 0
BITMAP
07E0
1FF0
1C38
301C
7008
6000
6000
E000
C380
C380
C000
6000
6000
7008
301C
3838
1FF0
07E0
ENDCHAR
STARTCHAR 03FF
ENCODING 1023
SWIDTH 576 0
DWIDTH 16 0
BBX 13 18 2 0
BITMAP
1F00
7FC0
E0E0
C070
8030
0038
0018
0018
0E18
0E18
0018
0018
0038
8030
C070
E0E0
7FC0
1F80
ENDCHAR
STARTCHAR 0400
ENCODING 1024
SWIDTH 504 0
DWIDTH 14 0
BBX 12 23 1 0
BITMAP
1C00
0400
0200
0100
0000
FFF0
FFF0
C000
C000
C000
C000
C000
C000
FFC0
FFC0
C000
C000
C000
C000
C000
C000
FFF0
FFF0
ENDCHAR
STARTCHAR 0401
ENCODING 1025
SWIDTH 504 0
DWIDTH 14 0
BBX 12 23 1 0
BITMAP
1080
39C0
19C0
0000
0000
FFF0
FFF0
C000
C000
C000
C000
C000
C000
FFC0
FFC0
C000
C000
C000
C000
C000
C000
FFF0
FFF0
ENDCHAR
STARTCHAR 0402
ENCODING 1026
SWIDTH 612 0
DWIDTH 17 0
BBX 16 18 1 0
BITMAP
FFF0
FFF0
0600
0600
0600
0660
07F8
079C
070E
0606
0606
0607
0607
0606
0606
060E
063C
0638
ENDCHAR
STARTCHAR 0403
ENCODING 1027
SWIDTH 504 0
DWIDTH 14 0
BBX 12 23 1 0
BITMAP
0380
0200
0400
0000
0000
FFF0
FFF0
C000
C000
C000
C000
C000
C000
C000
C000
C000
C000
C000
C000
C000
C000
C000
C000
ENDCHAR
STARTCHAR 0404
ENCODING 1028
SWIDTH 576 0
DWIDTH 16 0
BBX 14 18 1 0
BITMAP
07E0
1FF0
1C38
301C
7008
6000
6000
E000
FFC0
FFC0
C000
6000
6000
7008
301C
3838
1FF0
07E0
ENDCHAR
STARTCHAR 0405
ENCODING 1029
SWIDTH 468 0
DWIDTH 13 0
BBX 11 18 1 0
BITMAP
1F00
3F80
71C0
60C0
60E0
6000
7000
3C00
1F00
0780
01C0
00E0
0060
C060
6060
70E0
3FC0
1F80
ENDCHAR
STARTCHAR 0406
ENCODING 1030
SWIDTH 288 0
DWIDTH 8 0
BBX 6 18 1 0
BITMAP
FC
FC
30
30
30
30
30
30
30
30
30
30
30
30
30
30
FC
FC
ENDCHAR
STARTCHAR 0407
ENCODING 1031
SWIDTH 288 0
DWIDTH 8 0
BBX 8 23 0 0
BITMAP
62
E7
67
00
00
7E
7E
18
18
18
18
18
18
18
18
18
18
18
18
18
18
7E
7E
ENDCHAR
STARTCHAR 0408
ENCODING 1032
SWIDTH 360 0
DWIDTH 10 0
BBX 8 18 1 0
BITMAP
03
03
03
03
03
03
03
03
03
03
03
03
03
03
C3
E3
7E
3C
ENDCHAR
STARTCHAR 0409
ENCODING 1033
SWIDTH 864 0
DWIDTH 24 0
BBX 22 18 1 0
BITMAP
3FF800
3FF800
301800
301800
301800
301800
301800
301F80
301FF0
301878
301818
30180C
30180C
30180C
30181C
701838
E01FF0
C01FE0
ENDCHAR
STARTCHAR 040A
ENCODING 1034
SWIDTH 828 0
DWIDTH 23 0
BBX 21 18 1 0
BITMAP
C03000
C03000
C03000
C03000
C03000
C03000
C03000
C03F80
FFFFE0
FFF0F0
C03038
C03018
C03018
C03018
C03018
C03070
C03FE0
C03FC0
ENDCHAR
STARTCHAR 040B
ENCODING 1035
SWIDTH 648 0
DWIDTH 18 0
BBX 16 18 1 0
BITMAP
FFF0
FFF0
0600
0600
0600
0630
06FC
07CE
0706
0703
0603
0603
0603
0603
0603
0603
0603
0603
ENDCHAR
STARTCHAR 040C
ENCODING 1036
SWIDTH 504 0
DWIDTH 14 0
BBX 12 23 1 0
BITMAP
0180
0300
0200
0400
0000
C060
C1E0
C380
C300
C300
C300
C300
C600
DE00
FE00
E600
C300
C380
C180
C0C0
C0E0
C070
C030
ENDCHAR
STARTCHAR 040D
ENCODING 1037
SWIDTH 504 0
DWIDTH 14 0
BBX 12 23 1 0
BITMAP
1C00
0400
0200
0100
0000
C030
C030
C030
C030
C070
C0F0
C1F0
C3B0
C730
CE30
DC30
F830
F030
E030
C030
C030
C030
C030
ENDCHAR
STARTCHAR 040E
ENCODING 1038
SWIDTH 540 0
DWIDTH 15 0
BBX 13 23 1 0
BITMAP
0C30
0660
07C0
0000
0000
3018
1818
1830
1830
0C30
0C60
0E60
06E0
06C0
07C0
03C0
0380
0180
0300
0300
E700
7E00
3C00
ENDCHAR
STARTCHAR 040F
ENCODING 1039
SWIDTH 504 0
DWIDTH 14 0
BBX 12 21 1 -3
BITMAP
C030
C030
C030
C030
C030
C030
C030
C030
C030
C030
C030
C030
C030
C030
C030
C030
FFF0
FFF0
0600
0600
0600
ENDCHAR
STARTCHAR 0410
ENCODING 1040
SWIDTH 612 0
DWIDTH 17 0
BBX 14 18 2 0
BITMAP
0300
0780
0780
0780
0DC0
0CC0
0CC0
1860
1860
3FE0
3FF0
3030
7038
6018
6018
C01C
C00C
C00C
ENDCHAR
STARTCHAR 0411
ENCODING 1041
SWIDTH 504 0
DWIDTH 14 0
BBX 12 18 1 0
BITMAP
FFC0
FFC0
C000
C000
C000
C000
C000
FE00
FFC0
C1E0
C060
C070
C030
C030
C060
C0E0
FFC0
FF80
ENDCHAR
STARTCHAR 0412
ENCODING 1042
SWIDTH 504 0
DWIDTH 14 0
BBX 12 18 1 0
BITMAP
FF00
FFC0
C0C0
C060
C060
C060
C0E0
FFC0
FFC0
C1E0
C060
C070
C030
C030
C060
C0E0
FFC0
FF80
ENDCHAR
STARTCHAR 0413
ENCODING 1043
SWIDTH 504 0
DWIDTH 14 0
BBX 12 18 1 0
BITMAP
FFF0
FFF0
C000
C000
C000
C000
C000
C000
C000
C000
C000
C000
C000
C000
C000
C000
C000
C000
ENDCHAR
STARTCHAR 0414
ENCODING 1044
SWIDTH 648 0
DWIDTH 18 0
BBX 17 21 1 -3
BITMAP
0FFE00
0FFE00
0C0600
0C0600
0C0600
0C0600
0C0600
0C0600
0C0600
0C0600
0C0600
0C0600
0C0600
0C0600
0C0600
1C0600
FFFF80
FFFF80
C00180
C00180
C00180
ENDCHAR
STARTCHAR 0415
ENCODING 1045
SWIDTH 504 0
DWIDTH 14 0
BBX 12 18 1 0
BITMAP
FFF0
FFF0
C000
C000
C000
C000
C000
C000
FFC0
FFC0
C000
C000
C000
C000
C000
C000
FFF0
FFF0
ENDCHAR
STARTCHAR 0416
ENCODING 1046
SWIDTH 900 0
DWIDTH 25 0
BBX 21 18 2 0
BITMAP
603030
7830F0
1830C0
0C3180
0C3180
0C3180
0C3180
063380
07BF00
07FF00
067300
0C3180
1C31C0
3830E0
303060
703030
E03038
C03018
ENDCHAR
STARTCHAR 0417
ENCODING 1047
SWIDTH 504 0
DWIDTH 14 0
BBX 13 18 1 0
BITMAP
0F80
3FE0
3060
6030
6030
0030
0060
07E0
07C0
01E0
0070
0030
0038
C038
6030
7070
3FE0
1FC0
ENDCHAR
STARTCHAR 0418
ENCODING 1048
SWIDTH 504 0
DWIDTH 14 0
BBX 12 18 1 0
BITMAP
C030
C030
C030
C030
C070
C0F0
C1F0
C3B0
C730
CE30
DC30
F830
F030
E030
C030
C030
C030
C030
ENDCHAR
STARTCHAR 0419
ENCODING 1049
SWIDTH 504 0
DWIDTH 14 0
BBX 12 23 1 0
BITMAP
30C0
1980
0F80
0000
0000
C030
C030
C030
C030
C070
C0F0
C1F0
C3B0
C730
CE30
DC30
F830
F030
E030
C030
C030
C030
C030
ENDCHAR
STARTCHAR 041A
ENCODING 1050
SWIDTH 504 0
DWIDTH 14 0
BBX 12 18 1 0
BITMAP
C060
C1E0
C380
C300
C300
C300
C300
C600
DE00
FE00
E600
C300
C380
C180
C0C0
C0E0
C070
C030
ENDCHAR
STARTCHAR 041B
ENCODING 1051
SWIDTH 504 0
DWIDTH 14 0
BBX 13 18 1 0
BITMAP
3FF8
3FF8
3018
3018
3018
3018
3018
3018
3018
3018
3018
3018
3018
3018
3018
7018
E018
C018
ENDCHAR
STARTCHAR 041C
ENCODING 1052
SWIDTH 612 0
DWIDTH 17 0
BBX 16 18 1 0
BITMAP
E007
E007
E007
F00F
F00F
F01F
D81B
D81B
DC3B
CC33
CC33
C663
C663
C663
C3C3
C3C3
C3C3
C183
ENDCHAR
STARTCHAR 041D
ENCODING 1053
SWIDTH 504 0
DWIDTH 14 0
BBX 12 18 1 0
BITMAP
C030
C030
C030
C030
C030
C030
C030
C030
FFF0
FFF0
C030
C030
C030
C030
C030
C030
C030
C030
ENDCHAR
STARTCHAR 041E
ENCODING 1054
SWIDTH 612 0
DWIDTH 17 0
BBX 15 18 1 0
BITMAP
07E0
1FF0
1C38
301C
700C
6006
6006
E006
C006
C006
C006
6006
6006
700C
301C
3838
1FF0
07E0
ENDCHAR
STARTCHAR 041F
ENCODING 1055
SWIDTH 504 0
DWIDTH 14 0
BBX 12 18 1 0
BITMAP
FFF0
FFF0
C030
C030
C030
C030
C030
C030
C030
C030
C030
C030
C030
C030
C030
C030
C030
C030
ENDCHAR
STARTCHAR 0420
ENCODING 1056
SWIDTH 468 0
DWIDTH 13 0
BBX 11 18 1 0
BITMAP
FF00
FF80
C1C0
C0E0
C060
C060
C060
C0C0
FFC0
FF80
C000
C000
C000
C000
C000
C000
C000
C000
ENDCHAR
STARTCHAR 0421
ENCODING 1057
SWIDTH 576 0
DWIDTH 16 0
BBX 14 18 1 0
BITMAP
07E0
1FF0
1C38
301C
7008
6000
6000
E000
C000
C000
C000
6000
6000
7008
301C
3838
1FF0
07E0
ENDCHAR
STARTCHAR 0422
ENCODING 1058
SWIDTH 504 0
DWIDTH 14 0
BBX 12 18 1 0
BITMAP
FFF0
FFF0
0600
0600
0600
0600
0600
0600
0600
0600
0600
0600
0600
0600
0600
0600
0600
0600
ENDCHAR
STARTCHAR 0423
ENCODING 1059
SWIDTH 540 0
DWIDTH 15 0
BBX 13 18 1 0
BITMAP
3018
1818
1830
1830
0C30
0C60
0E60
06E0
06C0
07C0
03C0
0380
0180
0300
0300
E700
7E00
3C00
ENDCHAR
STARTCHAR 0424
ENCODING 1060
SWIDTH 576 0
DWIDTH 16 0
BBX 15 18 1 0
BITMAP
0380
0380
0380
0380
3FF8
7FFC
638C
E38C
C386
C386
E38C
638C
7FFC
3FF8
0380
0380
0380
0380
ENDCHAR
STARTCHAR 0425
ENCODING 1061
SWIDTH 612 0
DWIDTH 17 0
BBX 14 18 2 0
BITMAP
C00C
E018
7038
3070
3860
1CE0
0DC0
0780
0780
0700
0780
0DC0
1CE0
3860
3070
7038
E018
C00C
ENDCHAR
STARTCHAR 0426
ENCODING 1062
SWIDTH 576 0
DWIDTH 16 0
BBX 14 21 1 -3
BITMAP
C030
C030
C030
C030
C030
C030
C030
C030
C030
C030
C030
C030
C030
C030
C030
C030
FFFC
FFFC
000C
000C
000C
ENDCHAR
STARTCHAR 0427
ENCODING 1063
SWIDTH 504 0
DWIDTH 14 0
BBX 13 18 1 0
BITMAP
C018
C018
C018
C018
C018
E018
6018
6018
3038
3FF8
0FF8
0018
0018
0018
0018
0018
0018
0018
ENDCHAR
STARTCHAR 0428
ENCODING 1064
SWIDTH 720 0
DWIDTH 20 0
BBX 18 18 1 0
BITMAP
C0C0C0
C0C0C0
C0C0C0
C0C0C0
C0C0C0
C0C0C0
C0C0C0
C0C0C0
C0C0C0
C0C0C0
C0C0C0
C0C0C0
C0C0C0
C0C0C0
C0C0C0
C0C0C0
FFFFC0
FFFFC0
ENDCHAR
STARTCHAR 0429
ENCODING 1065
SWIDTH 792 0
DWIDTH 22 0
BBX 20 21 1 -3
BITMAP
C0C0C0
C0C0C0
C0C0C0
C0C0C0
C0C0C0
C0C0C0
C0C0C0
C0C0C0
C0C0C0
C0C0C0
C0C0C0
C0C0C0
C0C0C0
C0C0C0
C0C0C0
C0C0C0
FFFFF0
FFFFF0
000030
000030
000030
ENDCHAR
STARTCHAR 042A
ENCODING 1066
SWIDTH 648 0
DWIDTH 18 0
BBX 16 18 1 0
BITMAP
FC00
FC00
0C00
0C00
0C00
0C00
0C00
0FE0
0FFC
0C1E
0C06
0C03
0C03
0C03
0C07
0C0E
0FFC
0FF8
ENDCHAR
STARTCHAR 042B
ENCODING 1067
SWIDTH 612 0
DWIDTH 17 0
BBX 15 18 1 0
BITMAP
C006
C006
C006
C006
C006
C006
C006
FE06
FFC6
C1E6
C066
C076
C036
C036
C066
C0E6
FFC6
FF86
ENDCHAR
STARTCHAR 042C
ENCODING 1068
SWIDTH 504 0
DWIDTH 14 0
BBX 12 18 1 0
BITMAP
C000
C000
C000
C000
C000
C000
C000
FE00
FFC0
C1E0
C060
C070
C030
C030
C060
C0E0
FFC0
FF80
ENDCHAR
STARTCHAR 042D
ENCODING 1069
SWIDTH 576 0
DWIDTH 16 0
BBX 13 18 2 0
BITMAP
1F00
7FC0
E0E0
C070
8030
0038
0018
0018
0FF8
0FF8
0018
0018
0038
8030
C070
E0E0
7FC0
1F80
ENDCHAR
STARTCHAR 042E
ENCODING 1070
SWIDTH 756 0
DWIDTH 21 0
BBX 19 18 1 0
BITMAP
C07E00
C0FF00
C1C380
C301C0
C700C0
C60060
C60060
C60060
FC0060
FC0060
C60060
C60060
C60060
C700C0
C301C0
C18380
C1FF00
C07E00
ENDCHAR
STARTCHAR 042F
ENCODING 1071
SWIDTH 504 0
DWIDTH 14 0
BBX 12 18 2 0
BITMAP
0FF0
1FF0
3830
6030
6030
6030
6030
7030
3FF0
1FF0
0C30
1830
1830
3030
7030
6030
E030
C030
ENDCHAR
STARTCHAR 0430
ENCODING 1072
SWIDTH 396 0
DWIDTH 11 0
BBX 9 13 1 0
BITMAP
0C00
3F00
3F80
0180
0180
0980
3F80
7780
E180
C180
6380
7F80
3F80
ENDCHAR
STARTCHAR 0431
ENCODING 1073
SWIDTH 468 0
DWIDTH 13 0
BBX 11 18 1 0
BITMAP
00E0
01C0
1F80
3F00
7000
6E00
7F80
F9C0
E0C0
E060
E060
C060
C060
6060
60E0
70C0
3F80
1F00
ENDCHAR
STARTCHAR 0432
ENCODING 1074
SWIDTH 396 0
DWIDTH 11 0
BBX 9 12 1 0
BITMAP
FF00
FF00
C380
C380
FF00
FF00
C380
C180
C180
C380
FF00
FE00
ENDCHAR
STARTCHAR 0433
ENCODING 1075
SWIDTH 360 0
DWIDTH 10 0
BBX 9 12 1 0
BITMAP
FF80
FF80
C000
C000
C000
C000
C000
C000
C000
C000
C000
C000
ENDCHAR
STARTCHAR 0434
ENCODING 1076
SWIDTH 576 0
DWIDTH 16 0
BBX 14 15 1 -3
BITMAP
0FF0
0FF0
0C30
0C30
0C30
0C30
0C30
0C30
0C30
1C30
FFFC
FFFC
C00C
C00C
C00C
ENDCHAR
STARTCHAR 0435
ENCODING 1077
SWIDTH 468 0
DWIDTH 13 0
BBX 11 13 1 0
BITMAP
0600
1F80
39C0
60C0
6060
FFE0
FFE0
C000
6000
60C0
70C0
3FC0
1F00
ENDCHAR
STARTCHAR 0436
ENCODING 1078
SWIDTH 684 0
DWIDTH 19 0
BBX 18 13 1 0
BITMAP
200100
38C700
18CE00
0CCC00
0CCC00
0CDC00
0FF800
1FFC00
18CE00
38C700
70C300
60C380
E0C1C0
ENDCHAR
STARTCHAR 0437
ENCODING 1079
SWIDTH 360 0
DWIDTH 10 0
BBX 8 13 1 0
BITMAP
1C
3E
77
63
03
0E
0E
07
03
C3
63
7F
3E
ENDCHAR
STARTCHAR 0438
ENCODING 1080
SWIDTH 432 0
DWIDTH 12 0
BBX 10 12 1 0
BITMAP
C0C0
C0C0
C1C0
C3C0
C7C0
CEC0
DCC0
F8C0
F0C0
E0C0
C0C0
C0C0
ENDCHAR
STARTCHAR 0439
ENCODING 1081
SWIDTH 432 0
DWIDTH 12 0
BBX 10 18 1 0
BITMAP
6180
2180
3F00
1E00
0000
0000
C0C0
C0C0
C1C0
C3C0
C7C0
CEC0
DCC0
F8C0
F0C0
E0C0
C0C0
C0C0
ENDCHAR
STARTCHAR 043A
ENCODING 1082
SWIDTH 432 0
DWIDTH 12 0
BBX 10 13 1 0
BITMAP
0180
C380
C700
CE00
CC00
CC00
FC00
FE00
C600
C300
C380
C180
C0C0
ENDCHAR
STARTCHAR 043B
ENCODING 1083
SWIDTH 468 0
DWIDTH 13 0
BBX 11 12 1 0
BITMAP
3FE0
3FE0
3060
3060
3060
3060
3060
3060
3060
7060
E060
C060
ENDCHAR
STARTCHAR 043C
ENCODING 1084
SWIDTH 468 0
DWIDTH 13 0
BBX 12 12 1 0
BITMAP
E070
E070
F0F0
F0F0
F0F0
D9B0
D9B0
D9B0
CF30
CF30
CF30
C630
ENDCHAR
STARTCHAR 043D
ENCODING 1085
SWIDTH 432 0
DWIDTH 12 0
BBX 10 12 1 0
BITMAP
C0C0
C0C0
C0C0
C0C0
C0C0
FFC0
FFC0
C0C0
C0C0
C0C0
C0C0
C0C0
ENDCHAR
STARTCHAR 043E
ENCODING 1086
SWIDTH 468 0
DWIDTH 13 0
BBX 11 13 1 0
BITMAP
0600
1F80
39C0
60C0
6060
E060
C060
C060
6060
60E0
70C0
3F80
1F00
ENDCHAR
STARTCHAR 043F
ENCODING 1087
SWIDTH 432 0
DWIDTH 12 0
BBX 10 12 1 0
BITMAP
FFC0
FFC0
C0C0
C0C0
C0C0
C0C0
C0C0
C0C0
C0C0
C0C0
C0C0
C0C0
ENDCHAR
STARTCHAR 0440
ENCODING 1088
SWIDTH 468 0
DWIDTH 13 0
BBX 11 19 1 -6
BITMAP
0E00
DF80
F9C0
E0C0
E060
E060
C060
C060
E060
E0E0
F0C0
FF80
DF00
C000
C000
C000
C000
C000
4000
ENDCHAR
STARTCHAR 0441
ENCODING 1089
SWIDTH 432 0
DWIDTH 12 0
BBX 10 13 1 0
BITMAP
0600
1F80
39C0
60C0
6000
E000
C000
C000
6000
60C0
70C0
3FC0
1F00
ENDCHAR
STARTCHAR 0442
ENCODING 1090
SWIDTH 360 0
DWIDTH 10 0
BBX 9 12 1 0
BITMAP
FF80
FF80
1800
1800
1800
1800
1800
1800
1800
1800
1800
1800
ENDCHAR
STARTCHAR 0443
ENCODING 1091
SWIDTH 468 0
DWIDTH 13 0
BBX 10 18 2 -6
BITMAP
C0C0
C0C0
E1C0
6180
6180
3300
3300
3300
1E00
1E00
1E00
0C00
0C00
1C00
1800
3800
F000
C000
ENDCHAR
STARTCHAR 0444
ENCODING 1092
SWIDTH 576 0
DWIDTH 16 0
BBX 15 24 1 -6
BITMAP
0380
0380
0380
0380
0380
0FE0
3FF8
77DC
638C
638C
C38E
C386
C386
E38C
638C
638C
3FF8
3FF0
0380
0380
0380
0380
0380
0080
ENDCHAR
STARTCHAR 0445
ENCODING 1093
SWIDTH 468 0
DWIDTH 13 0
BBX 10 12 2 0
BITMAP
E1C0
6180
7380
3F00
1E00
0C00
1E00
3E00
3300
7380
E1C0
C0C0
ENDCHAR
STARTCHAR 0446
ENCODING 1094
SWIDTH 504 0
DWIDTH 14 0
BBX 12 15 1 -3
BITMAP
C0C0
C0C0
C0C0
C0C0
C0C0
C0C0
C0C0
C0C0
C0C0
C0C0
FFF0
FFF0
0030
0030
0030
ENDCHAR
STARTCHAR 0447
ENCODING 1095
SWIDTH 396 0
DWIDTH 11 0
BBX 9 12 1 0
BITMAP
C180
C180
C180
6180
7380
3F80
1F80
0180
0180
0180
0180
0180
ENDCHAR
STARTCHAR 0448
ENCODING 1096
SWIDTH 540 0
DWIDTH 15 0
BBX 13 12 1 0
BITMAP
C318
C318
C318
C318
C318
C318
C318
C318
C318
C318
FFF8
FFF8
ENDCHAR
STARTCHAR 0449
ENCODING 1097
SWIDTH 612 0
DWIDTH 17 0
BBX 15 15 1 -3
BITMAP
C318
C318
C318
C318
C318
C318
C318
C318
C318
C318
FFFE
FFFE
0006
0006
0006
ENDCHAR
STARTCHAR 044A
ENCODING 1098
SWIDTH 504 0
DWIDTH 14 0
BBX 13 12 1 0
BITMAP
FC00
FC00
0C00
0C00
0FC0
0FF0
0C30
0C38
0C38
0C30
0FF0
0FE0
ENDCHAR
STARTCHAR 044B
ENCODING 1099
SWIDTH 504 0
DWIDTH 14 0
BBX 12 12 1 0
BITMAP
C030
C030
C030
C030
FC30
FF30
C330
C330
C330
C330
FF30
FC30
ENDCHAR
STARTCHAR 044C
ENCODING 1100
SWIDTH 360 0
DWIDTH 10 0
BBX 8 12 1 0
BITMAP
C0
C0
C0
C0
FC
FF
C3
C3
C3
C3
FF
FC
ENDCHAR
STARTCHAR 044D
ENCODING 1101
SWIDTH 432 0
DWIDTH 12 0
BBX 11 13 1 0
BITMAP
0C00
3F00
7380
E1C0
00C0
00C0
0FE0
0FE0
00C0
40C0
61C0
7F80
1F00
ENDCHAR
STARTCHAR 044E
ENCODING 1102
SWIDTH 612 0
DWIDTH 17 0
BBX 15 13 1 0
BITMAP
0060
C1F8
C39C
C70E
C606
C606
FC06
FC06
C606
C606
C70C
C3FC
C1F0
ENDCHAR
STARTCHAR 044F
ENCODING 1103
SWIDTH 396 0
DWIDTH 11 0
BBX 8 12 2 0
BITMAP
3F
7F
63
63
63
7F
3F
33
73
63
E3
C3
ENDCHAR
STARTCHAR 0450
ENCODING 1104
SWIDTH 468 0
DWIDTH 13 0
BBX 11 18 1 0
BITMAP
1800
0C00
0600
0200
0000
0600
1F80
39C0
60C0
6060
FFE0
FFE0
C000
6000
60C0
70C0
3FC0
1F00
ENDCHAR
STARTCHAR 0451
ENCODING 1105
SWIDTH 468 0
DWIDTH 13 0
BBX 11 17 1 0
BITMAP
3980
39C0
1000
0000
0600
1F80
39C0
60C0
6060
FFE0
FFE0
C000
6000
60C0
70C0
3FC0
1F00
ENDCHAR
STARTCHAR 0452
ENCODING 1106
SWIDTH 576 0
DWIDTH 16 0
BBX 14 24 1 -6
BITMAP
1800
1800
FF00
FF00
1800
18C0
1FF0
1F38
1C18
1C1C
180C
180C
180C
180C
180C
180C
180C
180C
000C
000C
000C
0058
00F8
0060
ENDCHAR
STARTCHAR 0453
ENCODING 1107
SWIDTH 360 0
DWIDTH 10 0
BBX 9 18 1 0
BITMAP
0600
0C00
0800
1000
0000
0000
FF80
FF80
C000
C000
C000
C000
C000
C000
C000
C000
C000
C000
ENDCHAR
STARTCHAR 0454
ENCODING 1108
SWIDTH 432 0
DWIDTH 12 0
BBX 10 13 1 0
BITMAP
0600
1F80
39C0
60C0
6000
E000
FE00
FE00
6000
60C0
70C0
3FC0
1F00
ENDCHAR
STARTCHAR 0455
ENCODING 1109
SWIDTH 360 0
DWIDTH 10 0
BBX 8 13 1 0
BITMAP
1C
3E
77
63
60
78
1E
07
03
C3
63
7F
3E
ENDCHAR
STARTCHAR 0456
ENCODING 1110
SWIDTH 144 0
DWIDTH 4 0
BBX 3 17 1 0
BITMAP
E0
E0
40
00
00
C0
C0
C0
C0
C0
C0
C0
C0
C0
C0
C0
C0
ENDCHAR
STARTCHAR 0457
ENCODING 1111
SWIDTH 144 0
DWIDTH 4 0
BBX 7 17 -1 0
BITMAP
CE
EE
04
00
00
30
30
30
30
30
30
30
30
30
30
30
30
ENDCHAR
STARTCHAR 0458
ENCODING 1112
SWIDTH 144 0
DWIDTH 4 0
BBX 7 23 -3 -6
BITMAP
0E
0E
04
00
00
0C
0C
0C
0C
0C
0C
0C
0C
0C
0C
0C
0C
0C
0C
0C
5C
F8
70
ENDCHAR
STARTCHAR 0459
ENCODING 1113
SWIDTH 684 0
DWIDTH 19 0
BBX 17 12 1 0
BITMAP
3FE000
3FE000
306000
306000
307E00
307F00
306380
306180
306180
706180
E07F00
C07E00
ENDCHAR
STARTCHAR 045A
ENCODING 1114
SWIDTH 648 0
DWIDTH 18 0
BBX 16 12 1 0
BITMAP
C0C0
C0C0
C0C0
C0C0
C0FC
FFFE
FFC7
C0C3
C0C3
C0C7
C0FE
C0FC
ENDCHAR
STARTCHAR 045B
ENCODING 1115
SWIDTH 540 0
DWIDTH 15 0
BBX 13 18 1 0
BITMAP
3000
3000
FC00
FC00
3000
3180
37E0
3E70
3C38
3818
3818
3018
3018
3018
3018
3018
3018
3018
ENDCHAR
STARTCHAR 045C
ENCODING 1116
SWIDTH 432 0
DWIDTH 12 0
BBX 10 18 1 0
BITMAP
0700
0600
0800
1000
0000
0180
C380
C700
CE00
CC00
CC00
FC00
FE00
C600
C300
C380
C180
C0C0
ENDCHAR
STARTCHAR 045D
ENCODING 1117
SWIDTH 432 0
DWIDTH 12 0
BBX 10 18 1 0
BITMAP
3800
1800
0C00
0400
0000
0000
C0C0
C0C0
C1C0
C3C0
C7C0
CEC0
DCC0
F8C0
F0C0
E0C0
C0C0
C0C0
ENDCHAR
STARTCHAR 045E
ENCODING 1118
SWIDTH 468 0
DWIDTH 13 0
BBX 10 24 2 -6
BITMAP
6180
6180
3F00
1E00
0000
0000
C0C0
C0C0
E1C0
6180
6180
3300
3300
3300
1E00
1E00
1E00
0C00
0C00
1C00
1800
3800
F000
C000
ENDCHAR
STARTCHAR 045F
ENCODING 1119
SWIDTH 432 0
DWIDTH 12 0
BBX 10 15 1 -3
BITMAP
C0C0
C0C0
C0C0
C0C0
C0C0
C0C0
C0C0
C0C0
C0C0
C0C0
FFC0
FFC0
0C00
0C00
0C00
ENDCHAR
STARTCHAR 0460
ENCODING 1120
SWIDTH 900 0
DWIDTH 25 0
BBX 23 18 1 0
BITMAP
C03006
C03006
C03006
C03006
C03006
C03006
C03006
E03006
603006
603006
601806
70180C
303C0C
383C18
186E38
0EE770
07C3E0
0301C0
ENDCHAR
STARTCHAR 0461
ENCODING 1121
SWIDTH 720 0
DWIDTH 20 0
BBX 18 12 1 0
BITMAP
C180C0
C180C0
C180C0
C180C0
E180C0
61C0C0
60C180
70C180
31E300
1BF700
1F3E00
061C00
ENDCHAR
STARTCHAR 0462
ENCODING 1122
SWIDTH 648 0
DWIDTH 18 0
BBX 16 18 1 0
BITMAP
0600
0600
0600
FFF0
FFF0
0600
0600
07E0
07FC
061E
0607
0603
0603
0603
0603
0607
07FE
07F8
ENDCHAR
STARTCHAR 0463
ENCODING 1123
SWIDTH 468 0
DWIDTH 13 0
BBX 12 18 1 0
BITMAP
1800
1800
1800
1800
1800
1800
FF80
FF80
1800
1800
1F80
1FE0
1860
1860
1870
1860
1FE0
1FC0
ENDCHAR
STARTCHAR 0464
ENCODING 1124
SWIDTH 720 0
DWIDTH 20 0
BBX 18 18 1 0
BITMAP
C07E00
C1FF00
C38380
C301C0
C70080
C60000
C60000
CC0000
FFFC00
FFFC00
CC0000
CE0000
C60000
C60080
C301C0
C38380
C1FF00
C07E00
ENDCHAR
STARTCHAR 0465
ENCODING 1125
SWIDTH 576 0
DWIDTH 16 0
BBX 15 13 1 0
BITMAP
0060
C1F8
C39C
C60E
C600
CE00
FFE0
FFE0
C600
C60C
C70C
C3FC
C1F0
ENDCHAR
STARTCHAR 0466
ENCODING 1126
SWIDTH 612 0
DWIDTH 17 0
BBX 14 18 2 0
BITMAP
0300
0780
0780
0780
0DC0
0CC0
0CC0
1860
1860
3FE0
3FF0
3330
7338
6318
6318
C31C
C30C
C30C
ENDCHAR
STARTCHAR 0467
ENCODING 1127
SWIDTH 468 0
DWIDTH 13 0
BBX 10 12 2 0
BITMAP
0C00
1E00
1E00
3F00
3300
3300
7F80
7F80
6D80
CCC0
CCC0
CCC0
ENDCHAR
STARTCHAR 0468
ENCODING 1128
SWIDTH 756 0
DWIDTH 21 0
BBX 19 18 1 0
BITMAP
C03800
C03800
C03C00
C07C00
C06C00
C06600
C0E600
C0C700
FFC300
FFFF00
C1FF80
C39980
C31980
C318C0
C718C0
C618C0
C61860
CC1860
ENDCHAR
STARTCHAR 0469
ENCODING 1129
SWIDTH 576 0
DWIDTH 16 0
BBX 14 12 1 0
BITMAP
C0C0
C1E0
C1E0
C3F0
C330
FF30
FFF8
C7F8
C6D8
CCCC
CCCC
CCCC
ENDCHAR
STARTCHAR 046A
ENCODING 1130
SWIDTH 576 0
DWIDTH 16 0
BBX 14 18 1 0
BITMAP
FFFC
7FFC
7038
3830
1870
1CE0
0EC0
0780
0FC0
1FE0
3B70
7318
631C
E30C
C30C
C30C
C30C
C30C
ENDCHAR
STARTCHAR 046B
ENCODING 1131
SWIDTH 468 0
DWIDTH 13 0
BBX 11 12 1 0
BITMAP
7FE0
3FC0
3980
1B80
0F00
1F80
3FC0
76C0
6660
C660
C660
C660
ENDCHAR
STARTCHAR 046C
ENCODING 1132
SWIDTH 720 0
DWIDTH 20 0
BBX 18 18 1 0
BITMAP
CFFFC0
C7FFC0
C70180
C38300
C18700
C1CE00
C0EC00
C07C00
FFFC00
FFFF00
C3B780
C73180
C631C0
C630C0
CE30C0
CC30C0
CC30C0
CC30C0
ENDCHAR
STARTCHAR 046D
ENCODING 1133
SWIDTH 612 0
DWIDTH 17 0
BBX 15 12 1 0
BITMAP
C7FE
C3FC
C398
C1F8
C0F0
FFF8
FFFC
C76E
C666
CE66
CC66
CC66
ENDCHAR
STARTCHAR 046E
ENCODING 1134
SWIDTH 504 0
DWIDTH 14 0
BBX 13 27 1 -6
BITMAP
38C0
1D80
0F80
0F80
3FE0
3060
6030
6030
0030
0060
07E0
07C0
01E0
0070
0030
0038
0038
0030
0070
1FE0
3F80
7000
C000
E020
78F0
3FE0
0780
ENDCHAR
STARTCHAR 046F
ENCODING 1135
SWIDTH 360 0
DWIDTH 10 0
BBX 8 21 1 -6
BITMAP
77
3E
1C
3E
77
63
03
0E
0E
07
03
03
03
3F
7C
60
C0
E3
77
7E
1C
ENDCHAR
STARTCHAR 0470
ENCODING 1136
SWIDTH 648 0
DWIDTH 18 0
BBX 15 18 2 0
BITMAP
C306
C30E
C30C
630C
630C
630C
3318
3318
3B78
1FF0
1F80
0300
0300
0300
0300
0300
0300
0300
ENDCHAR
STARTCHAR 0471
ENCODING 1137
SWIDTH 648 0
DWIDTH 18 0
BBX 15 24 2 -6
BITMAP
0300
0300
0300
0300
0300
0302
C306
C30E
E30C
630C
630C
330C
330C
331C
1B18
1B38
1FF0
0FE0
0300
0300
0300
0300
0300
0100
ENDCHAR
STARTCHAR 0472
ENCODING 1138
SWIDTH 612 0
DWIDTH 17 0
BBX 15 18 1 0
BITMAP
07E0
1FF0
1C38
301C
700C
6006
6006
E006
FFFE
FFFE
C006
6006
6006
700C
301C
3838
1FF0
07E0
ENDCHAR
STARTCHAR 0473
ENCODING 1139
SWIDTH 468 0
DWIDTH 13 0
BBX 11 13 1 0
BITMAP
0600
1F80
39C0
60C0
6060
E060
FFE0
FFE0
6060
60E0
70C0
3F80
1F00
ENDCHAR
STARTCHAR 0474
ENCODING 1140
SWIDTH 720 0
DWIDTH 20 0
BBX 18 18 2 0
BITMAP
C00780
C00FC0
C00C80
601800
601800
603800
303000
303000
387000
186000
186000
0CC000
0CC000
0CC000
078000
078000
078000
030000
ENDCHAR
STARTCHAR 0475
ENCODING 1141
SWIDTH 576 0
DWIDTH 16 0
BBX 14 13 2 0
BITMAP
0038
C0FC
C0CC
E1C0
6180
6180
3300
3300
3300
1E00
1E00
1E00
0C00
ENDCHAR
STARTCHAR 0476
ENCODING 1142
SWIDTH 720 0
DWIDTH 20 0
BBX 18 23 2 0
BITMAP
0CC000
066000
022000
011000
000000
C00780
C00FC0
C00C80
601800
601800
603800
303000
303000
387000
186000
186000
0CC000
0CC000
0CC000
078000
078000
078000
030000
ENDCHAR
STARTCHAR 0477
ENCODING 1143
SWIDTH 576 0
DWIDTH 16 0
BBX 14 18 2 0
BITMAP
3300
1980
0880
0440
0000
0038
C0FC
C0CC
E1C0
6180
6180
3300
3300
3300
1E00
1E00
1E00
0C00
ENDCHAR
STARTCHAR 0478
ENCODING 1144
SWIDTH 1080 0
DWIDTH 30 0
BBX 28 24 1 -6
BITMAP
07E00000
1FF00000
1C380000
301C0000
700C0000
60060000
60066070
E0067060
C0063060
C00630C0
C00638C0
600618C0
60061980
700C0D80
301C0F80
38380F00
1FF00700
07E00700
00000600
00000600
00000C00
00001C00
00003800
00002000
ENDCHAR
STARTCHAR 0479
ENCODING 1145
SWIDTH 792 0
DWIDTH 22 0
BBX 19 19 1 -6
BITMAP
080000
3E6060
776060
6330E0
6330C0
C330C0
C319C0
C31980
E31D80
630F00
630F00
3E0F00
3C0600
000600
000E00
000C00
001C00
003800
006000
ENDCHAR
STARTCHAR 047A
ENCODING 1146
SWIDTH 828 0
DWIDTH 23 0
BBX 21 20 1 -1
BITMAP
007000
01FE00
07FF00
1E73C0
3800E0
300060
600030
600030
E00038
C00018
C00018
E00018
600030
600030
300070
3800E0
1E73C0
0FFF80
03FE00
007000
ENDCHAR
STARTCHAR 047B
ENCODING 1147
SWIDTH 576 0
DWIDTH 16 0
BBX 14 15 1 -1
BITMAP
0300
0780
1FE0
3FF0
7038
601C
E00C
C00C
C00C
600C
6018
3B38
3FF0
0FC0
0380
ENDCHAR
STARTCHAR 047C
ENCODING 1148
SWIDTH 1080 0
DWIDTH 30 0
BBX 28 23 1 0
BITMAP
001F0000
003F8000
0031E000
0030E000
00062000
070F0700
1F070780
1C0101C0
300100E0
70020060
60040070
60000030
E0000030
C0000030
C0060030
C0060030
60070030
60070070
700F0060
301D80E0
3839C1C0
1FF0FF80
07E03F00
ENDCHAR
STARTCHAR 047D
ENCODING 1149
SWIDTH 792 0
DWIDTH 22 0
BBX 20 21 1 0
BITMAP
00E000
01F800
039C00
030F00
006300
00F000
007000
001000
041100
1C21C0
3841E0
600060
600030
E00030
C00030
C06030
606030
60F070
70F8E0
3FDFC0
1F0F80
ENDCHAR
STARTCHAR 047E
ENCODING 1150
SWIDTH 900 0
DWIDTH 25 0
BBX 23 23 1 0
BITMAP
1FFFF8
1FFFF8
181818
181818
001800
C01806
C00006
C00006
C00006
C00006
C03006
C03006
E03006
603006
603006
601806
70180C
303C0C
383C18
186E38
0EE770
07C3E0
0301C0
ENDCHAR
STARTCHAR 047F
ENCODING 1151
SWIDTH 720 0
DWIDTH 20 0
BBX 18 18 1 0
BITMAP
3FFF00
3FFF00
30C300
30C300
00C000
00C000
C0C0C0
C000C0
C180C0
C180C0
E180C0
61C0C0
60C180
70C180
31E300
1BF700
1F3E00
061C00
ENDCHAR
STARTCHAR 0480
ENCODING 1152
SWIDTH 576 0
DWIDTH 16 0
BBX 14 23 1 -5
BITMAP
07E0
1FF0
1C38
301C
7008
6000
6000
E000
C000
C000
C000
6000
6000
7000
3000
3800
1F80
0780
0180
0180
0180
0180
0180
ENDCHAR
STARTCHAR 0481
ENCODING 1153
SWIDTH 432 0
DWIDTH 12 0
BBX 10 19 1 -6
BITMAP
0600
1F80
39C0
60C0
6000
E000
C000
C000
6000
6000
7000
3E00
1E00
0600
0600
0600
0600
0600
0200
ENDCHAR
STARTCHAR 0482
ENCODING 1154
SWIDTH 612 0
DWIDTH 17 0
BBX 14 17 2 -5
BITMAP
0060
00C0
30C0
3FC0
0FC0
01F8
03FC
030C
0300
8600
F600
7E00
0FC0
0FE0
1C60
1800
1800
ENDCHAR
STARTCHAR 0483
ENCODING 1155
SWIDTH 0 0
DWIDTH 0 0
BBX 8 6 -4 13
BITMAP
03
03
FF
FE
C0
C0
ENDCHAR
STARTCHAR 0484
ENCODING 1156
SWIDTH 0 0
DWIDTH 0 0
BBX 5 5 0 13
BITMAP
70
F8
18
08
08
ENDCHAR
STARTCHAR 0485
ENCODING 1157
SWIDTH 0 0
DWIDTH 0 0
BBX 3 6 -2 13
BITMAP
60
60
A0
80
40
20
ENDCHAR
STARTCHAR 0486
ENCODING 1158
SWIDTH 0 0
DWIDTH 0 0
BBX 3 6 -1 13
BITMAP
C0
C0
A0
40
40
80
ENDCHAR
STARTCHAR 0487
ENCODING 1159
SWIDTH 0 0
DWIDTH 0 0
BBX 10 5 -5 13
BITMAP
3C00
7F00
E780
C1C0
0040
ENDCHAR
STARTCHAR 0488
ENCODING 1160
SWIDTH 864 0
DWIDTH 24 0
BBX 22 22 1 -3
BITMAP
013000
03B300
038300
180060
180060
000000
600018
60001C
000000
000000
E0000C
C0000C
000000
200008
60001C
600018
000000
180060
180060
038300
03B300
003000
ENDCHAR
STARTCHAR 0489
ENCODING 1161
SWIDTH 1044 0
DWIDTH 29 0
BBX 26 26 2 -5
BITMAP
00080000
02100000
02186000
020C8000
03804000
00000000
40000700
58000C00
38000C00
00000000
00000000
00000000
30000380
E0000240
00000000
00000000
00000000
18000E00
08000A00
30000100
01004000
0180E000
010C2000
06042000
00040000
00080000
ENDCHAR
STARTCHAR 048A
ENCODING 1162
SWIDTH 504 0
DWIDTH 14 0
BBX 12 28 1 -5
BITMAP
30C0
1980
1F80
0000
0000
C030
C030
C030
C030
C070
C0F0
C1F0
C3B0
C730
CE30
DC30
F830
F030
E030
C030
C030
C030
C030
0010
0030
0030
0020
0020
ENDCHAR
STARTCHAR 048B
ENCODING 1163
SWIDTH 432 0
DWIDTH 12 0
BBX 10 23 1 -5
BITMAP
6180
2180
3F00
1E00
0000
0000
C0C0
C0C0
C1C0
C3C0
C7C0
CEC0
DCC0
F8C0
F0C0
E0C0
C0C0
C0C0
0040
00C0
00C0
0080
0080
ENDCHAR
STARTCHAR 048C
ENCODING 1164
SWIDTH 576 0
DWIDTH 16 0
BBX 14 18 1 0
BITMAP
3000
3000
3000
FC00
FC00
3000
3000
3F80
3FF0
3078
3018
301C
300C
300C
3018
3038
3FF0
3FE0
ENDCHAR
STARTCHAR 048D
ENCODING 1165
SWIDTH 432 0
DWIDTH 12 0
BBX 10 15 1 0
BITMAP
3000
3000
3000
FC00
FC00
3000
3000
3F00
3F80
31C0
30C0
30C0
31C0
3F80
3F00
ENDCHAR
STARTCHAR 048E
ENCODING 1166
SWIDTH 468 0
DWIDTH 13 0
BBX 11 18 1 0
BITMAP
FF00
FF80
C1C0
C0E0
C060
C260
C360
C1C0
FFC0
FFE0
C020
C000
C000
C000
C000
C000
C000
C000
ENDCHAR
STARTCHAR 048F
ENCODING 1167
SWIDTH 468 0
DWIDTH 13 0
BBX 12 19 1 -6
BITMAP
0E00
DF80
F9C0
E0C0
E060
E060
C060
C060
E360
E3E0
F1C0
FFE0
DF70
C020
C000
C000
C000
C000
4000
ENDCHAR
STARTCHAR 0490
ENCODING 1168
SWIDTH 504 0
DWIDTH 14 0
BBX 12 21 1 0
BITMAP
0030
0030
0030
FFF0
FFF0
C000
C000
C000
C000
C000
C000
C000
C000
C000
C000
C000
C000
C000
C000
C000
C000
ENDCHAR
STARTCHAR 0491
ENCODING 1169
SWIDTH 360 0
DWIDTH 10 0
BBX 9 16 1 0
BITMAP
0380
0380
0380
0380
FF80
FF80
C000
C000
C000
C000
C000
C000
C000
C000
C000
C000
ENDCHAR
STARTCHAR 0492
ENCODING 1170
SWIDTH 576 0
DWIDTH 16 0
BBX 14 18 1 0
BITMAP
3FFC
3FFC
3000
3000
3000
3000
3000
3000
FE00
FE00
3000
3000
3000
3000
3000
3000
3000
3000
ENDCHAR
STARTCHAR 0493
ENCODING 1171
SWIDTH 432 0
DWIDTH 12 0
BBX 11 12 1 0
BITMAP
3FE0
3FE0
3000
3000
3000
FE00
FE00
3000
3000
3000
3000
3000
ENDCHAR
STARTCHAR 0494
ENCODING 1172
SWIDTH 504 0
DWIDTH 14 0
BBX 12 24 1 -6
BITMAP
FFF0
FFF0
C000
C000
C000
C600
DF80
F9C0
F0E0
E060
E060
C060
C060
C060
C060
C060
C060
C060
0060
0060
0060
02E0
07C0
0300
ENDCHAR
STARTCHAR 0495
ENCODING 1173
SWIDTH 360 0
DWIDTH 10 0
BBX 9 18 1 -6
BITMAP
FF80
FF80
C000
D800
FE00
F600
E300
C300
C300
C300
C300
C300
0300
0300
0300
1600
3E00
1800
ENDCHAR
STARTCHAR 0496
ENCODING 1174
SWIDTH 900 0
DWIDTH 25 0
BBX 22 21 2 -3
BITMAP
603030
7830F0
1830C0
0C3180
0C3180
0C3180
0C3180
063380
07BF00
07FF00
067300
0C3180
1C31C0
3830E0
303060
703030
E0303C
C0301C
00000C
00000C
00000C
ENDCHAR
STARTCHAR 0497
ENCODING 1175
SWIDTH 684 0
DWIDTH 19 0
BBX 18 16 1 -3
BITMAP
200100
38C700
18CE00
0CCC00
0CCC00
0CDC00
0FF800
1FFC00
18CE00
38C700
70C300
60C3C0
E0C1C0
0000C0
0000C0
0000C0
ENDCHAR
STARTCHAR 0498
ENCODING 1176
SWIDTH 504 0
DWIDTH 14 0
BBX 13 21 1 -3
BITMAP
0F80
3FE0
3060
6030
6030
0030
0060
07E0
07C0
01E0
0070
0030
0038
C038
6030
7070
3FE0
1FC0
0600
0600
0600
ENDCHAR
STARTCHAR 0499
ENCODING 1177
SWIDTH 360 0
DWIDTH 10 0
BBX 8 16 1 -3
BITMAP
1C
3E
77
63
03
0E
0E
07
03
C3
63
7F
3E
18
18
18
ENDCHAR
STARTCHAR 049A
ENCODING 1178
SWIDTH 504 0
DWIDTH 14 0
BBX 13 21 1 -3
BITMAP
C060
C1E0
C380
C300
C300
C300
C300
C600
DE00
FE00
E600
C300
C380
C180
C0C0
C0E0
C078
C038
0018
0018
0018
ENDCHAR
STARTCHAR 049B
ENCODING 1179
SWIDTH 432 0
DWIDTH 12 0
BBX 11 16 1 -3
BITMAP
0180
C380
C700
CE00
CC00
CC00
FC00
FE00
C600
C300
C380
C1E0
C0E0
00E0
00E0
00E0
ENDCHAR
STARTCHAR 049C
ENCODING 1180
SWIDTH 504 0
DWIDTH 14 0
BBX 12 18 1 0
BITMAP
C060
C1E0
C380
C300
C300
C300
DB00
DE00
DE00
FE00
FE00
DB00
C380
C180
C0C0
C0E0
C070
C030
ENDCHAR
STARTCHAR 049D
ENCODING 1181
SWIDTH 432 0
DWIDTH 12 0
BBX 10 13 1 0
BITMAP
0180
C380
C700
DE00
DC00
DC00
FC00
FE00
DE00
DB00
C380
C180
C0C0
ENDCHAR
STARTCHAR 049E
ENCODING 1182
SWIDTH 504 0
DWIDTH 14 0
BBX 14 18 -1 0
BITMAP
3018
3078
FEE0
FEC0
30C0
30C0
30C0
3180
3780
3F80
3980
30C0
30E0
3060
3030
3038
301C
300C
ENDCHAR
STARTCHAR 049F
ENCODING 1183
SWIDTH 432 0
DWIDTH 12 0
BBX 12 17 -1 0
BITMAP
3000
3000
FE00
FE00
FE60
30E0
31C0
3380
3300
3300
3F00
3F80
3180
30C0
30E0
3060
3030
ENDCHAR
STARTCHAR 04A0
ENCODING 1184
SWIDTH 648 0
DWIDTH 18 0
BBX 16 18 1 0
BITMAP
FC06
FC1E
0C18
0C30
0C30
0C30
0C30
0C60
0DE0
0FE0
0E60
0C30
0C38
0C18
0C0C
0C0E
0C07
0C03
ENDCHAR
STARTCHAR 04A1
ENCODING 1185
SWIDTH 576 0
DWIDTH 16 0
BBX 14 13 1 0
BITMAP
0018
FC38
FC70
0C60
0CE0
0CC0
0FC0
0FE0
0C60
0C30
0C38
0C1C
0C0C
ENDCHAR
STARTCHAR 04A2
ENCODING 1186
SWIDTH 576 0
DWIDTH 16 0
BBX 14 21 1 -3
BITMAP
C030
C030
C030
C030
C030
C030
C030
C030
FFF0
FFF0
C030
C030
C030
C030
C030
C030
C03C
C03C
000C
000C
000C
ENDCHAR
STARTCHAR 04A3
ENCODING 1187
SWIDTH 504 0
DWIDTH 14 0
BBX 12 15 1 -3
BITMAP
C0C0
C0C0
C0C0
C0C0
C0C0
FFC0
FFC0
C0C0
C0C0
C0C0
C0F0
C0F0
0030
0030
0030
ENDCHAR
STARTCHAR 04A4
ENCODING 1188
SWIDTH 828 0
DWIDTH 23 0
BBX 21 18 1 0
BITMAP
C03FF8
C03FF8
C03000
C03000
C03000
C03000
C03000
C03000
FFF000
FFF000
C03000
C03000
C03000
C03000
C03000
C03000
C03000
C03000
ENDCHAR
STARTCHAR 04A5
ENCODING 1189
SWIDTH 648 0
DWIDTH 18 0
BBX 16 12 1 0
BITMAP
C0FF
C0FF
C0C0
C0C0
C0C0
FFC0
FFC0
C0C0
C0C0
C0C0
C0C0
C0C0
ENDCHAR
STARTCHAR 04A6
ENCODING 1190
SWIDTH 792 0
DWIDTH 22 0
BBX 20 24 1 -6
BITMAP
FFF000
FFF000
C03000
C03000
C03000
C03C00
C03F00
C03380
C031C0
C030E0
C03060
C03070
C03030
C03030
C03030
C03030
C03030
C03060
000060
0380E0
0181C0
00E380
007F00
001C00
ENDCHAR
STARTCHAR 04A7
ENCODING 1191
SWIDTH 648 0
DWIDTH 18 0
BBX 16 18 1 -6
BITMAP
FFC0
FFC0
C0C0
C0C0
C0C0
C0F8
C0FC
C0CE
C0C6
C0C3
C0C3
C0C3
0003
0107
0306
03DE
01FC
0020
ENDCHAR
STARTCHAR 04A8
ENCODING 1192
SWIDTH 720 0
DWIDTH 20 0
BBX 18 18 1 0
BITMAP
073C00
1F7E00
1CE600
30C300
70C300
618300
618180
E18180
C18180
C18380
C18300
60C300
60C300
70E600
306E00
383CC0
1FFFC0
07FF80
ENDCHAR
STARTCHAR 04A9
ENCODING 1193
SWIDTH 612 0
DWIDTH 17 0
BBX 15 13 1 0
BITMAP
04C0
1DE0
3BB0
6330
6318
E618
C618
C618
6318
6330
73F4
3FFE
1FF8
ENDCHAR
STARTCHAR 04AA
ENCODING 1194
SWIDTH 576 0
DWIDTH 16 0
BBX 14 21 1 -3
BITMAP
07E0
1FF0
1C38
301C
7008
6000
6000
E000
C000
C000
C000
6000
6000
7008
301C
3838
1FF0
07E0
0180
0180
0180
ENDCHAR
STARTCHAR 04AB
ENCODING 1195
SWIDTH 432 0
DWIDTH 12 0
BBX 10 16 1 -3
BITMAP
0600
1F80
39C0
60C0
6000
E000
C000
C000
6000
60C0
70C0
3FC0
1F00
0600
0600
0600
ENDCHAR
STARTCHAR 04AC
ENCODING 1196
SWIDTH 504 0
DWIDTH 14 0
BBX 12 21 1 -3
BITMAP
FFF0
FFF0
0600
0600
0600
0600
0600
0600
0600
0600
0600
0600
0600
0600
0600
0600
0780
0780
0180
0180
0180
ENDCHAR
STARTCHAR 04AD
ENCODING 1197
SWIDTH 360 0
DWIDTH 10 0
BBX 9 15 1 -3
BITMAP
FF80
FF80
1C00
1C00
1C00
1C00
1C00
1C00
1C00
1C00
1F00
1F00
0300
0300
0300
ENDCHAR
STARTCHAR 04AE
ENCODING 1198
SWIDTH 612 0
DWIDTH 17 0
BBX 14 18 2 0
BITMAP
C00C
E018
7038
3070
3860
1CE0
0DC0
0780
0780
0300
0300
0300
0300
0300
0300
0300
0300
0300
ENDCHAR
STARTCHAR 04AF
ENCODING 1199
SWIDTH 468 0
DWIDTH 13 0
BBX 10 18 2 -6
BITMAP
C0C0
C0C0
E1C0
6180
6180
3300
3300
3300
1E00
1E00
1E00
0C00
0C00
0C00
0C00
0C00
0C00
0400
ENDCHAR
STARTCHAR 04B0
ENCODING 1200
SWIDTH 612 0
DWIDTH 17 0
BBX 14 18 2 0
BITMAP
C00C
E018
7038
3070
3860
1CE0
0DC0
0780
0780
0300
0300
3FF0
3FF0
0300
0300
0300
0300
0300
ENDCHAR
STARTCHAR 04B1
ENCODING 1201
SWIDTH 468 0
DWIDTH 13 0
BBX 10 18 2 -6
BITMAP
C0C0
C0C0
E1C0
6180
6180
3300
3300
3300
1E00
1E00
1E00
0C00
FFC0
FFC0
0C00
0C00
0C00
0400
ENDCHAR
STARTCHAR 04B2
ENCODING 1202
SWIDTH 648 0
DWIDTH 18 0
BBX 15 21 2 -3
BITMAP
C00C
E018
7038
3070
3860
1CE0
0DC0
0780
0780
0700
0780
0DC0
1CE0
3860
3070
7038
E01E
C00E
0006
0006
0006
ENDCHAR
STARTCHAR 04B3
ENCODING 1203
SWIDTH 504 0
DWIDTH 14 0
BBX 11 15 2 -3
BITMAP
E1C0
6180
7380
3F00
1E00
0C00
1E00
3E00
3300
7380
E1E0
C0E0
0060
0060
0060
ENDCHAR
STARTCHAR 04B4
ENCODING 1204
SWIDTH 720 0
DWIDTH 20 0
BBX 18 21 1 -3
BITMAP
FFF300
FFF300
060300
060300
060300
060300
060300
060300
060300
060300
060300
060300
060300
060300
060300
060300
07FFC0
07FFC0
0000C0
0000C0
0000C0
ENDCHAR
STARTCHAR 04B5
ENCODING 1205
SWIDTH 612 0
DWIDTH 17 0
BBX 15 15 1 -3
BITMAP
FF98
FF98
1818
1818
1818
1818
1818
1818
1818
1818
1FFE
1FFE
0006
0006
0006
ENDCHAR
STARTCHAR 04B6
ENCODING 1206
SWIDTH 576 0
DWIDTH 16 0
BBX 15 21 1 -3
BITMAP
C018
C018
C018
C018
E018
6018
7018
3878
1FF8
0FD8
0018
0018
0018
0018
0018
0018
001E
001E
0006
0006
0006
ENDCHAR
STARTCHAR 04B7
ENCODING 1207
SWIDTH 468 0
DWIDTH 13 0
BBX 11 15 1 -3
BITMAP
C180
C180
C180
6180
7380
3F80
1F80
0180
0180
0180
01E0
01E0
0060
0060
0060
ENDCHAR
STARTCHAR 04B8
ENCODING 1208
SWIDTH 504 0
DWIDTH 14 0
BBX 13 18 1 0
BITMAP
C018
C018
C018
C018
C018
E018
6018
6318
3338
3FF8
0FF8
0318
0318
0318
0018
0018
0018
0018
ENDCHAR
STARTCHAR 04B9
ENCODING 1209
SWIDTH 396 0
DWIDTH 11 0
BBX 9 12 1 0
BITMAP
C180
C180
CD80
6D80
7D80
3F80
1F80
0D80
0D80
0180
0180
0180
ENDCHAR
STARTCHAR 04BA
ENCODING 1210
SWIDTH 504 0
DWIDTH 14 0
BBX 13 18 1 0
BITMAP
C000
C000
C000
C000
C000
C000
C000
FF80
FFC0
E0E0
C030
C030
C030
C038
C038
C018
C018
C018
ENDCHAR
STARTCHAR 04BB
ENCODING 1211
SWIDTH 468 0
DWIDTH 13 0
BBX 11 18 1 0
BITMAP
C000
C000
C000
C000
C000
C600
DF80
F9C0
F0E0
E060
E060
C060
C060
C060
C060
C060
C060
C060
ENDCHAR
STARTCHAR 04BC
ENCODING 1212
SWIDTH 828 0
DWIDTH 23 0
BBX 21 18 1 0
BITMAP
003F00
007FC0
00E1E0
01C060
418070
E38030
C30030
630018
7FFFF8
3FFFF8
030000
030000
030000
018000
01C040
00E0E0
007FC0
003F00
ENDCHAR
STARTCHAR 04BD
ENCODING 1213
SWIDTH 648 0
DWIDTH 18 0
BBX 16 13 1 0
BITMAP
0070
41FC
E3DE
C306
6707
7FFF
3FFF
0600
0600
0306
038E
01FC
00F8
ENDCHAR
STARTCHAR 04BE
ENCODING 1214
SWIDTH 828 0
DWIDTH 23 0
BBX 21 21 1 -3
BITMAP
003F00
007FC0
00E1E0
01C060
418070
E38030
C30030
630018
7FFFF8
3FFFF8
030000
030000
030000
018000
01C040
00E0E0
007FC0
003F00
000C00
000C00
000C00
ENDCHAR
STARTCHAR 04BF
ENCODING 1215
SWIDTH 648 0
DWIDTH 18 0
BBX 16 16 1 -3
BITMAP
0070
41FC
E3DE
C306
6707
7FFF
3FFF
0600
0600
0306
038E
01FC
00F8
0030
0030
0030
ENDCHAR
STARTCHAR 04C0
ENCODING 1216
SWIDTH 288 0
DWIDTH 8 0
BBX 6 18 1 0
BITMAP
FC
FC
30
30
30
30
30
30
30
30
30
30
30
30
30
30
FC
FC
ENDCHAR
STARTCHAR 04C1
ENCODING 1217
SWIDTH 900 0
DWIDTH 25 0
BBX 21 23 2 0
BITMAP
010400
018C00
00F800
000000
000000
603030
7830F0
1830C0
0C3180
0C3180
0C3180
0C3180
063380
07BF00
07FF00
067300
0C3180
1C31C0
3830E0
303060
703030
E03038
C03018
ENDCHAR
STARTCHAR 04C2
ENCODING 1218
SWIDTH 684 0
DWIDTH 19 0
BBX 18 18 1 0
BITMAP
061800
063000
03F000
01E000
000000
200100
38C700
18CE00
0CCC00
0CCC00
0CDC00
0FF800
1FFC00
18CE00
38C700
70C300
60C380
E0C1C0
ENDCHAR
STARTCHAR 04C3
ENCODING 1219
SWIDTH 468 0
DWIDTH 13 0
BBX 14 24 -2 -6
BITMAP
180C
183C
1870
1860
1860
1860
1860
18F0
1BF0
1F98
1C18
180C
180C
180C
180C
180C
180C
180C
0018
E018
7030
3CF0
1FE0
0700
ENDCHAR
STARTCHAR 04C4
ENCODING 1220
SWIDTH 360 0
DWIDTH 10 0
BBX 11 19 -1 -6
BITMAP
0060
30E0
31C0
3380
3300
3300
3F00
3F80
31C0
30C0
30C0
30C0
30E0
00C0
00C0
E1C0
7380
3F00
0E00
ENDCHAR
STARTCHAR 04C5
ENCODING 1221
SWIDTH 504 0
DWIDTH 14 0
BBX 13 23 1 -5
BITMAP
3FF8
3FF8
3018
3018
3018
3018
3018
3018
3018
3018
3018
3018
3018
3018
3018
7018
E018
C018
0018
0018
0010
0010
0020
ENDCHAR
STARTCHAR 04C6
ENCODING 1222
SWIDTH 468 0
DWIDTH 13 0
BBX 12 17 1 -5
BITMAP
3FE0
3FE0
3060
3060
3060
3060
3060
3060
3060
7060
E060
C060
0030
0020
0020
0040
0040
ENDCHAR
STARTCHAR 04C7
ENCODING 1223
SWIDTH 504 0
DWIDTH 14 0
BBX 12 24 1 -6
BITMAP
C030
C030
C030
C030
C030
C030
C030
C030
FFF0
FFF0
C030
C030
C030
C030
C030
C030
C030
C030
0030
0030
0030
0160
03E0
0180
ENDCHAR
STARTCHAR 04C8
ENCODING 1224
SWIDTH 432 0
DWIDTH 12 0
BBX 10 18 1 -6
BITMAP
C0C0
C0C0
C0C0
C0C0
C0C0
FFC0
FFC0
C0C0
C0C0
C0C0
C0C0
C0C0
00C0
00C0
00C0
05C0
0F80
0600
ENDCHAR
STARTCHAR 04C9
ENCODING 1225
SWIDTH 504 0
DWIDTH 14 0
BBX 12 23 1 -5
BITMAP
C030
C030
C030
C030
C030
C030
C030
C030
FFF0
FFF0
C030
C030
C030
C030
C030
C030
C030
C030
0010
0030
0030
0020
0020
ENDCHAR
STARTCHAR 04CA
ENCODING 1226
SWIDTH 432 0
DWIDTH 12 0
BBX 10 17 1 -5
BITMAP
C0C0
C0C0
C0C0
C0C0
C0C0
FFC0
FFC0
C0C0
C0C0
C0C0
C0C0
C0C0
0040
00C0
0080
0080
0080
ENDCHAR
STARTCHAR 04CB
ENCODING 1227
SWIDTH 576 0
DWIDTH 16 0
BBX 13 21 1 -3
BITMAP
C018
C018
C018
C018
E018
6018
7018
3878
1FF8
0FD8
0018
0018
0018
0018
0018
0018
00F8
00F8
00E0
00E0
00E0
ENDCHAR
STARTCHAR 04CC
ENCODING 1228
SWIDTH 396 0
DWIDTH 11 0
BBX 9 15 1 -3
BITMAP
C180
C180
C180
6180
7380
3F80
1F80
0180
0180
0180
0780
0780
0600
0600
0600
ENDCHAR
STARTCHAR 04CD
ENCODING 1229
SWIDTH 612 0
DWIDTH 17 0
BBX 16 23 1 -5
BITMAP
E007
E007
E007
F00F
F00F
F01F
D81B
D81B
DC3B
CC33
CC33
C663
C663
C663
C3C3
C3C3
C3C3
C183
0003
0003
0002
0002
0004
ENDCHAR
STARTCHAR 04CE
ENCODING 1230
SWIDTH 468 0
DWIDTH 13 0
BBX 12 17 1 -5
BITMAP
E070
E070
F0F0
F0F0
F0F0
D9B0
D9B0
D9B0
CF30
CF30
CF30
C630
0030
0030
0020
0020
0040
ENDCHAR
STARTCHAR 04CF
ENCODING 1231
SWIDTH 144 0
DWIDTH 4 0
BBX 2 18 1 0
BITMAP
C0
C0
C0
C0
C0
C0
C0
C0
C0
C0
C0
C0
C0
C0
C0
C0
C0
C0
ENDCHAR
STARTCHAR 04D0
ENCODING 1232
SWIDTH 612 0
DWIDTH 17 0
BBX 14 23 2 0
BITMAP
1860
0CC0
0F80
0000
0000
0300
0780
0780
0780
0DC0
0CC0
0CC0
1860
1860
3FE0
3FF0
3030
7038
6018
6018
C01C
C00C
C00C
ENDCHAR
STARTCHAR 04D1
ENCODING 1233
SWIDTH 396 0
DWIDTH 11 0
BBX 9 18 1 0
BITMAP
4100
6300
3F00
1C00
0000
0C00
3F00
3F80
0180
0180
0980
3F80
7780
E180
C180
6380
7F80
3F80
ENDCHAR
STARTCHAR 04D2
ENCODING 1234
SWIDTH 612 0
DWIDTH 17 0
BBX 14 23 2 0
BITMAP
0C40
1CE0
1CE0
0000
0000
0300
0780
0780
0780
0DC0
0CC0
0CC0
1860
1860
3FE0
3FF0
3030
7038
6018
6018
C01C
C00C
C00C
ENDCHAR
STARTCHAR 04D3
ENCODING 1235
SWIDTH 396 0
DWIDTH 11 0
BBX 9 17 1 0
BITMAP
7300
7700
2000
0000
0C00
3F00
3F80
0180
0180
0980
3F80
7780
E180
C180
6380
7F80
3F80
ENDCHAR
STARTCHAR 04D4
ENCODING 1236
SWIDTH 720 0
DWIDTH 20 0
BBX 17 18 2 0
BITMAP
03FF80
07FF80
06C000
06C000
0CC000
0CC000
0CC000
18C000
1FFE00
3FFE00
30C000
30C000
70C000
60C000
60C000
C0C000
C0FF80
C0FF80
ENDCHAR
STARTCHAR 04D5
ENCODING 1237
SWIDTH 720 0
DWIDTH 20 0
BBX 18 13 1 0
BITMAP
0C1800
3F7E00
3FE700
01C180
018180
09FFC0
3FFFC0
778000
E18000
C1C100
63C380
7F7F00
3E3E00
ENDCHAR
STARTCHAR 04D6
ENCODING 1238
SWIDTH 504 0
DWIDTH 14 0
BBX 12 23 1 0
BITMAP
30C0
1980
0F80
0000
0000
FFF0
FFF0
C000
C000
C000
C000
C000
C000
FFC0
FFC0
C000
C000
C000
C000
C000
C000
FFF0
FFF0
ENDCHAR
STARTCHAR 04D7
ENCODING 1239
SWIDTH 468 0
DWIDTH 13 0
BBX 11 18 1 0
BITMAP
30C0
3180
1F80
0F00
0000
0600
1F80
39C0
60C0
6060
FFE0
FFE0
C000
6000
60C0
70C0
3FC0
1F00
ENDCHAR
STARTCHAR 04D8
ENCODING 1240
SWIDTH 612 0
DWIDTH 17 0
BBX 15 18 1 0
BITMAP
07E0
0FF0
1C38
101C
000C
0006
0006
0006
FFFE
FFFE
C006
6006
6006
700C
301C
3838
1FF0
07E0
ENDCHAR
STARTCHAR 04D9
ENCODING 1241
SWIDTH 468 0
DWIDTH 13 0
BBX 11 13 1 0
BITMAP
0600
1F80
39C0
60C0
2060
0060
FFE0
FFE0
6060
60E0
70C0
3F80
1F00
ENDCHAR
STARTCHAR 04DA
ENCODING 1242
SWIDTH 612 0
DWIDTH 17 0
BBX 15 23 1 0
BITMAP
0460
0E70
0E60
0000
0000
07E0
0FF0
1C38
101C
000C
0006
0006
0006
FFFE
FFFE
C006
6006
6006
700C
301C
3838
1FF0
07E0
ENDCHAR
STARTCHAR 04DB
ENCODING 1243
SWIDTH 468 0
DWIDTH 13 0
BBX 11 17 1 0
BITMAP
3980
39C0
1000
0000
0600
1F80
39C0
60C0
2060
0060
FFE0
FFE0
6060
60E0
70C0
3F80
1F00
ENDCHAR
STARTCHAR 04DC
ENCODING 1244
SWIDTH 900 0
DWIDTH 25 0
BBX 21 23 2 0
BITMAP
008C00
01DC00
01CC00
000000
000000
603030
7830F0
1830C0
0C3180
0C3180
0C3180
0C3180
063380
07BF00
07FF00
067300
0C3180
1C31C0
3830E0
303060
703030
E03038
C03018
ENDCHAR
STARTCHAR 04DD
ENCODING 1245
SWIDTH 684 0
DWIDTH 19 0
BBX 18 17 1 0
BITMAP
073000
073800
020000
000000
200100
38C700
18CE00
0CCC00
0CCC00
0CDC00
0FF800
1FFC00
18CE00
38C700
70C300
60C380
E0C1C0
ENDCHAR
STARTCHAR 04DE
ENCODING 1246
SWIDTH 504 0
DWIDTH 14 0
BBX 12 23 1 0
BITMAP
1180
39C0
3980
0000
0000
1F80
3FC0
70E0
E060
C060
0060
00E0
0FC0
0F80
03E0
0060
0030
0030
C030
C070
E0E0
7FC0
1F80
ENDCHAR
STARTCHAR 04DF
ENCODING 1247
SWIDTH 360 0
DWIDTH 10 0
BBX 8 17 1 0
BITMAP
67
77
02
00
1C
3E
77
63
03
0E
0E
07
03
C3
63
7F
3E
ENDCHAR
STARTCHAR 04E0
ENCODING 1248
SWIDTH 504 0
DWIDTH 14 0
BBX 13 18 1 0
BITMAP
FFF8
FFF8
0030
0070
00E0
00C0
01C0
03C0
03E0
0070
0030
0030
0018
E030
6030
7070
3FE0
1F80
ENDCHAR
STARTCHAR 04E1
ENCODING 1249
SWIDTH 432 0
DWIDTH 12 0
BBX 10 18 1 -6
BITMAP
FFC0
FFC0
0180
0380
0700
0600
0E00
0F00
0180
01C0
00C0
00C0
00C0
01C0
0180
7780
7F00
1800
ENDCHAR
STARTCHAR 04E2
ENCODING 1250
SWIDTH 504 0
DWIDTH 14 0
BBX 12 22 1 0
BITMAP
1FC0
1FC0
0000
0000
C030
C030
C030
C030
C070
C0F0
C1F0
C3B0
C730
CE30
DC30
F830
F030
E030
C030
C030
C030
C030
ENDCHAR
STARTCHAR 04E3
ENCODING 1251
SWIDTH 432 0
DWIDTH 12 0
BBX 10 17 1 0
BITMAP
3F80
3F80
0000
0000
0000
C0C0
C0C0
C1C0
C3C0
C7C0
CEC0
DCC0
F8C0
F0C0
E0C0
C0C0
C0C0
ENDCHAR
STARTCHAR 04E4
ENCODING 1252
SWIDTH 504 0
DWIDTH 14 0
BBX 12 23 1 0
BITMAP
1080
39C0
19C0
0000
0000
C030
C030
C030
C030
C070
C0F0
C1F0
C3B0
C730
CE30
DC30
F830
F030
E030
C030
C030
C030
C030
ENDCHAR
STARTCHAR 04E5
ENCODING 1253
SWIDTH 432 0
DWIDTH 12 0
BBX 10 17 1 0
BITMAP
7380
7380
2100
0000
0000
C0C0
C0C0
C1C0
C3C0
C7C0
CEC0
DCC0
F8C0
F0C0
E0C0
C0C0
C0C0
ENDCHAR
STARTCHAR 04E6
ENCODING 1254
SWIDTH 612 0
DWIDTH 17 0
BBX 15 23 1 0
BITMAP
0460
0E70
0E60
0000
0000
07E0
1FF0
1C38
301C
700C
6006
6006
E006
C006
C006
C006
6006
6006
700C
301C
3838
1FF0
07E0
ENDCHAR
STARTCHAR 04E7
ENCODING 1255
SWIDTH 468 0
DWIDTH 13 0
BBX 11 17 1 0
BITMAP
3980
39C0
1000
0000
0600
1F80
39C0
60C0
6060
E060
C060
C060
6060
60E0
70C0
3F80
1F00
ENDCHAR
STARTCHAR 04E8
ENCODING 1256
SWIDTH 612 0
DWIDTH 17 0
BBX 15 18 1 0
BITMAP
07E0
1FF0
1C38
301C
700C
6006
6006
E006
FFFE
FFFE
C006
6006
6006
700C
301C
3838
1FF0
07E0
ENDCHAR
STARTCHAR 04E9
ENCODING 1257
SWIDTH 468 0
DWIDTH 13 0
BBX 11 13 1 0
BITMAP
0600
1F80
39C0
60C0
6060
E060
FFE0
FFE0
6060
60E0
70C0
3F80
1F00
ENDCHAR
STARTCHAR 04EA
ENCODING 1258
SWIDTH 612 0
DWIDTH 17 0
BBX 15 23 1 0
BITMAP
0460
0E70
0E60
0000
0000
07E0
1FF0
1C38
301C
700C
6006
6006
E006
FFFE
FFFE
C006
6006
6006
700C
301C
3838
1FF0
07E0
ENDCHAR
STARTCHAR 04EB
ENCODING 1259
SWIDTH 468 0
DWIDTH 13 0
BBX 11 17 1 0
BITMAP
3980
39C0
1000
0000
0600
1F80
39C0
60C0
6060
E060
FFE0
FFE0
6060
60E0
70C0
3F80
1F00
ENDCHAR
STARTCHAR 04EC
ENCODING 1260
SWIDTH 576 0
DWIDTH 16 0
BBX 13 23 2 0
BITMAP
1880
39C0
19C0
0000
0000
1F00
7FC0
E0E0
C070
8030
0038
0018
0018
0FF8
0FF8
0018
0018
0038
8030
C070
E0E0
7FC0
1F80
ENDCHAR
STARTCHAR 04ED
ENCODING 1261
SWIDTH 432 0
DWIDTH 12 0
BBX 11 17 1 0
BITMAP
3380
3B80
0100
0000
0C00
3F00
7380
E1C0
00C0
00C0
0FE0
0FE0
00C0
40C0
61C0
7F80
1F00
ENDCHAR
STARTCHAR 04EE
ENCODING 1262
SWIDTH 540 0
DWIDTH 15 0
BBX 13 22 1 0
BITMAP
0FE0
0FE0
0000
0000
3018
1818
1830
1830
0C30
0C60
0E60
06E0
06C0
07C0
03C0
0380
0180
0300
0300
E700
7E00
3C00
ENDCHAR
STARTCHAR 04EF
ENCODING 1263
SWIDTH 468 0
DWIDTH 13 0
BBX 10 23 2 -6
BITMAP
3F00
3F00
0000
0000
0000
C0C0
C0C0
E1C0
6180
6180
3300
3300
3300
1E00
1E00
1E00
0C00
0C00
1C00
1800
3800
F000
C000
ENDCHAR
STARTCHAR 04F0
ENCODING 1264
SWIDTH 540 0
DWIDTH 15 0
BBX 13 23 1 0
BITMAP
0460
0E70
0E60
0000
0000
3018
1818
1830
1830
0C30
0C60
0E60
06E0
06C0
07C0
03C0
0380
0180
0300
0300
E700
7E00
3C00
ENDCHAR
STARTCHAR 04F1
ENCODING 1265
SWIDTH 468 0
DWIDTH 13 0
BBX 10 23 2 -6
BITMAP
7380
7380
0100
0000
0000
C0C0
C0C0
E1C0
6180
6180
3300
3300
3300
1E00
1E00
1E00
0C00
0C00
1C00
1800
3800
F000
C000
ENDCHAR
STARTCHAR 04F2
ENCODING 1266
SWIDTH 540 0
DWIDTH 15 0
BBX 13 23 1 0
BITMAP
03B8
0220
0440
0000
0000
3018
1818
1830
1830
0C30
0C60
0E60
06E0
06C0
07C0
03C0
0380
0180
0300
0300
E700
7E00
3C00
ENDCHAR
STARTCHAR 04F3
ENCODING 1267
SWIDTH 468 0
DWIDTH 13 0
BBX 10 24 2 -6
BITMAP
0CC0
1880
1100
2200
0000
0000
C0C0
C0C0
E1C0
6180
6180
3300
3300
3300
1E00
1E00
1E00
0C00
0C00
1C00
1800
3800
F000
C000
ENDCHAR
STARTCHAR 04F4
ENCODING 1268
SWIDTH 504 0
DWIDTH 14 0
BBX 13 23 1 0
BITMAP
1880
1DC0
18C0
0000
0000
C018
C018
C018
C018
C018
E018
6018
6018
3038
3FF8
0FF8
0018
0018
0018
0018
0018
0018
0018
ENDCHAR
STARTCHAR 04F5
ENCODING 1269
SWIDTH 396 0
DWIDTH 11 0
BBX 9 17 1 0
BITMAP
7300
7380
2000
0000
0000
C180
C180
C180
6180
7380
3F80
1F80
0180
0180
0180
0180
0180
ENDCHAR
STARTCHAR 04F6
ENCODING 1270
SWIDTH 504 0
DWIDTH 14 0
BBX 12 21 1 -3
BITMAP
FFF0
FFF0
C000
C000
C000
C000
C000
C000
C000
C000
C000
C000
C000
C000
C000
C000
F000
F000
3000
3000
3000
ENDCHAR
STARTCHAR 04F7
ENCODING 1271
SWIDTH 360 0
DWIDTH 10 0
BBX 9 15 1 -3
BITMAP
FF80
FF80
C000
C000
C000
C000
C000
C000
C000
C000
F000
F000
3000
3000
3000
ENDCHAR
STARTCHAR 04F8
ENCODING 1272
SWIDTH 612 0
DWIDTH 17 0
BBX 15 23 1 0
BITMAP
0460
0E70
0E60
0000
0000
C006
C006
C006
C006
C006
C006
C006
FE06
FFC6
C1E6
C066
C076
C036
C036
C066
C0E6
FFC6
FF86
ENDCHAR
STARTCHAR 04F9
ENCODING 1273
SWIDTH 504 0
DWIDTH 14 0
BBX 12 17 1 0
BITMAP
39C0
39C0
0080
0000
0000
C030
C030
C030
C030
FC30
FF30
C330
C330
C330
C330
FF30
FC30
ENDCHAR
STARTCHAR 04FA
ENCODING 1274
SWIDTH 576 0
DWIDTH 16 0
BBX 14 24 1 -6
BITMAP
3FFC
3FFC
3000
3000
3000
3000
3000
3000
FE00
FE00
3000
3000
3000
3000
3000
3000
3C00
3C00
0C00
0C00
0C00
5C00
F800
7000
ENDCHAR
STARTCHAR 04FB
ENCODING 1275
SWIDTH 432 0
DWIDTH 12 0
BBX 11 18 1 -6
BITMAP
3FE0
3FE0
3000
3000
3000
FE00
FE00
3000
3000
3000
3C00
3C00
0C00
0C00
0C00
5C00
F800
7000
ENDCHAR
STARTCHAR 04FC
ENCODING 1276
SWIDTH 612 0
DWIDTH 17 0
BBX 15 23 2 -6
BITMAP
C00C
E018
7038
3070
3860
1CE0
0DC0
0780
0780
0700
0780
0DC0
1CE0
3860
3070
7038
E018
C00C
000E
0006
0006
001C
001C
ENDCHAR
STARTCHAR 04FD
ENCODING 1277
SWIDTH 468 0
DWIDTH 13 0
BBX 11 18 2 -6
BITMAP
E1C0
6180
7380
3F00
1E00
0C00
1E00
1E00
3300
7380
E1C0
C0C0
00E0
0060
0060
01E0
01C0
0100
ENDCHAR
STARTCHAR 04FE
ENCODING 1278
SWIDTH 612 0
DWIDTH 17 0
BBX 14 18 2 0
BITMAP
C00C
E018
7038
3070
3860
1CE0
0DC0
0780
FFFC
FFFC
0780
0DC0
1CE0
3860
3070
7038
E018
C00C
ENDCHAR
STARTCHAR 04FF
ENCODING 1279
SWIDTH 468 0
DWIDTH 13 0
BBX 10 12 2 0
BITMAP
E1C0
6180
7380
3F00
1E00
FFC0
FFC0
3E00
3300
7380
E1C0
C0C0
ENDCHAR
STARTCHAR 0500
ENCODING 1280
SWIDTH 504 0
DWIDTH 14 0
BBX 12 18 1 0
BITMAP
0030
0030
0030
0030
0030
0730
1FF0
39F0
7070
6030
E030
C030
C030
6030
6030
7070
3FF0
0FB0
ENDCHAR
STARTCHAR 0501
ENCODING 1281
SWIDTH 468 0
DWIDTH 13 0
BBX 11 18 1 0
BITMAP
0060
0060
0060
0060
0060
0660
1FE0
39E0
60E0
6060
E060
C060
C060
6060
60E0
70E0
3FE0
1F60
ENDCHAR
STARTCHAR 0502
ENCODING 1282
SWIDTH 756 0
DWIDTH 21 0
BBX 19 18 1 0
BITMAP
003000
003000
003000
003000
003000
073000
1FF000
39F000
707000
603000
E037E0
C037E0
C03180
603180
603180
707180
3FFF80
0F9F00
ENDCHAR
STARTCHAR 0503
ENCODING 1283
SWIDTH 756 0
DWIDTH 21 0
BBX 19 18 1 0
BITMAP
006000
006000
006000
006000
006000
066000
1FE000
39E000
60E000
606000
E067E0
C067E0
C06180
606180
60E180
70F300
3FFF00
1F1E00
ENDCHAR
STARTCHAR 0504
ENCODING 1284
SWIDTH 756 0
DWIDTH 21 0
BBX 19 18 1 0
BITMAP
1F8000
3FC000
70E000
E06000
C06000
006000
00E000
0FC000
0F8000
03E000
0067E0
0037E0
003180
003180
003180
003180
001F80
001F00
ENDCHAR
STARTCHAR 0505
ENCODING 1285
SWIDTH 612 0
DWIDTH 17 0
BBX 15 13 1 0
BITMAP
1800
7C00
6E00
C600
0600
1E7E
1E7E
0718
0318
0318
0318
03F8
01F0
ENDCHAR
STARTCHAR 0506
ENCODING 1286
SWIDTH 576 0
DWIDTH 16 0
BBX 14 21 1 -3
BITMAP
1F80
3FC0
70E0
E060
C060
0060
00E0
0FC0
0F80
03E0
0060
0030
0030
0030
0030
0030
003C
003C
000C
000C
000C
ENDCHAR
STARTCHAR 0507
ENCODING 1287
SWIDTH 432 0
DWIDTH 12 0
BBX 10 16 1 -3
BITMAP
1800
7C00
6E00
C600
0600
1E00
1E00
0700
0300
0300
0300
03C0
03C0
00C0
00C0
00C0
ENDCHAR
STARTCHAR 0508
ENCODING 1288
SWIDTH 792 0
DWIDTH 22 0
BBX 20 18 1 0
BITMAP
3FF800
3FF800
301800
301800
301800
301800
301800
301800
301800
301800
301BF0
301BF0
3018C0
3018C0
3018C0
7019C0
E01F80
C00F00
ENDCHAR
STARTCHAR 0509
ENCODING 1289
SWIDTH 756 0
DWIDTH 21 0
BBX 19 12 1 0
BITMAP
3FE000
3FE000
306000
306000
3067E0
3067E0
306180
306180
306180
707300
E03F00
C01E00
ENDCHAR
STARTCHAR 050A
ENCODING 1290
SWIDTH 756 0
DWIDTH 21 0
BBX 19 18 1 0
BITMAP
C03000
C03000
C03000
C03000
C03000
C03000
C03000
C03000
FFF000
FFF000
C037E0
C037E0
C03180
C03180
C03180
C03180
C03F00
C01F00
ENDCHAR
STARTCHAR 050B
ENCODING 1291
SWIDTH 684 0
DWIDTH 19 0
BBX 17 12 1 0
BITMAP
C0C000
C0C000
C0C000
C0C000
C0DF80
FFDF80
FFC600
C0C600
C0C600
C0C600
C07E00
C07C00
ENDCHAR
STARTCHAR 050C
ENCODING 1292
SWIDTH 648 0
DWIDTH 18 0
BBX 16 18 1 0
BITMAP
07E0
1FF0
1C38
301C
7008
6000
6000
E000
C03F
C03F
C03F
600C
600C
700C
301C
3838
1FF0
07E0
ENDCHAR
STARTCHAR 050D
ENCODING 1293
SWIDTH 504 0
DWIDTH 14 0
BBX 13 13 1 0
BITMAP
0600
1F80
39C0
60C0
6000
E000
C3F8
C3F8
6060
60E0
70C0
3FC0
1F00
ENDCHAR
STARTCHAR 050E
ENCODING 1294
SWIDTH 576 0
DWIDTH 16 0
BBX 15 18 1 0
BITMAP
FFF0
FFF0
0600
0600
0600
0600
0600
0600
0600
0600
06FE
06FE
0638
0638
0630
0730
03F0
01E0
ENDCHAR
STARTCHAR 050F
ENCODING 1295
SWIDTH 540 0
DWIDTH 15 0
BBX 13 12 1 0
BITMAP
FF80
FF80
1800
1800
19F8
19F8
1860
1860
1C60
0CE0
0FC0
0780
ENDCHAR
STARTCHAR 0510
ENCODING 1296
SWIDTH 468 0
DWIDTH 13 0
BBX 12 18 1 0
BITMAP
1F80
3FC0
70E0
E060
C060
E000
6000
7E00
3E00
7C00
E000
C000
C000
C030
C070
E0E0
7FC0
1F80
ENDCHAR
STARTCHAR 0511
ENCODING 1297
SWIDTH 360 0
DWIDTH 10 0
BBX 8 13 1 0
BITMAP
1C
3E
77
63
60
78
78
60
E0
C3
63
7F
3E
ENDCHAR
STARTCHAR 0512
ENCODING 1298
SWIDTH 504 0
DWIDTH 14 0
BBX 13 24 1 -6
BITMAP
3FF8
3FF8
3018
3018
3018
3018
3018
3018
3018
3018
3018
3018
3018
3018
3018
7018
E018
C018
0018
0018
0038
0170
03F0
01C0
ENDCHAR
STARTCHAR 0513
ENCODING 1299
SWIDTH 468 0
DWIDTH 13 0
BBX 11 18 1 -6
BITMAP
3FE0
3FE0
3060
3060
3060
3060
3060
3060
3060
7060
E060
C060
0060
0060
0060
02E0
07C0
0300
ENDCHAR
STARTCHAR 0514
ENCODING 1300
SWIDTH 864 0
DWIDTH 24 0
BBX 22 18 1 0
BITMAP
3FC01C
3FE018
306030
307070
3038E0
3018C0
300DC0
300F80
300700
300700
300F80
300DC0
3018C0
3038E0
307070
706030
E0E018
C1C01C
ENDCHAR
STARTCHAR 0515
ENCODING 1301
SWIDTH 684 0
DWIDTH 19 0
BBX 17 12 1 0
BITMAP
3F8380
3FC700
30E600
306E00
303C00
303800
303800
307C00
306E00
70C700
E1C300
C38380
ENDCHAR
STARTCHAR 0516
ENCODING 1302
SWIDTH 648 0
DWIDTH 18 0
BBX 16 18 1 0
BITMAP
FF07
FF8E
C1CC
C0FC
C078
C070
C060
C0E0
FFC0
FFC0
C0E0
C060
C030
C038
C018
C00C
C00E
C007
ENDCHAR
STARTCHAR 0517
ENCODING 1303
SWIDTH 648 0
DWIDTH 18 0
BBX 16 19 1 -6
BITMAP
0E00
DF86
F9CE
E0DC
E078
E070
C070
C070
E078
E0FC
F0CC
FFCE
DF07
C000
C000
C000
C000
C000
4000
ENDCHAR
STARTCHAR 0518
ENCODING 1304
SWIDTH 864 0
DWIDTH 24 0
BBX 21 18 2 0
BITMAP
0FFFF8
3FFFF8
703000
603000
603000
603000
703000
3FF000
1FFFE0
0E3FE0
0C3000
183000
183000
303000
703000
603000
E03FF8
C03FF8
ENDCHAR
STARTCHAR 0519
ENCODING 1305
SWIDTH 720 0
DWIDTH 20 0
BBX 17 13 2 0
BITMAP
003800
3FFE00
7FEF00
638300
638380
7FFF80
3FFF80
3B0000
330000
718300
61C700
E0FE00
C07C00
ENDCHAR
STARTCHAR 051A
ENCODING 1306
SWIDTH 612 0
DWIDTH 17 0
BBX 17 20 1 -2
BITMAP
07E000
1FF000
1C3800
301C00
700C00
600600
600600
E00600
C00600
C00600
C00600
600600
63C600
77EC00
327C00
383800
1FF800
07F880
001F80
000700
ENDCHAR
ENDFONT
